{
.appVersion = "1268";
classes = (
{
code = "  ";
name = kc43_first_2;
}
);
copyright = "Copyright (c) 2015, Joseph Steck, Rocketroom, LLC. All rights reserved.";
customParameters = (
{
name = note;
value = "For my beloved Alisa \"Clay\" Steck\0122015-02-14: Created with FontForge (http://fontforge.org)";
},
{
name = openTypeNameLicense;

glyphs = (
{
glyphname = A;
layers = (
{
layerId = master01;
paths = (
{
closed = 1;
nodes = (
"198 0 LINE",
"198 16 LINE",
"163 16 OFFCURVE",
"148 23 OFFCURVE",
"148 38 CURVE SMOOTH",
"148 47 OFFCURVE",
"150 58 OFFCURVE",
"157 74 CURVE SMOOTH",
"251 304 LINE SMOOTH",
"253 308 OFFCURVE",
"255 312 OFFCURVE",
"261 312 CURVE SMOOTH",
"481 312 LINE SMOOTH",
"485 312 OFFCURVE",
"488 306 OFFCURVE",
"489 303 CURVE SMOOTH",
"586 67 LINE SMOOTH",
"589 60 OFFCURVE",
"590 52 OFFCURVE",
"590 47 CURVE SMOOTH",
"590 23 OFFCURVE",
"569 16 OFFCURVE",
"537 16 CURVE",
"537 0 LINE",
"724 0 LINE",
"724 16 LINE",
"697 16 OFFCURVE",
"687 19 OFFCURVE",
"680 36 CURVE SMOOTH",
"399 730 LINE",
"393 724 OFFCURVE",
"389 722 OFFCURVE",
"385 720 CURVE SMOOTH",
"381 718 OFFCURVE",
"378 716 OFFCURVE",
"372 711 CURVE",
"104 55 LINE",
"91 22 OFFCURVE",
"82 16 OFFCURVE",
"50 16 CURVE",
"50 0 LINE"
);
},
{
closed = 1;
nodes = (
"272 341 OFFCURVE",
"269 343 OFFCURVE",
"269 346 CURVE SMOOTH",
"269 347 OFFCURVE",
"270 349 OFFCURVE",
"271 351 CURVE SMOOTH",
"370 593 LINE",
"470 349 LINE SMOOTH",
"471 347 OFFCURVE",
"471 347 OFFCURVE",
"471 346 CURVE SMOOTH",
"471 343 OFFCURVE",
"469 341 OFFCURVE",
"464 341 CURVE SMOOTH",
"276 341 LINE SMOOTH"
);
}
);
userData = {
com.fontlab.hintData = {
hhints = (
{
position = 0;
width = 16;
},
{
position = 312;
width = 29;
},
{
position = 710;
width = 20;
}
);
};
com.schriftgestaltung.Glyphs.lastChange = "2019-08-31 22:11:20 +0000";
};
width = 777;
}
);
unicode = 0041;
},
{
glyphname = AE;
layers = (
{
layerId = master01;
paths = (
{
closed = 1;
nodes = (
"207 0 LINE",
"207 16 LINE",
"199 16 OFFCURVE",
"192 16 OFFCURVE",
"184 17 CURVE SMOOTH",
"170.738 19.792 OFFCURVE",
"157.477 24.045 OFFCURVE",
"157.477 42.002 CURVE SMOOTH",
"157.477 49.772 OFFCURVE",
"159.96 60.107 OFFCURVE",
"166 74 CURVE SMOOTH",
"299.53 333.771 LINE SMOOTH",
"301.376 338.257 OFFCURVE",
"303 342 OFFCURVE",
"309 342 CURVE SMOOTH",
"480.245 342 LINE",
"480.245 254.173 OFFCURVE",
"480.238 136.347 OFFCURVE",
"480.238 48.52 CURVE",
"480.238 48.52 OFFCURVE",
"471.471 22.266 OFFCURVE",
"452.368 18.395 CURVE SMOOTH",
"442.523 16.399 OFFCURVE",
"432.33 16.059 OFFCURVE",
"421.997 15.947 CURVE",
"421.997 0 LINE",
"507.557 0 LINE",
"520.997 0 LINE",
"535.488 0 LINE",
"615.047 0 LINE",
"855.997 0 LINE",
"872.997 140 LINE",
"856.997 139.014 LINE",
"844.464 78.53 OFFCURVE",
"817.114 47.06 OFFCURVE",
"755.997 32.197 CURVE SMOOTH",
"713.014 21.745 OFFCURVE",
"670.02 20.992 OFFCURVE",
"637.997 20.992 CURVE SMOOTH",
"619.909 20.992 OFFCURVE",
"609.602 22.131 OFFCURVE",
"590.677 24.395 CURVE SMOOTH",
"571.323 26.709 OFFCURVE",
"562.807 41.235 OFFCURVE",
"562.807 54.52 CURVE SMOOTH",
"559.466 337.353 LINE",
"588.37 339.911 OFFCURVE",
"640.08 343 OFFCURVE",
"662.997 343 CURVE SMOOTH",
"686.747 343 OFFCURVE",
"709.265 339.43 OFFCURVE",
"738.933 336.53 CURVE SMOOTH",
"748.406 334.352 OFFCURVE",
"766.29 324.951 OFFCURVE",
"768.796 307.396 CURVE SMOOTH",
"771.231 295.186 OFFCURVE",
"770.41 284.124 OFFCURVE",
"771.243 283.025 CURVE SMOOTH",
"787.118 283.025 LINE",
"787.118 430.521 LINE",
"771.243 430.521 LINE SMOOTH",
"770.41 429.422 OFFCURVE",
"771.231 415.186 OFFCURVE",
"768.796 406.152 CURVE SMOOTH",
"765.176 391.029 OFFCURVE",
"754.183 380.343 OFFCURVE",
"741.985 377.659 CURVE SMOOTH",
"711.699 374.864 OFFCURVE",
"690.124 372 OFFCURVE",
"662.997 372 CURVE SMOOTH",
"641.063 372 OFFCURVE",
"588.696 374.792 OFFCURVE",
"559.369 377.077 CURVE",
"562.811 681.031 LINE SMOOTH",
"562.959 692.576 OFFCURVE",
"573.511 703.611 OFFCURVE",
"590.186 705.605 CURVE SMOOTH",
"610.132 707.991 OFFCURVE",
"620.506 709 OFFCURVE",
"640.506 709 CURVE SMOOTH",
"668.188 709 OFFCURVE",
"701.455 707.155 OFFCURVE",
"721.506 699.803 CURVE SMOOTH",
"780.559 678.148 OFFCURVE",
"809.973 651.47 OFFCURVE",
"822.506 590.986 CURVE",
"838.506 590 LINE",
"821.506 730 LINE",
"623.044 730 LINE",
"623.044 730.333 LINE",
"363 730.333 LINE",
"363 714.458 LINE",
"371.292 714.349 OFFCURVE",
"379.414 713.622 OFFCURVE",
"387.371 712.012 CURVE SMOOTH",
"405.844 708.273 OFFCURVE",
"415.211 703 OFFCURVE",
"415.211 683.17 CURVE SMOOTH",
"415.211 676.345 OFFCURVE",
"410.128 669.056 OFFCURVE",
"408 665 CURVE SMOOTH",
"97 55 LINE SMOOTH",
"88.28 38.379 OFFCURVE",
"82 22 OFFCURVE",
"67 18 CURVE SMOOTH",
"59 17 OFFCURVE",
"51 16 OFFCURVE",
"43 16 CURVE",
"43 0 LINE"
);
},
{
closed = 1;
nodes = (
"322.101 371 OFFCURVE",
"319.374 372.825 OFFCURVE",
"319.374 376 CURVE SMOOTH",
"319.374 376.896 OFFCURVE",
"319.56 377.899 OFFCURVE",
"320 379 CURVE SMOOTH",
"473.562 688 LINE SMOOTH",
"474.896 690.685 OFFCURVE",
"476.7 691.94 OFFCURVE",
"478.197 691.94 CURVE SMOOTH",
"479.767 691.94 OFFCURVE",
"481 690.56 OFFCURVE",
"481 688 CURVE SMOOTH",
"481 379 LINE SMOOTH",
"481.44 377.899 OFFCURVE",
"481.739 376.896 OFFCURVE",
"481.739 376 CURVE SMOOTH",
"481.739 372.825 OFFCURVE",
"479.68 371 OFFCURVE",
"475 371 CURVE SMOOTH",
"467 371 LINE",
"326 371 LINE SMOOTH"
);
}
);
userData = {
com.fontlab.hintData = {
hhints = (
{
position = 0;
width = 21;
},
{
position = 342;
width = 29;
},
{
position = 692;
width = 38;
},
{
position = 709;
width = 21;
}
);
vhints = (
{
position = 482;
width = 78;
},
{
position = 771;
width = 16;
},
{
position = 823;
width = 16;
},
{
position = 857;
width = 16;
}
);
};
com.schriftgestaltung.Glyphs.lastChange = "2019-08-31 23:16:51 +0000";
};
width = 948;
}
);
unicode = 00C6;
},
{
glyphname = B;
layers = (
{
layerId = master01;
paths = (
{
closed = 1;
nodes = (
"471 -3 OFFCURVE",
"552 67 OFFCURVE",
"552 185 CURVE SMOOTH",
"552 292 OFFCURVE",
"460 379 OFFCURVE",
"341 384 CURVE",
"442 404 OFFCURVE",
"511 470 OFFCURVE",
"511 549 CURVE SMOOTH",
"511 657 OFFCURVE",
"411 734 OFFCURVE",
"272 734 CURVE SMOOTH",
"240 734 OFFCURVE",
"208 734 OFFCURVE",
"176 732 CURVE SMOOTH",
"144 730 OFFCURVE",
"112 730 OFFCURVE",
"80 730 CURVE SMOOTH",
"71 730 OFFCURVE",
"63 730 OFFCURVE",
"54 730 CURVE",
"54 714 LINE",
"62 714 OFFCURVE",
"71 714 OFFCURVE",
"78 712 CURVE SMOOTH",
"96 707 OFFCURVE",
"104 687 OFFCURVE",
"106 668 CURVE SMOOTH",
"108 652 OFFCURVE",
"108 514 OFFCURVE",
"108 371 CURVE SMOOTH",
"108 229 OFFCURVE",
"108 82 OFFCURVE",
"106 49 CURVE SMOOTH",
"105 32 OFFCURVE",
"94 20 OFFCURVE",
"78 18 CURVE SMOOTH",
"70 17 OFFCURVE",
"62 16 OFFCURVE",
"54 16 CURVE",
"54 0 LINE",
"134 0 LINE SMOOTH",
"153 0 OFFCURVE",
"170 0 OFFCURVE",
"186 0 CURVE SMOOTH",
"203 0 OFFCURVE",
"218 0 OFFCURVE",
"234 -1 CURVE SMOOTH",
"268 -3 OFFCURVE",
"299 -3 OFFCURVE",
"335 -3 CURVE SMOOTH"
);
},
{
closed = 1;
nodes = (
"242 24 OFFCURVE",
"225 24 OFFCURVE",
"209 25 CURVE SMOOTH",
"193 26 OFFCURVE",
"187 34 OFFCURVE",
"187 50 CURVE SMOOTH",
"187 356 LINE",
"231 358 OFFCURVE",
"251 358 OFFCURVE",
"262 358 CURVE SMOOTH",
"395 358 OFFCURVE",
"468 300 OFFCURVE",
"468 195 CURVE SMOOTH",
"468 80 OFFCURVE",
"399 24 OFFCURVE",
"257 24 CURVE SMOOTH"
);
},
{
closed = 1;
nodes = (
"218 394 OFFCURVE",
"200 394 OFFCURVE",
"187 395 CURVE",
"187 685 LINE SMOOTH",
"187 697 OFFCURVE",
"194 700 OFFCURVE",
"204 702 CURVE SMOOTH",
"209 703 OFFCURVE",
"244 704 OFFCURVE",
"260 704 CURVE SMOOTH",
"373 704 OFFCURVE",
"436 648 OFFCURVE",
"436 548 CURVE SMOOTH",
"436 457 OFFCURVE",
"353 394 OFFCURVE",
"233 394 CURVE SMOOTH"
);
}
);
userData = {
com.fontlab.hintData = {
hhints = (
{
position = -2;
width = 26;
},
{
position = 0;
width = 16;
},
{
position = 358;
width = 36;
},
{
position = 704;
width = 30;
},
{
position = 714;
width = 16;
}
);
vhints = (
{
position = 109;
width = 76;
},
{
position = 436;
width = 76;
},
{
position = 468;
width = 84;
}
);
};
com.schriftgestaltung.Glyphs.lastChange = "2019-09-01 04:07:05 +0000";
};
width = 601;
}
);
unicode = 0042;
},
{
glyphname = C;
layers = (
{
layerId = master01;
paths = (
{
closed = 1;
nodes = (
"634 -10 OFFCURVE",
"684 144 OFFCURVE",
"695 178 CURVE",
"670 186 LINE",
"660 166 OFFCURVE",
"589 32 OFFCURVE",
"407 32 CURVE SMOOTH",
"334 32 OFFCURVE",
"144 52 OFFCURVE",
"144 385 CURVE SMOOTH",
"144 571 OFFCURVE",
"253 705 OFFCURVE",
"404 705 CURVE SMOOTH",
"532 705 OFFCURVE",
"629 622 OFFCURVE",
"680 472 CURVE SMOOTH",
"681 469 OFFCURVE",
"684 467 OFFCURVE",
"691 467 CURVE SMOOTH",
"695 467 OFFCURVE",
"701 470 OFFCURVE",
"701 471 CURVE",
"696 672 LINE SMOOTH",
"696 680 OFFCURVE",
"691 684 OFFCURVE",
"684 684 CURVE SMOOTH",
"679 684 OFFCURVE",
"676 679 OFFCURVE",
"673 674 CURVE SMOOTH",
"669 666 OFFCURVE",
"664 657 OFFCURVE",
"649 657 CURVE SMOOTH",
"638 657 OFFCURVE",
"624 666 OFFCURVE",
"605 679 CURVE SMOOTH",
"567 704 OFFCURVE",
"509 742 OFFCURVE",
"418 742 CURVE SMOOTH",
"196 742 OFFCURVE",
"55 591 OFFCURVE",
"55 352 CURVE SMOOTH",
"55 53 OFFCURVE",
"286 -10 OFFCURVE",
"399 -10 CURVE SMOOTH"
);
}
);
userData = {
com.fontlab.hintData = {
hhints = (
{
position = -10;
width = 42;
},
{
position = 705;
width = 37;
}
);
vhints = (
{
position = 55;
width = 89;
},
{
position = 680;
width = 20;
}
);
};
com.schriftgestaltung.Glyphs.lastChange = "2019-08-31 23:16:51 +0000";
};
width = 769;
}
);
unicode = 0043;
},
{
glyphname = D;
layers = (
{
layerId = master01;
paths = (
{
closed = 1;
nodes = (
"573 -3 OFFCURVE",
"709 132 OFFCURVE",
"709 363 CURVE SMOOTH",
"709 582 OFFCURVE",
"562 731 OFFCURVE",
"345 731 CURVE SMOOTH",
"293 731 OFFCURVE",
"241 730 OFFCURVE",
"189 730 CURVE",
"54 730 LINE",
"54 714 LINE",
"62 714 OFFCURVE",
"70 714 OFFCURVE",
"78 712 CURVE SMOOTH",
"96 707 OFFCURVE",
"106 696 OFFCURVE",
"106 682 CURVE",
"108 623 OFFCURVE",
"109 500 OFFCURVE",
"109 375 CURVE SMOOTH",
"109 249 OFFCURVE",
"109 120 OFFCURVE",
"106 49 CURVE SMOOTH",
"105 32 OFFCURVE",
"94 20 OFFCURVE",
"78 18 CURVE SMOOTH",
"70 17 OFFCURVE",
"62 16 OFFCURVE",
"54 16 CURVE",
"54 0 LINE",
"176 0 LINE SMOOTH",
"189 0 OFFCURVE",
"317 -3 OFFCURVE",
"326 -3 CURVE SMOOTH"
);
},
{
closed = 1;
nodes = (
"193 29 OFFCURVE",
"189 34 OFFCURVE",
"189 50 CURVE SMOOTH",
"189 684 LINE SMOOTH",
"189 691 OFFCURVE",
"194 696 OFFCURVE",
"201 696 CURVE SMOOTH",
"209 696 OFFCURVE",
"298 696 OFFCURVE",
"306 696 CURVE SMOOTH",
"513 696 OFFCURVE",
"621 578 OFFCURVE",
"621 353 CURVE SMOOTH",
"621 149 OFFCURVE",
"509 29 OFFCURVE",
"308 29 CURVE SMOOTH",
"206 29 LINE"
);
}
);
userData = {
com.fontlab.hintData = {
hhints = (
{
position = 0;
width = 29;
},
{
position = 0;
width = 16;
},
{
position = 696;
width = 34;
},
{
position = 714;
width = 16;
}
);
vhints = (
{
position = 106;
width = 83;
},
{
position = 621;
width = 88;
}
);
};
com.schriftgestaltung.Glyphs.lastChange = "2019-09-01 04:13:30 +0000";
};
width = 776;
}
);
unicode = 0044;
},
{
glyphname = Eth;
layers = (
{
components = (
{
name = D;
}
);
layerId = master01;
paths = (
{
closed = 1;
nodes = (
"280 372 LINE",
"285 372 OFFCURVE",
"286 381 OFFCURVE",
"286 391 CURVE SMOOTH",
"286 403 OFFCURVE",
"284 416 OFFCURVE",
"280 416 CURVE",
"27 416 LINE",
"21 416 OFFCURVE",
"18 407 OFFCURVE",
"18 396 CURVE SMOOTH",
"18 385 OFFCURVE",
"21 374 OFFCURVE",
"27 372 CURVE"
);
}
);
userData = {
com.fontlab.hintData = {
hhints = (
{
position = 0;
width = 16;
},
{
position = 0;
width = 29;
},
{
position = 372;
width = 44;
},
{
position = 696;
width = 34;
},
{
position = 714;
width = 16;
}
);
vhints = (
{
position = 106;
width = 83;
},
{
position = 621;
width = 88;
}
);
};
com.schriftgestaltung.Glyphs.lastChange = "2019-08-31 23:16:51 +0000";
};
width = 776;
}
);
unicode = 00D0;
},
{
glyphname = E;
layers = (
{
layerId = master01;
paths = (
{
closed = 1;
nodes = (
"522 0 LINE",
"539 140 LINE",
"523 139 LINE",
"508 73 OFFCURVE",
"483 46 OFFCURVE",
"422 32 CURVE SMOOTH",
"389 24 OFFCURVE",
"349 21 OFFCURVE",
"267 21 CURVE SMOOTH",
"249 21 OFFCURVE",
"239 21 OFFCURVE",
"220 24 CURVE SMOOTH",
"203 27 OFFCURVE",
"192 38 OFFCURVE",
"192 55 CURVE SMOOTH",
"188 373 LINE",
"231 378 OFFCURVE",
"279 380 OFFCURVE",
"314 380 CURVE SMOOTH",
"349 380 OFFCURVE",
"372 378 OFFCURVE",
"385 373 CURVE SMOOTH",
"401 367 OFFCURVE",
"413 356 OFFCURVE",
"415 343 CURVE SMOOTH",
"417 331 OFFCURVE",
"417 323 OFFCURVE",
"417 319 CURVE",
"433 319 LINE",
"433 467 LINE",
"417 467 LINE",
"417 464 OFFCURVE",
"417 451 OFFCURVE",
"415 442 CURVE SMOOTH",
"412 428 OFFCURVE",
"401 416 OFFCURVE",
"388 414 CURVE SMOOTH",
"359 410 OFFCURVE",
"342 408 OFFCURVE",
"307 408 CURVE SMOOTH",
"278 408 OFFCURVE",
"231 410 OFFCURVE",
"188 413 CURVE",
"192 681 LINE SMOOTH",
"192 693 OFFCURVE",
"203 704 OFFCURVE",
"219 706 CURVE SMOOTH",
"239 708 OFFCURVE",
"250 709 OFFCURVE",
"270 709 CURVE SMOOTH",
"333 709 OFFCURVE",
"360 706 OFFCURVE",
"388 698 CURVE SMOOTH",
"448 680 OFFCURVE",
"476 650 OFFCURVE",
"489 591 CURVE",
"505 590 LINE",
"488 730 LINE",
"57 730 LINE",
"57 714 LINE",
"65 714 OFFCURVE",
"73 714 OFFCURVE",
"81 712 CURVE SMOOTH",
"98 708 OFFCURVE",
"108 697 OFFCURVE",
"109 682 CURVE SMOOTH",
"111 657 OFFCURVE",
"112 529 OFFCURVE",
"112 395 CURVE SMOOTH",
"112 240 OFFCURVE",
"111 76 OFFCURVE",
"109 49 CURVE SMOOTH",
"108 33 OFFCURVE",
"98 22 OFFCURVE",
"81 18 CURVE SMOOTH",
"72 16 OFFCURVE",
"61 16 OFFCURVE",
"51 16 CURVE",
"51 0 LINE"
);
}
);
userData = {
com.fontlab.hintData = {
hhints = (
{
position = 0;
width = 21;
},
{
position = 379;
width = 29;
},
{
position = 709;
width = 21;
}
);
vhints = (
{
position = 109;
width = 83;
},
{
position = 417;
width = 16;
},
{
position = 489;
width = 16;
},
{
position = 523;
width = 16;
}
);
};
com.schriftgestaltung.Glyphs.lastChange = "2019-08-31 22:56:29 +0000";
};
width = 566;
}
);
unicode = 0045;
},
{
glyphname = F;
layers = (
{
layerId = master01;
paths = (
{
closed = 1;
nodes = (
"249 0 LINE",
"249 16 LINE",
"237 16 OFFCURVE",
"227 16 OFFCURVE",
"216 20 CURVE SMOOTH",
"199 26 OFFCURVE",
"191 37 OFFCURVE",
"191 49 CURVE SMOOTH",
"188 355 LINE",
"231 359 OFFCURVE",
"274 361 OFFCURVE",
"309 361 CURVE SMOOTH",
"344 361 OFFCURVE",
"372 359 OFFCURVE",
"385 355 CURVE SMOOTH",
"401 350 OFFCURVE",
"414 338 OFFCURVE",
"415 325 CURVE SMOOTH",
"416 313 OFFCURVE",
"416 305 OFFCURVE",
"416 301 CURVE",
"432 301 LINE",
"432 449 LINE",
"416 449 LINE",
"416 447 OFFCURVE",
"416 433 OFFCURVE",
"414 424 CURVE SMOOTH",
"411 409 OFFCURVE",
"399 397 OFFCURVE",
"387 396 CURVE SMOOTH",
"347 392 OFFCURVE",
"319 390 OFFCURVE",
"287 390 CURVE SMOOTH",
"259 390 OFFCURVE",
"229 392 OFFCURVE",
"188 395 CURVE",
"191 676 LINE SMOOTH",
"191 692 OFFCURVE",
"202 704 OFFCURVE",
"219 706 CURVE SMOOTH",
"239 708 OFFCURVE",
"249 709 OFFCURVE",
"269 709 CURVE SMOOTH",
"345 709 OFFCURVE",
"382 706 OFFCURVE",
"416 698 CURVE SMOOTH",
"476 683 OFFCURVE",
"504 654 OFFCURVE",
"517 591 CURVE",
"533 590 LINE",
"516 730 LINE",
"50 730 LINE",
"50 714 LINE",
"60 714 OFFCURVE",
"71 714 OFFCURVE",
"80 712 CURVE SMOOTH",
"99 708 OFFCURVE",
"107 695 OFFCURVE",
"108 682 CURVE SMOOTH",
"110 656 OFFCURVE",
"111 530 OFFCURVE",
"111 396 CURVE SMOOTH",
"111 237 OFFCURVE",
"110 68 OFFCURVE",
"108 49 CURVE SMOOTH",
"107 37 OFFCURVE",
"99 23 OFFCURVE",
"80 18 CURVE SMOOTH",
"72 16 OFFCURVE",
"64 16 OFFCURVE",
"56 16 CURVE",
"56 0 LINE"
);
}
);
userData = {
com.fontlab.hintData = {
hhints = (
{
position = 0;
width = 16;
},
{
position = 361;
width = 29;
},
{
position = 709;
width = 21;
}
);
vhints = (
{
position = 111;
width = 76;
},
{
position = 416;
width = 16;
},
{
position = 517;
width = 16;
}
);
};
com.schriftgestaltung.Glyphs.lastChange = "2019-08-31 23:16:27 +0000";
};
width = 579;
}
);
unicode = 0046;
},
{
glyphname = G;
layers = (
{
layerId = master01;
paths = (
{
closed = 1;
nodes = (
"520 -10 OFFCURVE",
"608 31 OFFCURVE",
"671 113 CURVE SMOOTH",
"688 135 OFFCURVE",
"693 142 OFFCURVE",
"694 166 CURVE SMOOTH",
"698 253 LINE SMOOTH",
"699 269 OFFCURVE",
"709 279 OFFCURVE",
"725 283 CURVE SMOOTH",
"732 285 OFFCURVE",
"741 286 OFFCURVE",
"750 286 CURVE",
"750 302 LINE",
"573 302 LINE",
"573 286 LINE",
"582 286 OFFCURVE",
"590 285 OFFCURVE",
"597 283 CURVE SMOOTH",
"615 278 OFFCURVE",
"625 267 OFFCURVE",
"625 253 CURVE SMOOTH",
"625 168 LINE SMOOTH",
"625 95 OFFCURVE",
"527 32 OFFCURVE",
"414 32 CURVE SMOOTH",
"241 32 OFFCURVE",
"144 158 OFFCURVE",
"144 385 CURVE SMOOTH",
"144 575 OFFCURVE",
"250 705 OFFCURVE",
"404 705 CURVE SMOOTH",
"530 705 OFFCURVE",
"626 622 OFFCURVE",
"676 472 CURVE SMOOTH",
"677 469 OFFCURVE",
"680 468 OFFCURVE",
"687 468 CURVE SMOOTH",
"690 468 OFFCURVE",
"695 469 OFFCURVE",
"696 470 CURVE",
"696 673 LINE",
"696 679 OFFCURVE",
"691 684 OFFCURVE",
"685 684 CURVE SMOOTH",
"679 684 OFFCURVE",
"676 679 OFFCURVE",
"673 674 CURVE SMOOTH",
"670 667 OFFCURVE",
"662 657 OFFCURVE",
"649 657 CURVE SMOOTH",
"640 657 OFFCURVE",
"629 662 OFFCURVE",
"614 673 CURVE SMOOTH",
"583 696 OFFCURVE",
"539 742 OFFCURVE",
"418 742 CURVE SMOOTH",
"194 742 OFFCURVE",
"55 593 OFFCURVE",
"55 352 CURVE SMOOTH",
"55 134 OFFCURVE",
"197 -10 OFFCURVE",
"411 -10 CURVE SMOOTH"
);
}
);
userData = {
com.fontlab.hintData = {
hhints = (
{
position = -10;
width = 42;
},
{
position = 286;
width = 16;
},
{
position = 705;
width = 37;
}
);
vhints = (
{
position = 55;
width = 89;
},
{
position = 628;
width = 66;
},
{
position = 680;
width = 20;
}
);
};
com.schriftgestaltung.Glyphs.lastChange = "2019-09-01 04:21:11 +0000";
};
width = 795;
}
);
unicode = 0047;
},
{
glyphname = H;
layers = (
{
layerId = master01;
paths = (
{
closed = 1;
nodes = (
"241 0 LINE",
"241 16 LINE",
"233 16 OFFCURVE",
"225 16 OFFCURVE",
"217 18 CURVE SMOOTH",
"199 23 OFFCURVE",
"189 35 OFFCURVE",
"189 47 CURVE SMOOTH",
"189 119 OFFCURVE",
"189 339 OFFCURVE",
"189 370 CURVE SMOOTH",
"189 374 OFFCURVE",
"191 379 OFFCURVE",
"196 379 CURVE SMOOTH",
"198 379 OFFCURVE",
"200 379 OFFCURVE",
"202 379 CURVE SMOOTH",
"227 381 OFFCURVE",
"309 382 OFFCURVE",
"392 382 CURVE SMOOTH",
"475 382 OFFCURVE",
"559 381 OFFCURVE",
"586 379 CURVE SMOOTH",
"587 379 OFFCURVE",
"589 379 OFFCURVE",
"590 379 CURVE SMOOTH",
"595 379 OFFCURVE",
"598 374 OFFCURVE",
"598 370 CURVE SMOOTH",
"598 48 LINE SMOOTH",
"598 32 OFFCURVE",
"592 20 OFFCURVE",
"570 18 CURVE SMOOTH",
"564 17 OFFCURVE",
"553 16 OFFCURVE",
"545 16 CURVE",
"545 0 LINE",
"733 0 LINE",
"733 16 LINE",
"724 16 OFFCURVE",
"716 16 OFFCURVE",
"708 18 CURVE SMOOTH",
"690 22 OFFCURVE",
"680 34 OFFCURVE",
"680 47 CURVE SMOOTH",
"678 122 OFFCURVE",
"677 265 OFFCURVE",
"677 399 CURVE SMOOTH",
"677 516 OFFCURVE",
"678 627 OFFCURVE",
"680 683 CURVE SMOOTH",
"681 698 OFFCURVE",
"690 707 OFFCURVE",
"709 712 CURVE SMOOTH",
"715 713 OFFCURVE",
"725 714 OFFCURVE",
"733 714 CURVE",
"733 730 LINE",
"545 730 LINE",
"545 714 LINE",
"554 714 OFFCURVE",
"562 714 OFFCURVE",
"570 712 CURVE SMOOTH",
"587 707 OFFCURVE",
"598 695 OFFCURVE",
"598 682 CURVE SMOOTH",
"598 428 LINE SMOOTH",
"598 425 OFFCURVE",
"595 420 OFFCURVE",
"590 420 CURVE SMOOTH",
"589 420 OFFCURVE",
"588 420 OFFCURVE",
"586 420 CURVE SMOOTH",
"559 419 OFFCURVE",
"475 418 OFFCURVE",
"392 418 CURVE SMOOTH",
"309 418 OFFCURVE",
"227 419 OFFCURVE",
"201 420 CURVE SMOOTH",
"200 420 OFFCURVE",
"198 420 OFFCURVE",
"196 420 CURVE SMOOTH",
"191 420 OFFCURVE",
"189 425 OFFCURVE",
"189 428 CURVE SMOOTH",
"189 454 OFFCURVE",
"189 482 OFFCURVE",
"189 510 CURVE SMOOTH",
"189 566 OFFCURVE",
"189 626 OFFCURVE",
"189 682 CURVE SMOOTH",
"189 697 OFFCURVE",
"197 707 OFFCURVE",
"217 712 CURVE SMOOTH",
"225 714 OFFCURVE",
"234 715 OFFCURVE",
"241 715 CURVE",
"241 730 LINE",
"54 730 LINE",
"54 714 LINE",
"62 714 OFFCURVE",
"70 714 OFFCURVE",
"78 712 CURVE SMOOTH",
"96 707 OFFCURVE",
"106 694 OFFCURVE",
"106 682 CURVE SMOOTH",
"108 627 OFFCURVE",
"109 516 OFFCURVE",
"109 400 CURVE SMOOTH",
"109 265 OFFCURVE",
"108 122 OFFCURVE",
"106 49 CURVE SMOOTH",
"106 33 OFFCURVE",
"100 21 OFFCURVE",
"78 18 CURVE SMOOTH",
"72 17 OFFCURVE",
"61 16 OFFCURVE",
"54 16 CURVE",
"54 0 LINE"
);
}
);
userData = {
com.fontlab.hintData = {
hhints = (
{
position = 0;
width = 16;
},
{
position = 379;
width = 40;
},
{
position = 714;
width = 16;
}
);
vhints = (
{
position = 109;
width = 79;
},
{
position = 598;
width = 83;
}
);
};
com.schriftgestaltung.Glyphs.lastChange = "2019-09-01 04:22:32 +0000";
};
width = 789;
}
);
unicode = 0048;
},
{
glyphname = Hbar;
layers = (
{
components = (
{
name = H;
}
);
layerId = master01;
paths = (
{
closed = 1;
nodes = (
"730 507 LINE SMOOTH",
"744 507 OFFCURVE",
"750.132 543.602 OFFCURVE",
"750.132 549.284 CURVE SMOOTH",
"750 549 LINE",
"47 549 LINE SMOOTH",
"36 549 OFFCURVE",
"27 507 OFFCURVE",
"27 507 CURVE"
);
}
);
userData = {
com.fontlab.hintData = {
hhints = (
{
position = 0;
width = 16;
},
{
position = 379;
width = 40;
},
{
position = 507;
width = 42;
},
{
position = 714;
width = 16;
}
);
vhints = (
{
position = 109;
width = 79;
},
{
position = 598;
width = 83;
}
);
};
com.schriftgestaltung.Glyphs.lastChange = "2019-08-31 23:16:52 +0000";
};
width = 789;
}
);
unicode = 0126;
},
{
glyphname = I;
layers = (
{
layerId = master01;
paths = (
{
closed = 1;
nodes = (
"241 0 LINE",
"241 16 LINE",
"233 16 OFFCURVE",
"225 17 OFFCURVE",
"217 18 CURVE SMOOTH",
"198 20 OFFCURVE",
"189 36 OFFCURVE",
"189 49 CURVE SMOOTH",
"186 164 OFFCURVE",
"186 279 OFFCURVE",
"186 394 CURVE SMOOTH",
"186 490 OFFCURVE",
"186 587 OFFCURVE",
"189 683 CURVE SMOOTH",
"189 696 OFFCURVE",
"198 707 OFFCURVE",
"217 712 CURVE SMOOTH",
"225 714 OFFCURVE",
"233 714 OFFCURVE",
"241 714 CURVE",
"241 730 LINE",
"54 730 LINE",
"54 714 LINE",
"62 714 OFFCURVE",
"70 714 OFFCURVE",
"78 712 CURVE SMOOTH",
"97 707 OFFCURVE",
"106 695 OFFCURVE",
"106 682 CURVE SMOOTH",
"108 586 OFFCURVE",
"108 490 OFFCURVE",
"108 394 CURVE SMOOTH",
"108 279 OFFCURVE",
"108 164 OFFCURVE",
"106 49 CURVE SMOOTH",
"106 36 OFFCURVE",
"97 23 OFFCURVE",
"78 18 CURVE SMOOTH",
"70 16 OFFCURVE",
"62 16 OFFCURVE",
"54 16 CURVE",
"54 0 LINE"
);
}
);
userData = {
com.fontlab.hintData = {
hhints = (
{
position = 0;
width = 16;
},
{
position = 714;
width = 16;
}
);
vhints = (
{
position = 108;
width = 78;
}
);
};
com.schriftgestaltung.Glyphs.lastChange = "2019-09-01 04:23:20 +0000";
};
width = 291;
}
);
unicode = 0049;
},
{
glyphname = J;
layers = (
{
layerId = master01;
paths = (
{
closed = 1;
nodes = (
"110 -175 OFFCURVE",
"199 -100 OFFCURVE",
"199 36 CURVE SMOOTH",
"199 94 OFFCURVE",
"199 284 OFFCURVE",
"199 457 CURVE SMOOTH",
"199 544 OFFCURVE",
"199 626 OFFCURVE",
"201 683 CURVE SMOOTH",
"201 697 OFFCURVE",
"211 707 OFFCURVE",
"229 712 CURVE SMOOTH",
"237 714 OFFCURVE",
"246 714 OFFCURVE",
"255 714 CURVE",
"255 730 LINE",
"59 730 LINE",
"59 714 LINE",
"70 714 OFFCURVE",
"80 714 OFFCURVE",
"90 712 CURVE SMOOTH",
"107 709 OFFCURVE",
"118 697 OFFCURVE",
"118 682 CURVE SMOOTH",
"120 599 OFFCURVE",
"120 468 OFFCURVE",
"120 348 CURVE SMOOTH",
"120 228 OFFCURVE",
"120 120 OFFCURVE",
"118 80 CURVE SMOOTH",
"112 -69 OFFCURVE",
"84 -114 OFFCURVE",
"-58 -154 CURVE",
"-58 -180 LINE"
);
}
);
userData = {
com.fontlab.hintData = {
hhints = (
{
position = -180;
width = 26;
},
{
position = 714;
width = 16;
}
);
vhints = (
{
position = 119;
width = 80;
}
);
};
com.schriftgestaltung.Glyphs.lastChange = "2019-09-01 04:31:53 +0000";
};
width = 305;
}
);
unicode = 004A;
},
{
glyphname = K;
layers = (
{
layerId = master01;
paths = (
{
closed = 1;
nodes = (
"244 0 LINE",
"244 16 LINE",
"236 16 OFFCURVE",
"228 17 OFFCURVE",
"220 18 CURVE SMOOTH",
"201 20 OFFCURVE",
"192 35 OFFCURVE",
"192 49 CURVE SMOOTH",
"189 338 LINE",
"203 342 OFFCURVE",
"218 349 OFFCURVE",
"229 363 CURVE",
"434 70 LINE",
"433 70 LINE",
"443 55 OFFCURVE",
"447 44 OFFCURVE",
"447 36 CURVE SMOOTH",
"447 20 OFFCURVE",
"425 16 OFFCURVE",
"405 16 CURVE",
"405 0 LINE",
"608 0 LINE",
"608 16 LINE",
"600 16 OFFCURVE",
"588 17 OFFCURVE",
"579 18 CURVE SMOOTH",
"569 19 OFFCURVE",
"561 28 OFFCURVE",
"552 39 CURVE SMOOTH",
"529 67 OFFCURVE",
"490 127 OFFCURVE",
"436 210 CURVE SMOOTH",
"395 273 OFFCURVE",
"346 348 OFFCURVE",
"292 427 CURVE",
"477 678 LINE SMOOTH",
"489 694 OFFCURVE",
"500 708 OFFCURVE",
"515 711 CURVE SMOOTH",
"524 713 OFFCURVE",
"532 714 OFFCURVE",
"540 714 CURVE",
"540 730 LINE",
"390 730 LINE",
"390 714 LINE",
"409 714 OFFCURVE",
"434 711 OFFCURVE",
"434 696 CURVE SMOOTH",
"434 688 OFFCURVE",
"429 675 OFFCURVE",
"414 656 CURVE SMOOTH",
"252 443 LINE SMOOTH",
"225 407 OFFCURVE",
"209 395 OFFCURVE",
"188 388 CURVE",
"192 683 LINE SMOOTH",
"192 696 OFFCURVE",
"201 707 OFFCURVE",
"220 712 CURVE SMOOTH",
"228 714 OFFCURVE",
"236 714 OFFCURVE",
"244 714 CURVE",
"244 730 LINE",
"180 730 OFFCURVE",
"66 730 OFFCURVE",
"54 730 CURVE",
"54 714 LINE",
"62 714 OFFCURVE",
"70 714 OFFCURVE",
"78 712 CURVE SMOOTH",
"97 707 OFFCURVE",
"105 695 OFFCURVE",
"106 682 CURVE SMOOTH",
"108 634 OFFCURVE",
"109 491 OFFCURVE",
"109 350 CURVE SMOOTH",
"109 226 OFFCURVE",
"108 105 OFFCURVE",
"106 49 CURVE SMOOTH",
"106 35 OFFCURVE",
"97 23 OFFCURVE",
"78 18 CURVE SMOOTH",
"70 16 OFFCURVE",
"62 16 OFFCURVE",
"54 16 CURVE",
"54 0 LINE"
);
}
);
userData = {
com.fontlab.hintData = {
hhints = (
{
position = 0;
width = 16;
},
{
position = 714;
width = 16;
}
);
vhints = (
{
position = 106;
width = 86;
}
);
};
com.schriftgestaltung.Glyphs.lastChange = "2019-09-01 04:37:39 +0000";
};
width = 660;
}
);
unicode = 004B;
},
{
glyphname = L;
layers = (
{
layerId = master01;
paths = (
{
closed = 1;
nodes = (
"522 0 LINE",
"539 140 LINE",
"523 139 LINE",
"510 79 OFFCURVE",
"483 48 OFFCURVE",
"422 32 CURVE SMOOTH",
"379 21 OFFCURVE",
"331 21 OFFCURVE",
"270 21 CURVE",
"250 21 OFFCURVE",
"240 22 OFFCURVE",
"220 24 CURVE SMOOTH",
"200 26 OFFCURVE",
"193 39 OFFCURVE",
"192 53 CURVE SMOOTH",
"189 122 OFFCURVE",
"189 248 OFFCURVE",
"189 373 CURVE SMOOTH",
"189 498 OFFCURVE",
"190 621 OFFCURVE",
"192 682 CURVE SMOOTH",
"192 695 OFFCURVE",
"200 706 OFFCURVE",
"217 711 CURVE SMOOTH",
"228 714 OFFCURVE",
"240 714 OFFCURVE",
"252 714 CURVE",
"252 730 LINE",
"57 730 LINE",
"57 714 LINE",
"65 714 OFFCURVE",
"73 714 OFFCURVE",
"81 712 CURVE SMOOTH",
"100 707 OFFCURVE",
"109 695 OFFCURVE",
"109 682 CURVE SMOOTH",
"111 622 OFFCURVE",
"112 494 OFFCURVE",
"112 366 CURVE SMOOTH",
"112 238 OFFCURVE",
"111 110 OFFCURVE",
"109 49 CURVE SMOOTH",
"109 35 OFFCURVE",
"100 22 OFFCURVE",
"81 18 CURVE SMOOTH",
"72 16 OFFCURVE",
"61 16 OFFCURVE",
"51 16 CURVE",
"51 0 LINE"
);
}
);
userData = {
com.fontlab.hintData = {
hhints = (
{
position = 0;
width = 21;
},
{
position = 714;
width = 16;
}
);
vhints = (
{
position = 112;
width = 77;
},
{
position = 523;
width = 16;
}
);
};
com.schriftgestaltung.Glyphs.lastChange = "2019-09-01 04:39:03 +0000";
};
width = 589;
}
);
unicode = 004C;
},
{
glyphname = Lslash;
layers = (
{
components = (
{
name = L;
}
);
layerId = master01;
paths = (
{
closed = 1;
nodes = (
"342 466 LINE",
"342 515 LINE",
"50 286 LINE",
"50 237 LINE"
);
}
);
userData = {
com.fontlab.hintData = {
hhints = (
{
position = 0;
width = 21;
},
{
position = 714;
width = 16;
}
);
vhints = (
{
position = 112;
width = 77;
},
{
position = 523;
width = 16;
}
);
};
com.schriftgestaltung.Glyphs.lastChange = "2019-08-31 23:16:52 +0000";
};
width = 589;
}
);
unicode = 0141;
},
{
glyphname = M;
layers = (
{
layerId = master01;
paths = (
{
closed = 1;
nodes = (
"192 0 LINE",
"192 16 LINE",
"184 16 OFFCURVE",
"176 17 OFFCURVE",
"168 18 CURVE SMOOTH",
"150 20 OFFCURVE",
"140 35 OFFCURVE",
"140 48 CURVE SMOOTH",
"159 611 LINE",
"406 127 LINE",
"409 121 OFFCURVE",
"414 120 OFFCURVE",
"417 120 CURVE SMOOTH",
"419 120 OFFCURVE",
"424 121 OFFCURVE",
"427 127 CURVE SMOOTH",
"429 131 OFFCURVE",
"430 133 OFFCURVE",
"431 135 CURVE SMOOTH",
"662 617 LINE",
"666 560 OFFCURVE",
"691 86 OFFCURVE",
"691 49 CURVE SMOOTH",
"691 33 OFFCURVE",
"683 23 OFFCURVE",
"663 18 CURVE SMOOTH",
"655 16 OFFCURVE",
"647 16 OFFCURVE",
"639 16 CURVE",
"639 0 LINE",
"825 0 LINE",
"825 16 LINE",
"816 16 OFFCURVE",
"807 17 OFFCURVE",
"799 18 CURVE SMOOTH",
"780 20 OFFCURVE",
"772 34 OFFCURVE",
"771 47 CURVE SMOOTH",
"738 681 OFFCURVE",
"738 681 OFFCURVE",
"738 685 CURVE SMOOTH",
"738 696 OFFCURVE",
"748 710 OFFCURVE",
"766 712 CURVE SMOOTH",
"774 713 OFFCURVE",
"783 714 OFFCURVE",
"792 714 CURVE",
"792 730 LINE",
"668 730 LINE",
"443 259 LINE",
"206 730 LINE",
"65 730 LINE",
"65 714 LINE",
"74 714 OFFCURVE",
"82 714 OFFCURVE",
"90 712 CURVE SMOOTH",
"108 708 OFFCURVE",
"118 693 OFFCURVE",
"118 680 CURVE SMOOTH",
"118 483 OFFCURVE",
"110 259 OFFCURVE",
"98 52 CURVE SMOOTH",
"97 38 OFFCURVE",
"89 23 OFFCURVE",
"70 18 CURVE SMOOTH",
"62 16 OFFCURVE",
"54 16 OFFCURVE",
"45 16 CURVE",
"45 0 LINE"
);
}
);
userData = {
com.fontlab.hintData = {
hhints = (
{
position = 0;
width = 16;
},
{
position = 714;
width = 16;
}
);
vhints = (
{
position = 98;
width = 43;
},
{
position = 118;
width = 42;
},
{
position = 658;
width = 79;
}
);
};
com.schriftgestaltung.Glyphs.lastChange = "2019-09-01 04:45:15 +0000";
};
width = 840;
}
);
unicode = 004D;
},
{
glyphname = N;
layers = (
{
layerId = master01;
paths = (
{
closed = 1;
nodes = (
"716 -9 OFFCURVE",
"721 -6 OFFCURVE",
"721 0 CURVE SMOOTH",
"717 95 OFFCURVE",
"717 276 OFFCURVE",
"717 424 CURVE SMOOTH",
"717 532 OFFCURVE",
"718 628 OFFCURVE",
"720 684 CURVE SMOOTH",
"720 698 OFFCURVE",
"730 709 OFFCURVE",
"749 712 CURVE SMOOTH",
"756 713 OFFCURVE",
"765 714 OFFCURVE",
"773 714 CURVE",
"773 730 LINE",
"625 730 LINE",
"625 714 LINE",
"634 714 OFFCURVE",
"642 714 OFFCURVE",
"650 712 CURVE SMOOTH",
"672 706 OFFCURVE",
"678 696 OFFCURVE",
"678 682 CURVE SMOOTH",
"678 159 LINE",
"168 730 LINE",
"54 730 LINE",
"54 714 LINE",
"62 714 OFFCURVE",
"70 714 OFFCURVE",
"78 712 CURVE SMOOTH",
"97 707 OFFCURVE",
"106 692 OFFCURVE",
"106 679 CURVE SMOOTH",
"106 52 LINE SMOOTH",
"106 38 OFFCURVE",
"97 23 OFFCURVE",
"78 18 CURVE SMOOTH",
"70 16 OFFCURVE",
"62 16 OFFCURVE",
"54 16 CURVE",
"54 0 LINE",
"201 0 LINE",
"201 16 LINE",
"193 16 OFFCURVE",
"185 17 OFFCURVE",
"177 18 CURVE SMOOTH",
"158 20 OFFCURVE",
"149 35 OFFCURVE",
"149 48 CURVE SMOOTH",
"149 84 OFFCURVE",
"149 119 OFFCURVE",
"149 155 CURVE SMOOTH",
"149 255 OFFCURVE",
"149 355 OFFCURVE",
"149 455 CURVE SMOOTH",
"149 510 OFFCURVE",
"149 564 OFFCURVE",
"149 619 CURVE",
"337 410 OFFCURVE",
"514 210 OFFCURVE",
"698 1 CURVE",
"700 -1 OFFCURVE",
"708 -9 OFFCURVE",
"712 -9 CURVE SMOOTH"
);
}
);
userData = {
com.fontlab.hintData = {
hhints = (
{
position = -9;
width = 21;
},
{
position = -9;
width = 21;
},
{
position = 0;
width = 16;
},
{
position = 714;
width = 16;
}
);
vhints = (
{
position = 106;
width = 43;
},
{
position = 678;
width = 43;
}
);
};
com.schriftgestaltung.Glyphs.lastChange = "2019-09-01 04:58:09 +0000";
};
width = 823;
}
);
unicode = 004E;
},
{
glyphname = O;
layers = (
{
layerId = master01;
paths = (
{
closed = 1;
nodes = (
"555 -10 OFFCURVE",
"746 123 OFFCURVE",
"746 361 CURVE SMOOTH",
"746 585 OFFCURVE",
"608 734 OFFCURVE",
"400 734 CURVE SMOOTH",
"196 734 OFFCURVE",
"55 584 OFFCURVE",
"55 352 CURVE SMOOTH",
"55 53 OFFCURVE",
"286 -10 OFFCURVE",
"399 -10 CURVE SMOOTH"
);
},
{
closed = 1;
nodes = (
"334 27 OFFCURVE",
"144 47 OFFCURVE",
"144 385 CURVE SMOOTH",
"144 464 OFFCURVE",
"172 699 OFFCURVE",
"390 699 CURVE SMOOTH",
"589 699 OFFCURVE",
"658 545 OFFCURVE",
"658 377 CURVE SMOOTH",
"658 97 OFFCURVE",
"536 27 OFFCURVE",
"407 27 CURVE SMOOTH"
);
}
);
userData = {
com.fontlab.hintData = {
hhints = (
{
position = -10;
width = 37;
},
{
position = 699;
width = 35;
}
);
vhints = (
{
position = 55;
width = 89;
},
{
position = 658;
width = 87;
}
);
};
com.schriftgestaltung.Glyphs.lastChange = "2019-08-31 23:33:08 +0000";
};
width = 800;
}
);
unicode = 004F;
},
{
glyphname = Oslash;
layers = (
{
layerId = master01;
paths = (
{
closed = 1;
nodes = (
"554.773 -10 OFFCURVE",
"745.572 123.43 OFFCURVE",
"745.572 360.762 CURVE SMOOTH",
"745.572 469.498 OFFCURVE",
"714.313 555.355 OFFCURVE",
"663.331 617.153 CURVE",
"679.598 633.538 OFFCURVE",
"694.908 648.908 OFFCURVE",
"709 663 CURVE",
"709 680 OFFCURVE",
"677 690.259 OFFCURVE",
"669.727 690.259 CURVE",
"657.683 676.667 OFFCURVE",
"645.427 662.932 OFFCURVE",
"632.977 649.071 CURVE",
"571.566 705.093 OFFCURVE",
"490.382 733.809 OFFCURVE",
"403.186 733.809 CURVE SMOOTH",
"397.389 733.809 LINE SMOOTH",
"212.711 733.809 OFFCURVE",
"55 600.656 OFFCURVE",
"55 351.762 CURVE SMOOTH",
"55 246.427 OFFCURVE",
"83.695 170.399 OFFCURVE",
"125.823 116.106 CURVE",
"102.492 92.584 OFFCURVE",
"79.195 69.195 OFFCURVE",
"56 46 CURVE",
"56 39.29 OFFCURVE",
"83.547 35.274 OFFCURVE",
"100 35.274 CURVE SMOOTH",
"107.006 35.274 OFFCURVE",
"112 36.208 OFFCURVE",
"112 38 CURVE SMOOTH",
"112 41.265 OFFCURVE",
"126.692 58.99 OFFCURVE",
"151.791 86.863 CURVE",
"228.589 11.114 OFFCURVE",
"333.608 -10 OFFCURVE",
"399.275 -10 CURVE SMOOTH"
);
},
{
closed = 1;
nodes = (
"358.818 26.667 OFFCURVE",
"260.335 35.546 OFFCURVE",
"198.594 137.763 CURVE",
"302.972 249.638 OFFCURVE",
"481.283 432.952 OFFCURVE",
"617.267 570.629 CURVE",
"646.077 515.46 OFFCURVE",
"658.246 447.483 OFFCURVE",
"658.246 377 CURVE SMOOTH",
"658.246 96.713 OFFCURVE",
"535.775 26.667 OFFCURVE",
"406.984 26.667 CURVE SMOOTH"
);
},
{
closed = 1;
nodes = (
"158.672 222.979 OFFCURVE",
"144.326 291.865 OFFCURVE",
"144.326 384.762 CURVE SMOOTH",
"144.326 464 OFFCURVE",
"171.775 698.77 OFFCURVE",
"390.277 698.77 CURVE SMOOTH",
"486.45 698.77 OFFCURVE",
"552.28 662.794 OFFCURVE",
"594.62 606.634 CURVE",
"468.448 467.885 OFFCURVE",
"325.13 318.258 OFFCURVE",
"180.994 171.923 CURVE"
);
}
);
userData = {
com.fontlab.hintData = {
hhints = (
{
position = -10;
width = 37;
},
{
position = 699;
width = 35;
}
);
vhints = (
{
position = 55;
width = 89;
},
{
position = 56;
width = 56;
},
{
position = 658;
width = 87;
}
);
};
com.schriftgestaltung.Glyphs.lastChange = "2019-08-31 23:16:52 +0000";
};
width = 800;
}
);
unicode = 00D8;
},
{
glyphname = OE;
layers = (
{
layerId = master01;
paths = (
{
closed = 1;
nodes = (
"410.219 -4 OFFCURVE",
"426.534 -2.66 OFFCURVE",
"442.976 0 CURVE SMOOTH",
"611.678 0 LINE",
"889.628 0 LINE",
"906.628 140 LINE",
"890.628 139.014 LINE",
"878.095 78.53 OFFCURVE",
"850.745 47.06 OFFCURVE",
"789.628 32.197 CURVE SMOOTH",
"746.645 21.745 OFFCURVE",
"696.65 20.992 OFFCURVE",
"634.628 20.992 CURVE SMOOTH",
"616.54 20.992 OFFCURVE",
"606.232 22.131 OFFCURVE",
"587.308 24.395 CURVE SMOOTH",
"567.954 26.709 OFFCURVE",
"559.438 41.235 OFFCURVE",
"559.438 54.52 CURVE SMOOTH",
"556.098 373.353 LINE",
"585.002 375.911 OFFCURVE",
"626.712 379 OFFCURVE",
"659.628 379 CURVE SMOOTH",
"693.378 379 OFFCURVE",
"722.896 375.43 OFFCURVE",
"752.563 372.53 CURVE SMOOTH",
"762.037 370.352 OFFCURVE",
"779.921 360.951 OFFCURVE",
"782.427 343.396 CURVE SMOOTH",
"784.862 331.186 OFFCURVE",
"784.041 320.124 OFFCURVE",
"784.874 319.025 CURVE SMOOTH",
"800.749 319.025 LINE",
"800.749 466.521 LINE",
"784.874 466.521 LINE SMOOTH",
"784.041 465.422 OFFCURVE",
"784.862 451.186 OFFCURVE",
"782.427 442.152 CURVE SMOOTH",
"778.807 427.029 OFFCURVE",
"767.813 416.343 OFFCURVE",
"755.616 413.659 CURVE SMOOTH",
"725.33 410.864 OFFCURVE",
"696.755 408 OFFCURVE",
"659.628 408 CURVE SMOOTH",
"627.694 408 OFFCURVE",
"585.327 410.792 OFFCURVE",
"556 413.077 CURVE",
"559.441 681.031 LINE SMOOTH",
"559.59 692.576 OFFCURVE",
"570.142 703.611 OFFCURVE",
"586.816 705.605 CURVE SMOOTH",
"606.763 707.991 OFFCURVE",
"617.137 709 OFFCURVE",
"637.137 709 CURVE SMOOTH",
"684.818 709 OFFCURVE",
"722.086 708.155 OFFCURVE",
"755.137 697.803 CURVE SMOOTH",
"815.159 679.001 OFFCURVE",
"843.604 651.47 OFFCURVE",
"856.137 590.986 CURVE",
"872.137 590 LINE",
"855.137 730 LINE",
"619.675 730 LINE",
"619.675 730.333 LINE",
"435.912 730.333 LINE SMOOTH",
"424.468 730.664 OFFCURVE",
"410.336 730.809 OFFCURVE",
"392.389 730.809 CURVE SMOOTH",
"207.711 730.809 OFFCURVE",
"50 600.656 OFFCURVE",
"50 351.762 CURVE SMOOTH",
"50 58 OFFCURVE",
"280.844 -4 OFFCURVE",
"394.275 -4 CURVE SMOOTH"
);
},
{
closed = 1;
nodes = (
"328.775 26.667 OFFCURVE",
"139.326 53.179 OFFCURVE",
"139.326 384.762 CURVE SMOOTH",
"139.326 464 OFFCURVE",
"166.775 703.77 OFFCURVE",
"385.277 703.77 CURVE SMOOTH",
"421.037 703.77 OFFCURVE",
"450.026 699.311 OFFCURVE",
"476.293 688.987 CURVE SMOOTH",
"476.667 686.806 OFFCURVE",
"476.862 684.444 OFFCURVE",
"476.886 681.888 CURVE SMOOTH",
"477.123 656.211 OFFCURVE",
"479.92 538.392 OFFCURVE",
"479.92 411 CURVE SMOOTH",
"479.92 246.676 OFFCURVE",
"478.533 66.579 OFFCURVE",
"476.869 48.52 CURVE SMOOTH",
"476.821 43.891 OFFCURVE",
"475.742 39.301 OFFCURVE",
"473.548 35.12 CURVE SMOOTH",
"450.442 29.169 OFFCURVE",
"426.326 26.667 OFFCURVE",
"401.984 26.667 CURVE SMOOTH"
);
}
);
userData = {
com.fontlab.hintData = {
hhints = (
{
position = 0;
width = 21;
},
{
position = 379;
width = 29;
},
{
position = 704;
width = 27;
}
);
vhints = (
{
position = 50;
width = 89;
},
{
position = 477;
width = 83;
},
{
position = 785;
width = 16;
},
{
position = 856;
width = 16;
},
{
position = 891;
width = 16;
}
);
};
com.schriftgestaltung.Glyphs.lastChange = "2019-08-31 23:16:52 +0000";
};
width = 947;
}
);
unicode = 0152;
},
{
glyphname = P;
layers = (
{
layerId = master01;
paths = (
{
closed = 1;
nodes = (
"204 0 LINE",
"204 16 LINE",
"196 16 OFFCURVE",
"188 17 OFFCURVE",
"180 18 CURVE SMOOTH",
"161 20 OFFCURVE",
"152 35 OFFCURVE",
"152 47 CURVE SMOOTH",
"152 164 OFFCURVE",
"149 281 OFFCURVE",
"149 397 CURVE SMOOTH",
"149 499 OFFCURVE",
"150 601 OFFCURVE",
"152 703 CURVE",
"153 704 LINE",
"200 704 LINE SMOOTH",
"345 704 OFFCURVE",
"426 663 OFFCURVE",
"426 519 CURVE SMOOTH",
"426 364 OFFCURVE",
"319 311 OFFCURVE",
"190 311 CURVE SMOOTH",
"180 311 OFFCURVE",
"175 304 OFFCURVE",
"175 297 CURVE SMOOTH",
"175 290 OFFCURVE",
"180 285 OFFCURVE",
"191 284 CURVE SMOOTH",
"202 283 OFFCURVE",
"214 282 OFFCURVE",
"226 282 CURVE SMOOTH",
"358 282 OFFCURVE",
"504 354 OFFCURVE",
"504 507 CURVE SMOOTH",
"504 672 OFFCURVE",
"385 732 OFFCURVE",
"235 732 CURVE SMOOTH",
"171 732 OFFCURVE",
"107 730 OFFCURVE",
"43 730 CURVE SMOOTH",
"34 730 OFFCURVE",
"26 730 OFFCURVE",
"17 730 CURVE",
"17 714 LINE",
"25 714 OFFCURVE",
"34 714 OFFCURVE",
"42 712 CURVE SMOOTH",
"59 708 OFFCURVE",
"69 687 OFFCURVE",
"69 668 CURVE",
"70 668 LINE",
"72 579 OFFCURVE",
"72 490 OFFCURVE",
"72 401 CURVE SMOOTH",
"72 284 OFFCURVE",
"71 166 OFFCURVE",
"69 49 CURVE SMOOTH",
"69 35 OFFCURVE",
"61 23 OFFCURVE",
"42 18 CURVE SMOOTH",
"34 16 OFFCURVE",
"25 16 OFFCURVE",
"17 16 CURVE",
"17 0 LINE"
);
}
);
userData = {
com.fontlab.hintData = {
hhints = (
{
position = 0;
width = 16;
},
{
position = 282;
width = 29;
},
{
position = 704;
width = 28;
},
{
position = 714;
width = 16;
}
);
vhints = (
{
position = 72;
width = 77;
},
{
position = 426;
width = 79;
}
);
};
com.schriftgestaltung.Glyphs.lastChange = "2019-08-31 23:33:51 +0000";
};
width = 540;
}
);
unicode = 0050;
},
{
glyphname = Thorn;
layers = (
{
layerId = master01;
paths = (
{
closed = 1;
nodes = (
"241 0 LINE",
"241 15.947 LINE",
"232.708 16.059 OFFCURVE",
"224.587 16.785 OFFCURVE",
"216.63 18.395 CURVE SMOOTH",
"198.047 22.153 OFFCURVE",
"189.246 36.101 OFFCURVE",
"188.779 49 CURVE SMOOTH",
"187.085 164.068 OFFCURVE",
"185.915 279.087 OFFCURVE",
"185.915 394 CURVE SMOOTH",
"185.915 453.661 OFFCURVE",
"186.232 480.293 OFFCURVE",
"186.955 539.888 CURVE",
"186.955 539.888 OFFCURVE",
"190 572.888 OFFCURVE",
"231.744 572.888 CURVE SMOOTH",
"356 572.888 OFFCURVE",
"457.266 521.605 OFFCURVE",
"457.266 398.068 CURVE SMOOTH",
"457.266 262.872 OFFCURVE",
"380.336 210 OFFCURVE",
"251.744 210 CURVE SMOOTH",
"242.093 210 OFFCURVE",
"236.774 192.942 OFFCURVE",
"236.774 186 CURVE SMOOTH",
"236.774 179.258 OFFCURVE",
"241.378 183.811 OFFCURVE",
"252.5 182.675 CURVE SMOOTH",
"264.007 181.5 OFFCURVE",
"275.75 180.9 OFFCURVE",
"287.612 180.9 CURVE SMOOTH",
"419.455 180.9 OFFCURVE",
"536 253.247 OFFCURVE",
"536 385.968 CURVE SMOOTH",
"536 531.062 OFFCURVE",
"416.588 601 OFFCURVE",
"266.744 601 CURVE SMOOTH",
"245.368 601 OFFCURVE",
"210.841 599.622 OFFCURVE",
"187.317 594.329 CURVE",
"187.711 621.865 OFFCURVE",
"188.194 655.393 OFFCURVE",
"188.775 682.912 CURVE SMOOTH",
"189.227 695.516 OFFCURVE",
"198.028 708.244 OFFCURVE",
"216.626 712.012 CURVE SMOOTH",
"224.583 713.624 OFFCURVE",
"232.704 714.349 OFFCURVE",
"240.997 714.458 CURVE",
"240.997 730.333 LINE",
"53.953 730.333 LINE",
"53.953 714.458 LINE",
"62.245 714.349 OFFCURVE",
"70.367 713.622 OFFCURVE",
"78.324 712.012 CURVE SMOOTH",
"97.428 708.146 OFFCURVE",
"106.194 694.819 OFFCURVE",
"106.194 681.888 CURVE SMOOTH",
"107.453 585.988 OFFCURVE",
"107.987 490.031 OFFCURVE",
"107.987 394 CURVE SMOOTH",
"107.987 279.113 OFFCURVE",
"107.201 164.122 OFFCURVE",
"105.95 49 CURVE SMOOTH",
"105.95 35.716 OFFCURVE",
"97.424 22.266 OFFCURVE",
"78.321 18.395 CURVE SMOOTH",
"70.365 16.782 OFFCURVE",
"62.242 16.059 OFFCURVE",
"53.95 15.947 CURVE",
"53.95 0 LINE"
);
}
);
userData = {
com.fontlab.hintData = {
hhints = (
{
position = 0;
width = 16;
},
{
position = 181;
width = 29;
},
{
position = 573;
width = 28;
},
{
position = 714;
width = 16;
}
);
vhints = (
{
position = 108;
width = 78;
},
{
position = 457;
width = 79;
}
);
};
com.schriftgestaltung.Glyphs.lastChange = "2019-08-31 23:16:52 +0000";
};
width = 291;
}
);
unicode = 00DE;
},
{
glyphname = Q;
layers = (
{
layerId = master01;
paths = (
{
closed = 1;
nodes = (
"580 -147 OFFCURVE",
"606 -146 OFFCURVE",
"632 -143 CURVE",
"626 -115 LINE",
"618 -116 OFFCURVE",
"610 -116 OFFCURVE",
"602 -116 CURVE SMOOTH",
"490 -116 OFFCURVE",
"443 -73 OFFCURVE",
"437 -15 CURVE",
"587 2 OFFCURVE",
"756 134 OFFCURVE",
"756 357 CURVE SMOOTH",
"756 583 OFFCURVE",
"616 733 OFFCURVE",
"405 733 CURVE SMOOTH",
"198 733 OFFCURVE",
"55 582 OFFCURVE",
"55 348 CURVE SMOOTH",
"55 98 OFFCURVE",
"216 12 OFFCURVE",
"336 -11 CURVE",
"344 -105 OFFCURVE",
"420 -147 OFFCURVE",
"557 -147 CURVE SMOOTH"
);
},
{
closed = 1;
nodes = (
"337 20 OFFCURVE",
"144 40 OFFCURVE",
"144 381 CURVE SMOOTH",
"144 461 OFFCURVE",
"172 698 OFFCURVE",
"395 698 CURVE SMOOTH",
"598 698 OFFCURVE",
"668 543 OFFCURVE",
"668 373 CURVE SMOOTH",
"668 90 OFFCURVE",
"543 20 OFFCURVE",
"412 20 CURVE SMOOTH"
);
}
);
userData = {
com.fontlab.hintData = {
hhints = (
{
position = -147;
width = 31;
},
{
position = -11;
width = 30;
},
{
position = 698;
width = 35;
}
);
vhints = (
{
position = 55;
width = 89;
},
{
position = 668;
width = 87;
}
);
};
com.schriftgestaltung.Glyphs.lastChange = "2019-08-31 23:34:32 +0000";
};
width = 810;
}
);
unicode = 0051;
},
{
glyphname = R;
layers = (
{
layerId = master01;
paths = (
{
closed = 1;
nodes = (
"241 0 LINE",
"241 16 LINE",
"233 16 OFFCURVE",
"225 17 OFFCURVE",
"217 18 CURVE SMOOTH",
"198 20 OFFCURVE",
"189 35 OFFCURVE",
"189 47 CURVE SMOOTH",
"186 331 LINE",
"214 328 OFFCURVE",
"238 328 OFFCURVE",
"264 328 CURVE",
"433 71 LINE",
"447 49 OFFCURVE",
"478 1 OFFCURVE",
"519 1 CURVE SMOOTH",
"623 1 LINE",
"623 17 LINE",
"614 17 OFFCURVE",
"602 17 OFFCURVE",
"594 19 CURVE SMOOTH",
"583 22 OFFCURVE",
"576 28 OFFCURVE",
"567 40 CURVE SMOOTH",
"525 96 OFFCURVE",
"445 221 OFFCURVE",
"361 346 CURVE",
"448 366 OFFCURVE",
"523 432 OFFCURVE",
"523 538 CURVE SMOOTH",
"523 677 OFFCURVE",
"419 734 OFFCURVE",
"272 734 CURVE SMOOTH",
"208 734 OFFCURVE",
"144 730 OFFCURVE",
"80 730 CURVE SMOOTH",
"71 730 OFFCURVE",
"63 730 OFFCURVE",
"54 730 CURVE",
"54 714 LINE",
"62 714 OFFCURVE",
"71 714 OFFCURVE",
"78 712 CURVE SMOOTH",
"96 707 OFFCURVE",
"106 687 OFFCURVE",
"106 668 CURVE",
"108 580 OFFCURVE",
"109 493 OFFCURVE",
"109 405 CURVE SMOOTH",
"109 286 OFFCURVE",
"106 167 OFFCURVE",
"106 49 CURVE SMOOTH",
"106 35 OFFCURVE",
"97 23 OFFCURVE",
"78 18 CURVE SMOOTH",
"70 16 OFFCURVE",
"62 16 OFFCURVE",
"54 16 CURVE",
"54 0 LINE"
);
},
{
closed = 1;
nodes = (
"186 372 OFFCURVE",
"186 384 OFFCURVE",
"186 397 CURVE SMOOTH",
"186 499 OFFCURVE",
"188 601 OFFCURVE",
"189 703 CURVE",
"190 704 LINE",
"237 704 LINE SMOOTH",
"376 704 OFFCURVE",
"445 666 OFFCURVE",
"445 535 CURVE SMOOTH",
"445 419 OFFCURVE",
"343 359 OFFCURVE",
"222 359 CURVE SMOOTH",
"210 359 OFFCURVE",
"197 359 OFFCURVE",
"186 359 CURVE"
);
}
);
userData = {
com.fontlab.hintData = {
hhints = (
{
position = 0;
width = 16;
},
{
position = 328;
width = 31;
},
{
position = 704;
width = 30;
},
{
position = 714;
width = 16;
}
);
vhints = (
{
position = 109;
width = 76;
},
{
position = 445;
width = 79;
}
);
};
com.schriftgestaltung.Glyphs.lastChange = "2019-09-01 00:49:25 +0000";
};
width = 675;
}
);
unicode = 0052;
},
{
glyphname = S;
layers = (
{
layerId = master01;
paths = (
{
closed = 1;
nodes = (
"326 -10 OFFCURVE",
"381 8 OFFCURVE",
"417 37 CURVE SMOOTH",
"467 78 OFFCURVE",
"503 129 OFFCURVE",
"503 212 CURVE SMOOTH",
"503 299 OFFCURVE",
"423 361 OFFCURVE",
"321 423 CURVE SMOOTH",
"240 472 OFFCURVE",
"170 515 OFFCURVE",
"170 589 CURVE SMOOTH",
"170 642 OFFCURVE",
"197 710 OFFCURVE",
"297 710 CURVE SMOOTH",
"409 710 OFFCURVE",
"438 612 OFFCURVE",
"453 612 CURVE SMOOTH",
"462 612 OFFCURVE",
"487 679 OFFCURVE",
"487 693 CURVE SMOOTH",
"487 711 OFFCURVE",
"400 742 OFFCURVE",
"313 742 CURVE SMOOTH",
"166 742 OFFCURVE",
"96 651 OFFCURVE",
"96 562 CURVE SMOOTH",
"96 483 OFFCURVE",
"198 404 OFFCURVE",
"286 351 CURVE SMOOTH",
"370 301 OFFCURVE",
"434 250 OFFCURVE",
"434 170 CURVE SMOOTH",
"434 91 OFFCURVE",
"373 36 OFFCURVE",
"281 36 CURVE SMOOTH",
"162 36 OFFCURVE",
"111 136 OFFCURVE",
"111 188 CURVE SMOOTH",
"111 192 OFFCURVE",
"108 192 OFFCURVE",
"105 192 CURVE SMOOTH",
"88 192 OFFCURVE",
"50 137 OFFCURVE",
"50 116 CURVE SMOOTH",
"50 76 OFFCURVE",
"135 -10 OFFCURVE",
"279 -10 CURVE SMOOTH"
);
}
);
userData = {
com.fontlab.hintData = {
hhints = (
{
position = -10;
width = 46;
},
{
position = 710;
width = 32;
}
);
vhints = (
{
position = 50;
width = 61;
},
{
position = 96;
width = 74;
},
{
position = 434;
width = 69;
}
);
};
com.schriftgestaltung.Glyphs.lastChange = "2019-08-31 23:36:03 +0000";
};
width = 555;
}
);
unicode = 0053;
},
{
glyphname = T;
layers = (
{
layerId = master01;
paths = (
{
closed = 1;
nodes = (
"448 0 LINE",
"448 16 LINE",
"440 16 OFFCURVE",
"432 17 OFFCURVE",
"424 18 CURVE SMOOTH",
"405 20 OFFCURVE",
"396 37 OFFCURVE",
"396 49 CURVE SMOOTH",
"396 143 OFFCURVE",
"393 235 OFFCURVE",
"393 328 CURVE SMOOTH",
"393 445 OFFCURVE",
"396 561 OFFCURVE",
"396 678 CURVE SMOOTH",
"396 691 OFFCURVE",
"404 708 OFFCURVE",
"424 708 CURVE SMOOTH",
"442 708 OFFCURVE",
"460 709 OFFCURVE",
"477 709 CURVE SMOOTH",
"536 709 OFFCURVE",
"564 709 OFFCURVE",
"588 703 CURVE SMOOTH",
"605 699 OFFCURVE",
"625 684 OFFCURVE",
"629 650 CURVE SMOOTH",
"633 612 LINE",
"650 612 LINE",
"654 733 LINE SMOOTH",
"654 737 OFFCURVE",
"649 738 OFFCURVE",
"642 738 CURVE SMOOTH",
"638 738 OFFCURVE",
"632 735 OFFCURVE",
"628 735 CURVE SMOOTH",
"538 735 OFFCURVE",
"461 731 OFFCURVE",
"354 730 CURVE SMOOTH",
"232 729 OFFCURVE",
"132 733 OFFCURVE",
"95 733 CURVE SMOOTH",
"87 733 OFFCURVE",
"77 736 OFFCURVE",
"71 736 CURVE SMOOTH",
"68 736 OFFCURVE",
"67 735 OFFCURVE",
"66 733 CURVE",
"48 614 LINE",
"68 614 LINE",
"77 663 OFFCURVE",
"99 694 OFFCURVE",
"142 701 CURVE SMOOTH",
"171 706 OFFCURVE",
"221 709 OFFCURVE",
"255 709 CURVE SMOOTH",
"269 709 OFFCURVE",
"280 709 OFFCURVE",
"286 708 CURVE SMOOTH",
"297 706 OFFCURVE",
"308 694 OFFCURVE",
"308 679 CURVE",
"310 537 OFFCURVE",
"311 425 OFFCURVE",
"311 328 CURVE SMOOTH",
"311 235 OFFCURVE",
"308 143 OFFCURVE",
"308 49 CURVE SMOOTH",
"308 36 OFFCURVE",
"300 26 OFFCURVE",
"283 20 CURVE SMOOTH",
"272 16 OFFCURVE",
"260 16 OFFCURVE",
"248 16 CURVE",
"248 0 LINE"
);
}
);
userData = {
com.fontlab.hintData = {
hhints = (
{
position = 0;
width = 16;
},
{
position = 709;
width = 27;
}
);
vhints = (
{
position = 311;
width = 82;
}
);
};
com.schriftgestaltung.Glyphs.lastChange = "2019-08-31 23:37:42 +0000";
};
width = 681;
}
);
unicode = "0054,03A4";
},
{
glyphname = Tbar;
layers = (
{
layerId = master01;
paths = (
{
closed = 1;
nodes = (
"447.997 0 LINE",
"447.997 15.875 LINE",
"439.705 15.984 OFFCURVE",
"431.583 16.711 OFFCURVE",
"423.626 18.321 CURVE SMOOTH",
"404.522 22.188 OFFCURVE",
"395.907 35.516 OFFCURVE",
"395.742 48.445 CURVE SMOOTH",
"393.715 141.524 OFFCURVE",
"392.886 234.723 OFFCURVE",
"392.886 328 CURVE SMOOTH",
"392.886 357.992 OFFCURVE",
"392.966 387.993 OFFCURVE",
"393.113 418 CURVE",
"501 418 LINE SMOOTH",
"515 418 OFFCURVE",
"521.132 455.602 OFFCURVE",
"521.132 461.284 CURVE SMOOTH",
"521.132 461.749 OFFCURVE",
"521 462 OFFCURVE",
"521 462 CURVE",
"393.375 462 LINE",
"393.878 533.909 OFFCURVE",
"394.731 605.853 OFFCURVE",
"395.759 677.813 CURVE SMOOTH",
"395.897 691.097 OFFCURVE",
"404.143 707.526 OFFCURVE",
"423.629 707.938 CURVE SMOOTH",
"441.829 708.323 OFFCURVE",
"459.807 708.759 OFFCURVE",
"477.127 708.759 CURVE SMOOTH",
"536.258 708.759 OFFCURVE",
"565.35 707.884 OFFCURVE",
"588.953 703 CURVE SMOOTH",
"606.055 699.462 OFFCURVE",
"622.953 683 OFFCURVE",
"628.953 650 CURVE SMOOTH",
"632.972 633.351 OFFCURVE",
"633 613.372 OFFCURVE",
"633 613.372 CURVE",
"650 612.386 LINE",
"654 733 LINE",
"654 733.088 LINE SMOOTH",
"654 736.641 OFFCURVE",
"649.241 737.774 OFFCURVE",
"642.371 737.774 CURVE SMOOTH",
"638.18 737.774 OFFCURVE",
"631.755 734.867 OFFCURVE",
"627.953 734.756 CURVE SMOOTH",
"538.26 731.861 OFFCURVE",
"461 731 OFFCURVE",
"353.953 730 CURVE SMOOTH",
"231.927 730 OFFCURVE",
"131.759 732.208 OFFCURVE",
"94.953 732.765 CURVE SMOOTH",
"87.052 732.884 OFFCURVE",
"77.002 735.953 OFFCURVE",
"71 735.953 CURVE SMOOTH",
"68.419 735.953 OFFCURVE",
"66.587 735.105 OFFCURVE",
"66 733 CURVE SMOOTH",
"48 614.333 LINE",
"68 614.319 LINE",
"77.177 663.401 OFFCURVE",
"98.761 693.452 OFFCURVE",
"141.953 701 CURVE SMOOTH",
"171.401 706.146 OFFCURVE",
"220.996 709.115 OFFCURVE",
"255 709.115 CURVE SMOOTH",
"268.544 709.115 OFFCURVE",
"279.615 708.671 OFFCURVE",
"285.953 707.71 CURVE SMOOTH",
"296.728 706.075 OFFCURVE",
"308.19 693.871 OFFCURVE",
"308.19 678.813 CURVE",
"308.208 678.813 OFFCURVE",
"308.244 647.819 OFFCURVE",
"308.244 647.819 CURVE SMOOTH",
"309.265 585.862 OFFCURVE",
"310.041 523.921 OFFCURVE",
"310.512 462 CURVE",
"208 462 LINE SMOOTH",
"197 462 OFFCURVE",
"188 418 OFFCURVE",
"188 418 CURVE",
"310.795 418 LINE",
"310.951 387.995 OFFCURVE",
"311.033 357.994 OFFCURVE",
"311.033 328 CURVE SMOOTH",
"311.033 234.746 OFFCURVE",
"310.142 141.547 OFFCURVE",
"308.175 48.421 CURVE SMOOTH",
"308.013 35.813 OFFCURVE",
"299.56 24.705 OFFCURVE",
"283.324 19.321 CURVE SMOOTH",
"271.812 15.504 OFFCURVE",
"259.989 16.029 OFFCURVE",
"247.953 15.875 CURVE",
"247.953 0 LINE"
);
}
);
userData = {
com.fontlab.hintData = {
hhints = (
{
position = 0;
width = 16;
},
{
position = 418;
width = 44;
},
{
position = 709;
width = 27;
}
);
vhints = (
{
position = 311;
width = 82;
}
);
};
com.schriftgestaltung.Glyphs.lastChange = "2019-08-31 23:16:52 +0000";
};
width = 681;
}
);
unicode = 0166;
},
{
glyphname = U;
layers = (
{
layerId = master01;
paths = (
{
closed = 1;
nodes = (
"525 -10 OFFCURVE",
"681 52 OFFCURVE",
"681 278 CURVE SMOOTH",
"681 309 OFFCURVE",
"681 664 OFFCURVE",
"681 684 CURVE SMOOTH",
"681 700 OFFCURVE",
"691 708 OFFCURVE",
"709 712 CURVE SMOOTH",
"717 714 OFFCURVE",
"725 714 OFFCURVE",
"734 714 CURVE",
"734 730 LINE",
"583 730 LINE",
"583 714 LINE",
"592 714 OFFCURVE",
"600 714 OFFCURVE",
"608 712 CURVE SMOOTH",
"627 707 OFFCURVE",
"636 700 OFFCURVE",
"636 685 CURVE",
"636 654 OFFCURVE",
"636 345 OFFCURVE",
"636 314 CURVE",
"636 102 OFFCURVE",
"539 30 OFFCURVE",
"395 30 CURVE",
"220 30 OFFCURVE",
"179 122 OFFCURVE",
"179 319 CURVE SMOOTH",
"179 337 OFFCURVE",
"179 586 OFFCURVE",
"179 660 CURVE SMOOTH",
"179 672 OFFCURVE",
"179 679 OFFCURVE",
"179 680 CURVE SMOOTH",
"179 697 OFFCURVE",
"188 707 OFFCURVE",
"207 712 CURVE SMOOTH",
"215 714 OFFCURVE",
"223 714 OFFCURVE",
"231 714 CURVE",
"231 730 LINE",
"47 730 LINE",
"47 714 LINE",
"54 714 OFFCURVE",
"62 713 OFFCURVE",
"69 712 CURVE SMOOTH",
"85 710 OFFCURVE",
"96 696 OFFCURVE",
"96 680 CURVE SMOOTH",
"96 289 LINE SMOOTH",
"96 52 OFFCURVE",
"257 -10 OFFCURVE",
"392 -10 CURVE SMOOTH"
);
},
{
closed = 0;
nodes = (
"179 680 LINE"
);
}
);
userData = {
com.fontlab.hintData = {
hhints = (
{
position = -10;
width = 40;
},
{
position = 714;
width = 16;
}
);
vhints = (
{
position = 96;
width = 83;
},
{
position = 636;
width = 46;
}
);
};
com.schriftgestaltung.Glyphs.lastChange = "2019-08-31 23:40:02 +0000";
};
width = 764;
}
);
unicode = 0055;
},
{
glyphname = V;
layers = (
{
layerId = master01;
paths = (
{
closed = 1;
nodes = (
"390 -8 OFFCURVE",
"391 -6 OFFCURVE",
"395 2 CURVE SMOOTH",
"670 678 LINE",
"677 695 OFFCURVE",
"684 711 OFFCURVE",
"699 715 CURVE SMOOTH",
"707 717 OFFCURVE",
"716 717 OFFCURVE",
"724 717 CURVE",
"724 733 LINE",
"668 733 LINE SMOOTH",
"637 733 OFFCURVE",
"607 733 OFFCURVE",
"576 733 CURVE",
"576 717 LINE",
"584 717 OFFCURVE",
"592 717 OFFCURVE",
"599 716 CURVE SMOOTH",
"612 714 OFFCURVE",
"626 709 OFFCURVE",
"626 691 CURVE SMOOTH",
"626 683 OFFCURVE",
"623 674 OFFCURVE",
"617 660 CURVE",
"403 140 LINE",
"188 667 LINE SMOOTH",
"185 675 OFFCURVE",
"184 681 OFFCURVE",
"184 687 CURVE SMOOTH",
"184 706 OFFCURVE",
"198 712 OFFCURVE",
"212 715 CURVE SMOOTH",
"220 717 OFFCURVE",
"228 717 OFFCURVE",
"236 717 CURVE",
"236 733 LINE",
"50 733 LINE",
"50 717 LINE",
"58 717 OFFCURVE",
"66 717 OFFCURVE",
"74 715 CURVE SMOOTH",
"86 712 OFFCURVE",
"93 701 OFFCURVE",
"100 684 CURVE SMOOTH",
"176 496 OFFCURVE",
"370 18 OFFCURVE",
"376 2 CURVE SMOOTH",
"379 -6 OFFCURVE",
"380 -8 OFFCURVE",
"385 -8 CURVE SMOOTH"
);
}
);
userData = {
com.fontlab.hintData = {
hhints = (
{
position = -8;
width = 21;
},
{
position = -8;
width = 21;
},
{
position = 717;
width = 16;
}
);
vhints = (
{
position = 100;
width = 84;
}
);
};
com.schriftgestaltung.Glyphs.lastChange = "2019-08-31 23:43:42 +0000";
};
width = 758;
}
);
unicode = 0056;
},
{
glyphname = W;
layers = (
{
layerId = master01;
paths = (
{
closed = 1;
nodes = (
"388 -8 OFFCURVE",
"389 -6 OFFCURVE",
"393 3 CURVE SMOOTH",
"396 9 OFFCURVE",
"469 180 OFFCURVE",
"541 352 CURVE",
"614 179 OFFCURVE",
"686 10 OFFCURVE",
"689 2 CURVE SMOOTH",
"692 -6 OFFCURVE",
"694 -8 OFFCURVE",
"697 -8 CURVE SMOOTH",
"701 -8 OFFCURVE",
"703 -6 OFFCURVE",
"707 3 CURVE SMOOTH",
"713 16 OFFCURVE",
"835 318 OFFCURVE",
"981 679 CURVE",
"988 695 OFFCURVE",
"996 711 OFFCURVE",
"1011 715 CURVE SMOOTH",
"1019 717 OFFCURVE",
"1027 718 OFFCURVE",
"1035 718 CURVE",
"1035 734 LINE",
"887 734 LINE",
"887 718 LINE",
"895 718 OFFCURVE",
"903 718 OFFCURVE",
"911 716 CURVE SMOOTH",
"924 713 OFFCURVE",
"937 710 OFFCURVE",
"937 692 CURVE SMOOTH",
"937 684 OFFCURVE",
"934 674 OFFCURVE",
"928 660 CURVE",
"929 660 LINE",
"713 136 LINE",
"582 448 LINE",
"681 682 LINE SMOOTH",
"688 698 OFFCURVE",
"695 712 OFFCURVE",
"709 715 CURVE SMOOTH",
"717 717 OFFCURVE",
"724 718 OFFCURVE",
"732 718 CURVE",
"732 734 LINE",
"588 734 LINE",
"588 718 LINE",
"596 718 OFFCURVE",
"602 717 OFFCURVE",
"610 715 CURVE SMOOTH",
"623 712 OFFCURVE",
"634 706 OFFCURVE",
"634 690 CURVE SMOOTH",
"634 682 OFFCURVE",
"632 673 OFFCURVE",
"627 660 CURVE",
"552 484 LINE",
"476 664 LINE SMOOTH",
"472 674 OFFCURVE",
"471 682 OFFCURVE",
"471 688 CURVE SMOOTH",
"471 705 OFFCURVE",
"482 710 OFFCURVE",
"496 715 CURVE SMOOTH",
"504 718 OFFCURVE",
"511 718 OFFCURVE",
"519 718 CURVE",
"519 734 LINE",
"353 734 LINE",
"353 718 LINE",
"361 718 OFFCURVE",
"368 717 OFFCURVE",
"376 715 CURVE SMOOTH",
"386 713 OFFCURVE",
"391 706 OFFCURVE",
"397 695 CURVE SMOOTH",
"426 643 OFFCURVE",
"468 526 OFFCURVE",
"518 406 CURVE",
"403 137 LINE",
"188 666 LINE SMOOTH",
"185 674 OFFCURVE",
"184 681 OFFCURVE",
"184 687 CURVE SMOOTH",
"184 706 OFFCURVE",
"198 712 OFFCURVE",
"212 715 CURVE SMOOTH",
"220 717 OFFCURVE",
"228 718 OFFCURVE",
"236 718 CURVE",
"236 734 LINE",
"50 734 LINE",
"50 718 LINE",
"58 718 OFFCURVE",
"66 717 OFFCURVE",
"74 715 CURVE SMOOTH",
"89 712 OFFCURVE",
"95 703 OFFCURVE",
"101 684 CURVE SMOOTH",
"102 681 OFFCURVE",
"105 672 OFFCURVE",
"107 666 CURVE SMOOTH",
"166 488 OFFCURVE",
"371 15 OFFCURVE",
"376 2 CURVE SMOOTH",
"379 -6 OFFCURVE",
"381 -8 OFFCURVE",
"384 -8 CURVE SMOOTH"
);
}
);
userData = {
com.fontlab.hintData = {
hhints = (
{
position = -8;
width = 21;
},
{
position = -8;
width = 21;
},
{
position = 718;
width = 16;
}
);
};
com.schriftgestaltung.Glyphs.lastChange = "2019-08-31 23:46:02 +0000";
};
width = 1043;
}
);
unicode = 0057;
},
{
glyphname = X;
layers = (
{
layerId = master01;
paths = (
{
closed = 1;
nodes = (
"199 0 LINE",
"199 16 LINE",
"191 16 OFFCURVE",
"184 16 OFFCURVE",
"176 17 CURVE SMOOTH",
"166 18 OFFCURVE",
"156 23 OFFCURVE",
"156 34 CURVE SMOOTH",
"156 42 OFFCURVE",
"161 54 OFFCURVE",
"175 74 CURVE",
"362 332 LINE",
"535 70 LINE SMOOTH",
"544 56 OFFCURVE",
"549 45 OFFCURVE",
"549 38 CURVE SMOOTH",
"549 25 OFFCURVE",
"540 21 OFFCURVE",
"528 18 CURVE SMOOTH",
"521 16 OFFCURVE",
"515 16 OFFCURVE",
"506 16 CURVE",
"506 0 LINE",
"708 0 LINE",
"708 16 LINE",
"699 16 OFFCURVE",
"687 17 OFFCURVE",
"679 18 CURVE SMOOTH",
"668 19 OFFCURVE",
"660 28 OFFCURVE",
"652 39 CURVE SMOOTH",
"608 100 OFFCURVE",
"519 243 OFFCURVE",
"425 381 CURVE SMOOTH",
"412 400 LINE",
"614 678 LINE SMOOTH",
"625 694 OFFCURVE",
"637 708 OFFCURVE",
"652 711 CURVE SMOOTH",
"661 713 OFFCURVE",
"669 714 OFFCURVE",
"677 714 CURVE",
"677 730 LINE",
"529 730 LINE",
"529 714 LINE",
"537 714 OFFCURVE",
"545 714 OFFCURVE",
"553 712 CURVE SMOOTH",
"565 709 OFFCURVE",
"573 707 OFFCURVE",
"573 697 CURVE SMOOTH",
"573 689 OFFCURVE",
"568 676 OFFCURVE",
"553 656 CURVE SMOOTH",
"390 433 LINE",
"238 660 LINE SMOOTH",
"228 674 OFFCURVE",
"225 685 OFFCURVE",
"225 692 CURVE SMOOTH",
"225 705 OFFCURVE",
"235 708 OFFCURVE",
"246 711 CURVE SMOOTH",
"254 713 OFFCURVE",
"263 714 OFFCURVE",
"271 714 CURVE",
"271 730 LINE",
"70 730 LINE",
"70 714 LINE",
"78 714 OFFCURVE",
"86 713 OFFCURVE",
"95 711 CURVE SMOOTH",
"105 709 OFFCURVE",
"113 702 OFFCURVE",
"122 690 CURVE SMOOTH",
"165 633 OFFCURVE",
"252 498 OFFCURVE",
"340 365 CURVE",
"115 52 LINE SMOOTH",
"103 36 OFFCURVE",
"91 22 OFFCURVE",
"76 18 CURVE SMOOTH",
"68 16 OFFCURVE",
"59 16 OFFCURVE",
"51 16 CURVE",
"51 0 LINE"
);
}
);
userData = {
com.fontlab.hintData = {
hhints = (
{
position = 0;
width = 16;
},
{
position = 714;
width = 16;
}
);
};
com.schriftgestaltung.Glyphs.lastChange = "2019-08-31 23:47:44 +0000";
};
width = 761;
}
);
unicode = "0058,03A7";
},
{
glyphname = Y;
layers = (
{
layerId = master01;
paths = (
{
closed = 1;
nodes = (
"440 0 LINE",
"440 16 LINE",
"432 16 OFFCURVE",
"424 17 OFFCURVE",
"416 18 CURVE SMOOTH",
"397 20 OFFCURVE",
"388 35 OFFCURVE",
"388 49 CURVE",
"386 118 OFFCURVE",
"385 187 OFFCURVE",
"385 256 CURVE SMOOTH",
"385 303 OFFCURVE",
"386 350 OFFCURVE",
"388 396 CURVE",
"603 691 LINE SMOOTH",
"612 704 OFFCURVE",
"631 713 OFFCURVE",
"656 714 CURVE",
"656 730 LINE",
"508 730 LINE",
"508 714 LINE",
"517 714 OFFCURVE",
"525 714 OFFCURVE",
"532 712 CURVE SMOOTH",
"544 709 OFFCURVE",
"552 707 OFFCURVE",
"552 696 CURVE SMOOTH",
"552 688 OFFCURVE",
"547 676 OFFCURVE",
"532 656 CURVE SMOOTH",
"369 433 LINE",
"217 660 LINE SMOOTH",
"207 674 OFFCURVE",
"204 684 OFFCURVE",
"204 692 CURVE SMOOTH",
"204 704 OFFCURVE",
"214 710 OFFCURVE",
"226 712 CURVE SMOOTH",
"232 713 OFFCURVE",
"242 714 OFFCURVE",
"250 714 CURVE",
"250 730 LINE",
"49 730 LINE",
"49 714 LINE",
"57 714 OFFCURVE",
"66 713 OFFCURVE",
"74 711 CURVE SMOOTH",
"85 708 OFFCURVE",
"92 702 OFFCURVE",
"101 690 CURVE SMOOTH",
"142 636 OFFCURVE",
"222 512 OFFCURVE",
"306 386 CURVE",
"308 343 OFFCURVE",
"308 300 OFFCURVE",
"308 257 CURVE SMOOTH",
"308 188 OFFCURVE",
"307 118 OFFCURVE",
"306 49 CURVE",
"305 49 LINE",
"305 35 OFFCURVE",
"297 23 OFFCURVE",
"277 18 CURVE SMOOTH",
"269 16 OFFCURVE",
"261 16 OFFCURVE",
"253 16 CURVE",
"253 0 LINE"
);
}
);
userData = {
com.fontlab.hintData = {
hhints = (
{
position = 0;
width = 16;
},
{
position = 714;
width = 16;
}
);
vhints = (
{
position = 306;
width = 82;
}
);
};
com.schriftgestaltung.Glyphs.lastChange = "2019-08-31 23:48:45 +0000";
};
width = 684;
}
);
unicode = 0059;
},
{
glyphname = Z;
layers = (
{
layerId = master01;
paths = (
{
closed = 1;
nodes = (
"568 0 LINE",
"594 154 LINE",
"575 153 LINE",
"562 85 OFFCURVE",
"534 41 OFFCURVE",
"468 32 CURVE SMOOTH",
"417 25 OFFCURVE",
"332 25 OFFCURVE",
"288 25 CURVE SMOOTH",
"244 25 OFFCURVE",
"201 28 OFFCURVE",
"165 33 CURVE",
"590 682 LINE",
"595 690 OFFCURVE",
"597 699 OFFCURVE",
"597 707 CURVE SMOOTH",
"597 720 OFFCURVE",
"595 727 OFFCURVE",
"593 730 CURVE",
"156 730 LINE SMOOTH",
"149 730 OFFCURVE",
"134 735 OFFCURVE",
"125 735 CURVE SMOOTH",
"120 735 OFFCURVE",
"117 734 OFFCURVE",
"116 730 CURVE",
"85 590 LINE",
"101 591 LINE",
"115 652 OFFCURVE",
"145 685 OFFCURVE",
"213 698 CURVE SMOOTH",
"254 706 OFFCURVE",
"300 708 OFFCURVE",
"359 708 CURVE",
"416 708 OFFCURVE",
"503 704 OFFCURVE",
"503 704 CURVE",
"60 36 LINE",
"57 31 OFFCURVE",
"54 24 OFFCURVE",
"54 18 CURVE SMOOTH",
"54 4 OFFCURVE",
"72 0 OFFCURVE",
"80 0 CURVE SMOOTH"
);
}
);
userData = {
com.fontlab.hintData = {
hhints = (
{
position = 0;
width = 25;
},
{
position = 708;
width = 22;
}
);
};
com.schriftgestaltung.Glyphs.lastChange = "2019-08-31 23:49:59 +0000";
};
width = 652;
}
);
unicode = 005A;
},
{
glyphname = uni01C7;
layers = (
{
components = (
{
name = J;
transform = "{1, 0, 0, 1, 450, 0}";
}
);
layerId = master01;
paths = (
{
closed = 1;
nodes = (
"136.56 0 LINE",
"150 0 LINE",
"164.491 0 LINE",
"244.05 0 LINE",
"492 0 LINE",
"509 140 LINE",
"493 139.014 LINE",
"480.467 78.53 OFFCURVE",
"453.117 47.06 OFFCURVE",
"392 32.197 CURVE SMOOTH",
"349.426 21.845 OFFCURVE",
"331.42 21.343 OFFCURVE",
"270 21 CURVE",
"250 21 OFFCURVE",
"239.626 22.009 OFFCURVE",
"219.68 24.395 CURVE SMOOTH",
"200.326 26.709 OFFCURVE",
"191.81 39.235 OFFCURVE",
"191.81 52.52 CURVE SMOOTH",
"190.129 168.755 OFFCURVE",
"188.961 284.941 OFFCURVE",
"188.961 401 CURVE SMOOTH",
"188.961 494.734 OFFCURVE",
"189.809 588.384 OFFCURVE",
"191.825 681.912 CURVE SMOOTH",
"191.987 694.52 OFFCURVE",
"200.44 705.628 OFFCURVE",
"216.676 711.012 CURVE SMOOTH",
"228.188 714.829 OFFCURVE",
"240.011 714.304 OFFCURVE",
"252.047 714.458 CURVE",
"252.047 730.333 LINE",
"57.003 730.333 LINE",
"57.003 714.458 LINE",
"65.295 714.349 OFFCURVE",
"73.417 713.622 OFFCURVE",
"81.374 712.012 CURVE SMOOTH",
"100.478 708.146 OFFCURVE",
"109.244 694.819 OFFCURVE",
"109.244 681.888 CURVE",
"109.258 681.888 LINE",
"111.283 589.037 OFFCURVE",
"112.116 496.06 OFFCURVE",
"112.116 403 CURVE SMOOTH",
"112.116 284.943 OFFCURVE",
"110.898 166.753 OFFCURVE",
"109.241 48.52 CURVE SMOOTH",
"109.241 35.235 OFFCURVE",
"100.474 22.266 OFFCURVE",
"81.371 18.395 CURVE SMOOTH",
"71.526 16.399 OFFCURVE",
"61.333 16.059 OFFCURVE",
"51 15.947 CURVE",
"51 0 LINE"
);
}
);
userData = {
com.fontlab.hintData = {
hhints = (
{
position = -180;
width = 26;
},
{
position = 0;
width = 21;
},
{
position = 714;
width = 16;
}
);
vhints = (
{
position = 112;
width = 77;
},
{
position = 493;
width = 16;
},
{
position = 569;
width = 80;
}
);
};
com.schriftgestaltung.Glyphs.lastChange = "2019-08-31 23:16:52 +0000";
};
width = 1035;
}
);
unicode = 01C7;
},
{
glyphname = uni01C8;
layers = (
{
components = (
{
name = j;
transform = "{1, 0, 0, 1, 480, 0}";
}
);
layerId = master01;
paths = (
{
closed = 1;
nodes = (
"136.56 0 LINE",
"150 0 LINE",
"164.491 0 LINE",
"244.05 0 LINE",
"502 0 LINE",
"519 140 LINE",
"503 139.014 LINE",
"490.467 78.53 OFFCURVE",
"462.749 48.501 OFFCURVE",
"402 32.197 CURVE SMOOTH",
"363.426 21.845 OFFCURVE",
"311.42 21.343 OFFCURVE",
"270 21 CURVE",
"250 21 OFFCURVE",
"239.626 22.009 OFFCURVE",
"219.68 24.395 CURVE SMOOTH",
"200.326 26.709 OFFCURVE",
"191.81 39.235 OFFCURVE",
"191.81 52.52 CURVE SMOOTH",
"190.129 168.755 OFFCURVE",
"188.961 284.941 OFFCURVE",
"188.961 401 CURVE SMOOTH",
"188.961 494.734 OFFCURVE",
"189.809 588.384 OFFCURVE",
"191.825 681.912 CURVE SMOOTH",
"191.987 694.52 OFFCURVE",
"200.44 705.628 OFFCURVE",
"216.676 711.012 CURVE SMOOTH",
"228.188 714.829 OFFCURVE",
"240.011 714.304 OFFCURVE",
"252.047 714.458 CURVE",
"252.047 730.333 LINE",
"57.003 730.333 LINE",
"57.003 714.458 LINE",
"65.295 714.349 OFFCURVE",
"73.417 713.622 OFFCURVE",
"81.374 712.012 CURVE SMOOTH",
"100.478 708.146 OFFCURVE",
"109.244 694.819 OFFCURVE",
"109.244 681.888 CURVE",
"109.258 681.888 LINE",
"111.283 589.037 OFFCURVE",
"112.116 496.06 OFFCURVE",
"112.116 403 CURVE SMOOTH",
"112.116 284.943 OFFCURVE",
"110.898 166.753 OFFCURVE",
"109.241 48.52 CURVE SMOOTH",
"109.241 35.235 OFFCURVE",
"100.474 22.266 OFFCURVE",
"81.371 18.395 CURVE SMOOTH",
"71.526 16.399 OFFCURVE",
"61.333 16.059 OFFCURVE",
"51 15.947 CURVE",
"51 0 LINE"
);
}
);
userData = {
com.fontlab.hintData = {
hhints = (
{
position = -154;
width = 46;
},
{
position = 0;
width = 21;
},
{
position = 470;
width = 14;
},
{
position = 490;
width = 20;
},
{
position = 621;
width = 93;
},
{
position = 714;
width = 16;
}
);
vhints = (
{
position = 112;
width = 77;
},
{
position = 503;
width = 16;
},
{
position = 561;
width = 93;
},
{
position = 583;
width = 68;
}
);
};
com.schriftgestaltung.Glyphs.lastChange = "2019-08-31 23:16:52 +0000";
};
width = 949;
}
);
unicode = 01C8;
},
{
glyphname = uni01E4;
layers = (
{
layerId = master01;
paths = (
{
closed = 1;
nodes = (
"600.609 -10.007 OFFCURVE",
"694 124.369 OFFCURVE",
"694 166.738 CURVE SMOOTH",
"694.929 189 LINE",
"771 189 LINE SMOOTH",
"785 189 OFFCURVE",
"791.132 226.602 OFFCURVE",
"791.132 232.284 CURVE SMOOTH",
"791.132 232.749 OFFCURVE",
"791 233 OFFCURVE",
"791 233 CURVE",
"696.766 233 LINE",
"697.61 253.224 LINE SMOOTH",
"698.021 266.143 OFFCURVE",
"706.378 279.478 OFFCURVE",
"725.479 283.348 CURVE SMOOTH",
"733.437 284.96 OFFCURVE",
"741.558 285.685 OFFCURVE",
"749.851 285.794 CURVE",
"749.851 301.669 LINE",
"572.807 301.669 LINE",
"572.807 285.794 LINE",
"581.099 285.685 OFFCURVE",
"589.221 284.958 OFFCURVE",
"597.178 283.348 CURVE SMOOTH",
"616.281 279.481 OFFCURVE",
"624.83 266.151 OFFCURVE",
"625.048 253.224 CURVE SMOOTH",
"625.642 233 LINE",
"538 233 LINE SMOOTH",
"527 233 OFFCURVE",
"518 189 OFFCURVE",
"518 189 CURVE",
"626.936 189 LINE",
"627.545 168.284 LINE SMOOTH",
"627.545 95 OFFCURVE",
"504.094 32 OFFCURVE",
"414 32 CURVE SMOOTH",
"341 32 OFFCURVE",
"144 51.721 OFFCURVE",
"144 385 CURVE SMOOTH",
"144 524.62 OFFCURVE",
"214.871 704.77 OFFCURVE",
"404 704.77 CURVE SMOOTH",
"575.547 704.77 OFFCURVE",
"655.523 572.701 OFFCURVE",
"680.375 472 CURVE SMOOTH",
"681.114 469.003 OFFCURVE",
"684.347 467.253 OFFCURVE",
"690.889 467.253 CURVE SMOOTH",
"693.266 467.253 OFFCURVE",
"700 471 OFFCURVE",
"700 471 CURVE",
"696 673 LINE SMOOTH",
"695.775 679.431 OFFCURVE",
"691.332 683.903 OFFCURVE",
"685 683.903 CURVE SMOOTH",
"670.606 683.903 OFFCURVE",
"674.482 657.256 OFFCURVE",
"649 657.256 CURVE SMOOTH",
"616.017 657.256 OFFCURVE",
"553.556 742.001 OFFCURVE",
"418 742.001 CURVE SMOOTH",
"160.723 742.001 OFFCURVE",
"55 553.27 OFFCURVE",
"55 352 CURVE SMOOTH",
"55 52.052 OFFCURVE",
"290.502 -10.007 OFFCURVE",
"411 -10.007 CURVE SMOOTH"
);
}
);
userData = {
com.fontlab.hintData = {
hhints = (
{
position = -10;
width = 42;
},
{
position = 189;
width = 44;
},
{
position = 286;
width = 16;
},
{
position = 705;
width = 37;
}
);
vhints = (
{
position = 55;
width = 89;
},
{
position = 626;
width = 71;
},
{
position = 680;
width = 20;
}
);
};
com.schriftgestaltung.Glyphs.lastChange = "2019-08-31 23:16:52 +0000";
};
width = 403;
}
);
unicode = 01E4;
},
{
glyphname = uni01F6;
layers = (
{
layerId = master01;
paths = (
{
closed = 1;
nodes = (
"878.639 -13.303 OFFCURVE",
"988.499 44 OFFCURVE",
"988.499 152.325 CURVE SMOOTH",
"988.471 496.56 LINE SMOOTH",
"988.471 509.221 OFFCURVE",
"986.972 513.666 OFFCURVE",
"981.657 513.666 CURVE SMOOTH",
"981.008 513.666 OFFCURVE",
"980.301 513.562 OFFCURVE",
"979.533 513.412 CURVE SMOOTH",
"881.853 494.238 LINE",
"881.853 480.654 LINE",
"886.017 480.654 OFFCURVE",
"890.786 480.45 OFFCURVE",
"896.324 479.329 CURVE SMOOTH",
"908.573 476.85 OFFCURVE",
"915.672 471.003 OFFCURVE",
"915.672 452.189 CURVE SMOOTH",
"915.672 364.565 OFFCURVE",
"915.704 239.931 OFFCURVE",
"915.704 152.268 CURVE SMOOTH",
"915.704 81 OFFCURVE",
"863.308 15.017 OFFCURVE",
"797.425 15.017 CURVE SMOOTH",
"763.725 15.017 OFFCURVE",
"679.991 42 OFFCURVE",
"679.991 140.507 CURVE",
"678.327 258.536 OFFCURVE",
"677.447 283.156 OFFCURVE",
"677.447 401 CURVE SMOOTH",
"677.447 495.197 OFFCURVE",
"678.283 589.306 OFFCURVE",
"680.317 683.282 CURVE SMOOTH",
"680.872 697.522 OFFCURVE",
"690.014 708.264 OFFCURVE",
"708.519 712.013 CURVE SMOOTH",
"716.476 713.625 OFFCURVE",
"724.593 714.35 OFFCURVE",
"732.887 714.46 CURVE",
"732.887 730 LINE",
"545.392 730 LINE",
"545.392 714.46 LINE",
"553.685 714.35 OFFCURVE",
"561.806 713.623 OFFCURVE",
"569.763 712.013 CURVE SMOOTH",
"588.703 708.18 OFFCURVE",
"597.598 696.086 OFFCURVE",
"597.749 682.364 CURVE SMOOTH",
"597.749 428.444 LINE SMOOTH",
"597.749 425.338 OFFCURVE",
"595.312 421.223 OFFCURVE",
"590.102 420.168 CURVE SMOOTH",
"589.1 419.965 OFFCURVE",
"587.612 419.813 OFFCURVE",
"586.292 419.705 CURVE SMOOTH",
"532.58 419.122 OFFCURVE",
"449.95 418.358 OFFCURVE",
"385.209 418.358 CURVE SMOOTH",
"323.493 418.358 OFFCURVE",
"250.721 419.052 OFFCURVE",
"201.317 419.622 CURVE SMOOTH",
"199.813 419.73 OFFCURVE",
"197.715 419.907 OFFCURVE",
"196.426 420.168 CURVE SMOOTH",
"191.319 421.203 OFFCURVE",
"188.828 424.94 OFFCURVE",
"188.812 428.429 CURVE SMOOTH",
"188.696 454.327 OFFCURVE",
"188.659 481.776 OFFCURVE",
"188.659 510 CURVE SMOOTH",
"188.659 566.317 OFFCURVE",
"188.815 625.717 OFFCURVE",
"188.815 682.029 CURVE SMOOTH",
"188.815 695.628 OFFCURVE",
"197.582 708.283 OFFCURVE",
"216.686 712.153 CURVE SMOOTH",
"224.642 713.765 OFFCURVE",
"232.761 714.491 OFFCURVE",
"241.054 714.601 CURVE",
"241.054 730 LINE",
"54.002 730 LINE",
"54.002 714.46 LINE",
"62.295 714.35 OFFCURVE",
"70.416 713.623 OFFCURVE",
"78.373 712.013 CURVE SMOOTH",
"97.477 708.146 OFFCURVE",
"106.243 694.819 OFFCURVE",
"106.257 681.889 CURVE SMOOTH",
"108.268 589.703 OFFCURVE",
"109.115 497.392 OFFCURVE",
"109.115 405 CURVE SMOOTH",
"109.115 286.278 OFFCURVE",
"107.906 167.42 OFFCURVE",
"106.24 48.52 CURVE SMOOTH",
"106.24 35.235 OFFCURVE",
"97.473 22.266 OFFCURVE",
"78.37 18.395 CURVE SMOOTH",
"70.414 16.783 OFFCURVE",
"62.292 16.059 OFFCURVE",
"54 15.947 CURVE",
"54 0 LINE",
"241.006 0 LINE",
"241.006 15.947 LINE",
"232.712 16.059 OFFCURVE",
"224.593 16.786 OFFCURVE",
"216.637 18.395 CURVE SMOOTH",
"198.286 22.107 OFFCURVE",
"189.473 34.163 OFFCURVE",
"188.807 46.942 CURVE SMOOTH",
"188.807 118.56 OFFCURVE",
"188.449 190.381 OFFCURVE",
"188.449 262 CURVE SMOOTH",
"188.449 298.181 OFFCURVE",
"188.539 334.311 OFFCURVE",
"188.811 370.337 CURVE SMOOTH",
"188.837 373.732 OFFCURVE",
"191.317 377.565 OFFCURVE",
"196.426 378.6 CURVE SMOOTH",
"197.897 378.898 OFFCURVE",
"200.421 379.085 OFFCURVE",
"201.915 379.185 CURVE SMOOTH",
"251.519 379.755 OFFCURVE",
"324.256 380.446 OFFCURVE",
"385.209 380.446 CURVE SMOOTH",
"449.181 380.446 OFFCURVE",
"531.844 379.685 OFFCURVE",
"585.784 379.102 CURVE SMOOTH",
"587.213 378.993 OFFCURVE",
"588.969 378.829 OFFCURVE",
"590.102 378.6 CURVE SMOOTH",
"595.312 377.545 OFFCURVE",
"597.758 374.001 OFFCURVE",
"597.749 370.322 CURVE SMOOTH",
"596.996 157.907 LINE",
"596.996 1 OFFCURVE",
"739.74 -13.303 OFFCURVE",
"798.85 -13.303 CURVE SMOOTH"
);
}
);
userData = {
com.fontlab.hintData = {
hhints = (
{
position = -13;
width = 28;
},
{
position = 0;
width = 16;
},
{
position = 379;
width = 40;
},
{
position = 481;
width = 14;
},
{
position = 714;
width = 16;
}
);
vhints = (
{
position = 109;
width = 79;
},
{
position = 598;
width = 80;
},
{
position = 916;
width = 73;
}
);
};
com.schriftgestaltung.Glyphs.lastChange = "2019-08-31 23:16:52 +0000";
};
width = 1035;
}
);
unicode = 01F6;
},
{
glyphname = uni0202;
layers = (
{
components = (
{
name = A;
}
);
layerId = master01;
paths = (
{
closed = 1;
nodes = (
"340.157 793.811 OFFCURVE",
"343.925 807.11 OFFCURVE",
"348.825 816.21 CURVE SMOOTH",
"355.106 827.875 OFFCURVE",
"365.025 849.811 OFFCURVE",
"394.325 849.811 CURVE SMOOTH",
"433.337 849.811 OFFCURVE",
"441.313 828.278 OFFCURVE",
"458.164 803.003 CURVE SMOOTH",
"461.481 798.027 OFFCURVE",
"464.266 794.569 OFFCURVE",
"469.225 794.569 CURVE SMOOTH",
"477.628 794.569 OFFCURVE",
"478.935 800.008 OFFCURVE",
"478.935 805.71 CURVE SMOOTH",
"478.935 839.512 OFFCURVE",
"441.811 900.91 OFFCURVE",
"388.725 900.91 CURVE SMOOTH",
"344.187 900.91 OFFCURVE",
"319.065 847.371 OFFCURVE",
"319.065 808.511 CURVE SMOOTH",
"319.065 800.378 OFFCURVE",
"323.278 793.811 OFFCURVE",
"330.625 793.811 CURVE SMOOTH"
);
}
);
userData = {
com.fontlab.hintData = {
hhints = (
{
position = 0;
width = 16;
},
{
position = 312;
width = 29;
},
{
position = 710;
width = 20;
},
{
position = 850;
width = 51;
}
);
vhints = (
{
position = 319;
width = 30;
}
);
};
com.schriftgestaltung.Glyphs.lastChange = "2019-08-31 23:16:52 +0000";
};
width = 777;
}
);
unicode = 0202;
},
{
glyphname = uni0206;
layers = (
{
components = (
{
name = E;
}
);
layerId = master01;
paths = (
{
closed = 1;
nodes = (
"213.274 779.998 OFFCURVE",
"218.397 795.013 OFFCURVE",
"225.062 805.285 CURVE SMOOTH",
"233.604 818.454 OFFCURVE",
"247.093 843.218 OFFCURVE",
"286.938 843.218 CURVE SMOOTH",
"339.992 843.218 OFFCURVE",
"350.84 818.91 OFFCURVE",
"373.755 790.376 CURVE SMOOTH",
"378.267 784.759 OFFCURVE",
"382.053 780.854 OFFCURVE",
"388.797 780.854 CURVE SMOOTH",
"400.225 780.854 OFFCURVE",
"402.002 786.994 OFFCURVE",
"402.002 793.432 CURVE SMOOTH",
"402.002 831.592 OFFCURVE",
"351.516 900.906 OFFCURVE",
"279.322 900.906 CURVE SMOOTH",
"218.754 900.906 OFFCURVE",
"184.591 840.464 OFFCURVE",
"184.591 796.594 CURVE SMOOTH",
"184.591 787.412 OFFCURVE",
"190.32 779.998 OFFCURVE",
"200.312 779.998 CURVE SMOOTH"
);
}
);
userData = {
com.fontlab.hintData = {
hhints = (
{
position = 0;
width = 21;
},
{
position = 379;
width = 29;
},
{
position = 709;
width = 21;
},
{
position = 843;
width = 58;
}
);
vhints = (
{
position = 109;
width = 83;
},
{
position = 417;
width = 16;
},
{
position = 489;
width = 16;
},
{
position = 523;
width = 16;
}
);
};
com.schriftgestaltung.Glyphs.lastChange = "2019-08-31 23:16:52 +0000";
};
width = 566;
}
);
unicode = 0206;
},
{
glyphname = uni020A;
layers = (
{
components = (
{
name = I;
}
);
layerId = master01;
paths = (
{
closed = 1;
nodes = (
"88.633 793.811 OFFCURVE",
"92.4 807.11 OFFCURVE",
"97.301 816.21 CURVE SMOOTH",
"103.582 827.875 OFFCURVE",
"113.501 849.811 OFFCURVE",
"142.801 849.811 CURVE SMOOTH",
"181.812 849.811 OFFCURVE",
"189.789 828.278 OFFCURVE",
"206.64 803.003 CURVE SMOOTH",
"209.957 798.027 OFFCURVE",
"212.741 794.569 OFFCURVE",
"217.7 794.569 CURVE SMOOTH",
"226.104 794.569 OFFCURVE",
"227.41 800.008 OFFCURVE",
"227.41 805.71 CURVE SMOOTH",
"227.41 839.512 OFFCURVE",
"190.286 900.91 OFFCURVE",
"137.2 900.91 CURVE SMOOTH",
"92.662 900.91 OFFCURVE",
"67.541 847.371 OFFCURVE",
"67.541 808.511 CURVE SMOOTH",
"67.541 800.378 OFFCURVE",
"71.754 793.811 OFFCURVE",
"79.101 793.811 CURVE SMOOTH"
);
}
);
userData = {
com.fontlab.hintData = {
hhints = (
{
position = 0;
width = 16;
},
{
position = 714;
width = 16;
},
{
position = 850;
width = 51;
}
);
vhints = (
{
position = 68;
width = 30;
},
{
position = 108;
width = 78;
}
);
};
com.schriftgestaltung.Glyphs.lastChange = "2019-08-31 23:16:52 +0000";
};
width = 291;
}
);
unicode = 020A;
},
{
glyphname = uni020E;
layers = (
{
components = (
{
name = O;
}
);
layerId = master01;
paths = (
{
closed = 1;
nodes = (
"341.444 793.811 OFFCURVE",
"345.212 807.11 OFFCURVE",
"350.112 816.21 CURVE SMOOTH",
"356.394 827.875 OFFCURVE",
"366.312 849.811 OFFCURVE",
"395.612 849.811 CURVE SMOOTH",
"434.624 849.811 OFFCURVE",
"442.601 828.278 OFFCURVE",
"459.451 803.003 CURVE SMOOTH",
"462.769 798.027 OFFCURVE",
"465.553 794.569 OFFCURVE",
"470.512 794.569 CURVE SMOOTH",
"478.915 794.569 OFFCURVE",
"480.222 800.008 OFFCURVE",
"480.222 805.71 CURVE SMOOTH",
"480.222 839.512 OFFCURVE",
"443.098 900.91 OFFCURVE",
"390.012 900.91 CURVE SMOOTH",
"345.474 900.91 OFFCURVE",
"320.353 847.371 OFFCURVE",
"320.353 808.511 CURVE SMOOTH",
"320.353 800.378 OFFCURVE",
"324.565 793.811 OFFCURVE",
"331.912 793.811 CURVE SMOOTH"
);
}
);
userData = {
com.fontlab.hintData = {
hhints = (
{
position = -10;
width = 37;
},
{
position = 699;
width = 35;
},
{
position = 850;
width = 51;
}
);
vhints = (
{
position = 55;
width = 89;
},
{
position = 320;
width = 30;
},
{
position = 658;
width = 87;
}
);
};
com.schriftgestaltung.Glyphs.lastChange = "2019-08-31 23:16:52 +0000";
};
width = 800;
}
);
unicode = 020E;
},
{
glyphname = uni0212;
layers = (
{
components = (
{
name = R;
}
);
layerId = master01;
paths = (
{
closed = 1;
nodes = (
"213.157 794 OFFCURVE",
"216.925 807.3 OFFCURVE",
"221.825 816.399 CURVE SMOOTH",
"228.106 828.064 OFFCURVE",
"238.025 850 OFFCURVE",
"267.325 850 CURVE SMOOTH",
"306.337 850 OFFCURVE",
"314.313 828.468 OFFCURVE",
"331.164 803.192 CURVE SMOOTH",
"334.481 798.217 OFFCURVE",
"337.266 794.759 OFFCURVE",
"342.225 794.759 CURVE SMOOTH",
"350.628 794.759 OFFCURVE",
"351.935 800.197 OFFCURVE",
"351.935 805.899 CURVE SMOOTH",
"351.935 839.701 OFFCURVE",
"314.811 901.1 OFFCURVE",
"261.725 901.1 CURVE SMOOTH",
"217.187 901.1 OFFCURVE",
"192.065 847.561 OFFCURVE",
"192.065 808.7 CURVE SMOOTH",
"192.065 800.567 OFFCURVE",
"196.278 794 OFFCURVE",
"203.625 794 CURVE SMOOTH"
);
}
);
userData = {
com.fontlab.hintData = {
hhints = (
{
position = 0;
width = 16;
},
{
position = 328;
width = 31;
},
{
position = 704;
width = 30;
},
{
position = 714;
width = 16;
},
{
position = 850;
width = 51;
}
);
vhints = (
{
position = 109;
width = 76;
},
{
position = 192;
width = 30;
},
{
position = 445;
width = 79;
}
);
};
com.schriftgestaltung.Glyphs.lastChange = "2019-08-31 23:16:52 +0000";
};
width = 675;
}
);
unicode = 0212;
},
{
glyphname = uni0216;
layers = (
{
components = (
{
name = U;
}
);
layerId = master01;
paths = (
{
closed = 1;
nodes = (
"355.849 781.997 OFFCURVE",
"360.902 796.764 OFFCURVE",
"367.476 806.866 CURVE SMOOTH",
"375.901 819.817 OFFCURVE",
"389.206 844.172 OFFCURVE",
"428.509 844.172 CURVE SMOOTH",
"480.838 844.172 OFFCURVE",
"491.537 820.266 OFFCURVE",
"514.14 792.203 CURVE SMOOTH",
"518.59 786.679 OFFCURVE",
"522.324 782.84 OFFCURVE",
"528.977 782.84 CURVE SMOOTH",
"540.248 782.84 OFFCURVE",
"542.001 788.878 OFFCURVE",
"542.001 795.209 CURVE SMOOTH",
"542.001 832.737 OFFCURVE",
"492.204 900.905 OFFCURVE",
"420.996 900.905 CURVE SMOOTH",
"361.254 900.905 OFFCURVE",
"327.558 841.464 OFFCURVE",
"327.558 798.318 CURVE SMOOTH",
"327.558 789.289 OFFCURVE",
"333.208 781.997 OFFCURVE",
"343.062 781.997 CURVE SMOOTH"
);
}
);
userData = {
com.fontlab.hintData = {
hhints = (
{
position = -10;
width = 40;
},
{
position = 714;
width = 16;
},
{
position = 844;
width = 57;
}
);
vhints = (
{
position = 96;
width = 83;
},
{
position = 636;
width = 46;
}
);
};
com.schriftgestaltung.Glyphs.lastChange = "2019-08-31 23:16:52 +0000";
};
width = 764;
}
);
unicode = 0216;
},
{
glyphname = uni0220;
layers = (
{
layerId = master01;
paths = (
{
closed = 1;
nodes = (
"500.441 -120 LINE",
"500.441 -104.441 LINE",
"494.67 -104.364 OFFCURVE",
"489.019 -103.859 OFFCURVE",
"483.483 -102.737 CURVE SMOOTH",
"471.165 -100.24 OFFCURVE",
"466.135 -92.333 OFFCURVE",
"464.431 -83.811 CURVE SMOOTH",
"464.499 351.708 LINE SMOOTH",
"464.499 460.077 OFFCURVE",
"380.639 510.336 OFFCURVE",
"300.85 510.336 CURVE SMOOTH",
"241.74 510.336 OFFCURVE",
"204.432 495.536 OFFCURVE",
"162.996 466.126 CURVE",
"162.996 476.233 OFFCURVE",
"163.002 486.34 OFFCURVE",
"163.002 496.446 CURVE SMOOTH",
"163.002 512 OFFCURVE",
"161.357 514 OFFCURVE",
"157 514 CURVE SMOOTH",
"156.402 514 OFFCURVE",
"154.758 513.476 OFFCURVE",
"154.064 513.299 CURVE SMOOTH",
"59.409 489.1 LINE",
"59.409 475.516 LINE",
"63.575 475.516 OFFCURVE",
"68.556 474.104 OFFCURVE",
"73.881 472.215 CURVE SMOOTH",
"86.811 467.627 OFFCURVE",
"93.228 455.532 OFFCURVE",
"93.228 437.169 CURVE SMOOTH",
"93.228 37.387 LINE SMOOTH",
"91.759 28.418 OFFCURVE",
"86.851 19.874 OFFCURVE",
"73.96 17.263 CURVE SMOOTH",
"68.422 16.141 OFFCURVE",
"62.772 15.636 OFFCURVE",
"57 15.559 CURVE",
"57 0 LINE",
"199.077 0 LINE",
"199.077 15.559 LINE",
"193.307 15.636 OFFCURVE",
"187.654 16.141 OFFCURVE",
"182.117 17.263 CURVE SMOOTH",
"169.4 19.84 OFFCURVE",
"164.45 28.188 OFFCURVE",
"162.91 37.023 CURVE SMOOTH",
"162.991 443.526 LINE",
"204.37 469.854 OFFCURVE",
"246.724 482.017 OFFCURVE",
"280.425 482.017 CURVE SMOOTH",
"346.308 482.017 OFFCURVE",
"398.704 423.043 OFFCURVE",
"398.704 351.766 CURVE SMOOTH",
"398.704 -81.77 LINE",
"398.675 -81.77 LINE",
"397.378 -91.042 OFFCURVE",
"392.574 -100.044 OFFCURVE",
"379.279 -102.737 CURVE SMOOTH",
"373.741 -103.859 OFFCURVE",
"368.089 -104.364 OFFCURVE",
"362.32 -104.441 CURVE",
"362.32 -120 LINE"
);
}
);
userData = {
com.fontlab.hintData = {
hhints = (
{
position = -120;
width = 38;
},
{
position = -120;
width = 16;
},
{
position = 0;
width = 16;
},
{
position = 476;
width = 14;
},
{
position = 482;
width = 28;
}
);
vhints = (
{
position = 93;
width = 70;
},
{
position = 399;
width = 66;
}
);
};
com.schriftgestaltung.Glyphs.lastChange = "2019-08-31 23:16:52 +0000";
};
width = 556;
}
);
unicode = 0220;
},
{
glyphname = a;
layers = (
{
layerId = master01;
paths = (
{
closed = 1;
nodes = (
"259 -10 OFFCURVE",
"313 5 OFFCURVE",
"365 38 CURVE",
"365 28 LINE SMOOTH",
"365 18 OFFCURVE",
"368 -7 OFFCURVE",
"391 -7 CURVE SMOOTH",
"418 -7 OFFCURVE",
"445 5 OFFCURVE",
"475 20 CURVE",
"468 49 LINE",
"457 46 OFFCURVE",
"444 43 OFFCURVE",
"433 41 CURVE",
"433 107 OFFCURVE",
"433 304 OFFCURVE",
"433 367 CURVE SMOOTH",
"433 419 OFFCURVE",
"391 512 OFFCURVE",
"253 512 CURVE SMOOTH",
"200 512 OFFCURVE",
"118 510 OFFCURVE",
"81 436 CURVE SMOOTH",
"79 432 OFFCURVE",
"77 428 OFFCURVE",
"77 425 CURVE SMOOTH",
"77 410 OFFCURVE",
"95 400 OFFCURVE",
"114 400 CURVE SMOOTH",
"150 400 OFFCURVE",
"165 421 OFFCURVE",
"180 442 CURVE SMOOTH",
"195 463 OFFCURVE",
"211 485 OFFCURVE",
"250 485 CURVE SMOOTH",
"313 485 OFFCURVE",
"352 455 OFFCURVE",
"370 396 CURVE SMOOTH",
"375 380 OFFCURVE",
"375 334 OFFCURVE",
"375 312 CURVE",
"250 272 OFFCURVE",
"51 203 OFFCURVE",
"51 107 CURVE SMOOTH",
"51 20 OFFCURVE",
"122 -10 OFFCURVE",
"199 -10 CURVE SMOOTH"
);
},
{
closed = 1;
nodes = (
"180 27 OFFCURVE",
"131 55 OFFCURVE",
"131 117 CURVE SMOOTH",
"131 197 OFFCURVE",
"257 245 OFFCURVE",
"365 279 CURVE",
"365 71 LINE",
"333 43 OFFCURVE",
"293 27 OFFCURVE",
"241 27 CURVE SMOOTH"
);
}
);
userData = {
com.fontlab.hintData = {
hhints = (
{
position = -10;
width = 37;
},
{
position = 279;
width = 33;
},
{
position = 485;
width = 27;
}
);
vhints = (
{
position = 51;
width = 80;
},
{
position = 365;
width = 68;
},
{
position = 375;
width = 58;
}
);
};
com.schriftgestaltung.Glyphs.lastChange = "2019-09-01 23:07:41 +0000";
};
width = 525;
}
);
unicode = 0061;
},
{
glyphname = ae;
layers = (
{
layerId = master01;
paths = (
{
closed = 1;
nodes = (
"284 -10 OFFCURVE",
"351 12 OFFCURVE",
"399 54 CURVE",
"444 -2 OFFCURVE",
"505 -10 OFFCURVE",
"570 -10 CURVE SMOOTH",
"659 -10 OFFCURVE",
"688 7 OFFCURVE",
"746 65 CURVE",
"731 85 LINE",
"676 43 OFFCURVE",
"632 31 OFFCURVE",
"587 31 CURVE SMOOTH",
"529 31 OFFCURVE",
"487 48 OFFCURVE",
"456 98 CURVE SMOOTH",
"443 119 OFFCURVE",
"442 150 OFFCURVE",
"442 196 CURVE SMOOTH",
"442 219 OFFCURVE",
"442 279 OFFCURVE",
"443 295 CURVE",
"556 329 OFFCURVE",
"653 353 OFFCURVE",
"764 382 CURVE",
"764 479 OFFCURVE",
"663 505 OFFCURVE",
"589 505 CURVE SMOOTH",
"511 505 OFFCURVE",
"463 489 OFFCURVE",
"419 437 CURVE",
"399 469 OFFCURVE",
"338 512 OFFCURVE",
"260 512 CURVE SMOOTH",
"206 512 OFFCURVE",
"129 499 OFFCURVE",
"79 432 CURVE SMOOTH",
"76 428 OFFCURVE",
"75 424 OFFCURVE",
"75 421 CURVE SMOOTH",
"75 406 OFFCURVE",
"101 396 OFFCURVE",
"120 396 CURVE SMOOTH",
"189 396 OFFCURVE",
"176 485 OFFCURVE",
"248 485 CURVE SMOOTH",
"311 485 OFFCURVE",
"376 436 OFFCURVE",
"376 396 CURVE SMOOTH",
"376 384 OFFCURVE",
"377 366 OFFCURVE",
"377 349 CURVE SMOOTH",
"377 337 OFFCURVE",
"376 324 OFFCURVE",
"376 313 CURVE",
"348 302 OFFCURVE",
"320 294 OFFCURVE",
"287 282 CURVE SMOOTH",
"228 261 OFFCURVE",
"178 243 OFFCURVE",
"126 210 CURVE SMOOTH",
"82 182 OFFCURVE",
"53 133 OFFCURVE",
"53 91 CURVE SMOOTH",
"53 9 OFFCURVE",
"137 -10 OFFCURVE",
"216 -10 CURVE SMOOTH"
);
},
{
closed = 1;
nodes = (
"181 18 OFFCURVE",
"129 49 OFFCURVE",
"129 112 CURVE SMOOTH",
"129 163 OFFCURVE",
"171 194 OFFCURVE",
"215 217 CURVE SMOOTH",
"267 244 OFFCURVE",
"308 255 OFFCURVE",
"376 276 CURVE",
"375 257 OFFCURVE",
"374 238 OFFCURVE",
"374 219 CURVE SMOOTH",
"374 159 OFFCURVE",
"378 105 OFFCURVE",
"387 76 CURVE",
"358 50 OFFCURVE",
"306 18 OFFCURVE",
"243 18 CURVE SMOOTH"
);
},
{
closed = 1;
nodes = (
"446 428 OFFCURVE",
"497 482 OFFCURVE",
"573 482 CURVE SMOOTH",
"623 482 OFFCURVE",
"673 454 OFFCURVE",
"688 400 CURVE",
"622 377 OFFCURVE",
"509 345 OFFCURVE",
"446 332 CURVE"
);
}
);
userData = {
com.fontlab.hintData = {
hhints = (
{
position = -10;
width = 41;
},
{
position = -10;
width = 28;
},
{
position = 276;
width = 37;
},
{
position = 295;
width = 37;
},
{
position = 482;
width = 23;
},
{
position = 485;
width = 27;
}
);
vhints = (
{
position = 53;
width = 76;
},
{
position = 374;
width = 67;
}
);
};
com.schriftgestaltung.Glyphs.lastChange = "2019-09-01 00:49:25 +0000";
};
width = 808;
}
);
unicode = 00E6;
},
{
glyphname = b;
layers = (
{
layerId = master01;
paths = (
{
closed = 1;
nodes = (
"427 -10 OFFCURVE",
"507 73 OFFCURVE",
"507 253 CURVE SMOOTH",
"507 452 OFFCURVE",
"398 512 OFFCURVE",
"277 512 CURVE SMOOTH",
"227 512 OFFCURVE",
"191 499 OFFCURVE",
"157 474 CURVE",
"157 730 LINE SMOOTH",
"157 742 OFFCURVE",
"156 748 OFFCURVE",
"151 748 CURVE SMOOTH",
"150 748 OFFCURVE",
"147 747 OFFCURVE",
"144 746 CURVE SMOOTH",
"57 723 LINE",
"57 709 LINE",
"62 709 OFFCURVE",
"67 708 OFFCURVE",
"72 706 CURVE SMOOTH",
"85 701 OFFCURVE",
"91 689 OFFCURVE",
"91 671 CURVE SMOOTH",
"91 34 LINE SMOOTH",
"91 25 OFFCURVE",
"85 15 OFFCURVE",
"72 13 CURVE SMOOTH",
"66 12 OFFCURVE",
"61 12 OFFCURVE",
"55 12 CURVE",
"55 -4 LINE",
"114 -4 OFFCURVE",
"132 3 OFFCURVE",
"151 22 CURVE",
"151 24 LINE",
"191 -2 OFFCURVE",
"237 -10 OFFCURVE",
"276 -10 CURVE SMOOTH"
);
},
{
closed = 1;
nodes = (
"212 12 OFFCURVE",
"177 63 OFFCURVE",
"157 121 CURVE",
"157 448 LINE",
"195 470 OFFCURVE",
"231 482 OFFCURVE",
"261 482 CURVE SMOOTH",
"389 482 OFFCURVE",
"431 375 OFFCURVE",
"431 218 CURVE SMOOTH",
"431 95 OFFCURVE",
"375 12 OFFCURVE",
"290 12 CURVE SMOOTH"
);
}
);
userData = {
com.fontlab.hintData = {
hhints = (
{
position = -10;
width = 22;
},
{
position = 482;
width = 30;
},
{
position = 709;
width = 14;
}
);
vhints = (
{
position = 91;
width = 66;
},
{
position = 431;
width = 76;
}
);
};
com.schriftgestaltung.Glyphs.lastChange = "2019-09-01 00:49:25 +0000";
};
width = 561;
}
);
unicode = 0062;
},
{
glyphname = c;
layers = (
{
layerId = master01;
paths = (
{
closed = 1;
nodes = (
"364 -10 OFFCURVE",
"416 9 OFFCURVE",
"474 66 CURVE",
"459 87 LINE",
"408 48 OFFCURVE",
"357 32 OFFCURVE",
"314 32 CURVE SMOOTH",
"182 32 OFFCURVE",
"124 161 OFFCURVE",
"124 284 CURVE SMOOTH",
"124 407 OFFCURVE",
"182 490 OFFCURVE",
"270 490 CURVE SMOOTH",
"318 490 OFFCURVE",
"337 463 OFFCURVE",
"355 438 CURVE SMOOTH",
"371 416 OFFCURVE",
"386 396 OFFCURVE",
"417 396 CURVE SMOOTH",
"436 396 OFFCURVE",
"463 407 OFFCURVE",
"463 422 CURVE SMOOTH",
"463 425 OFFCURVE",
"461 429 OFFCURVE",
"458 432 CURVE SMOOTH",
"398 492 OFFCURVE",
"334 512 OFFCURVE",
"279 512 CURVE SMOOTH",
"135 512 OFFCURVE",
"46 433 OFFCURVE",
"46 262 CURVE SMOOTH",
"46 83 OFFCURVE",
"156 -10 OFFCURVE",
"283 -10 CURVE SMOOTH"
);
}
);
userData = {
com.fontlab.hintData = {
hhints = (
{
position = -10;
width = 42;
},
{
position = 490;
width = 22;
}
);
vhints = (
{
position = 46;
width = 78;
}
);
};
com.schriftgestaltung.Glyphs.lastChange = "2019-09-01 23:08:03 +0000";
};
width = 508;
}
);
unicode = 0063;
},
{
glyphname = d;
layers = (
{
layerId = master01;
paths = (
{
closed = 1;
nodes = (
"316 -10 OFFCURVE",
"357 -2 OFFCURVE",
"389 30 CURVE",
"389 11 OFFCURVE",
"398 -7 OFFCURVE",
"417 -7 CURVE SMOOTH",
"443 -7 OFFCURVE",
"466 4 OFFCURVE",
"495 19 CURVE",
"489 43 LINE",
"477 39 OFFCURVE",
"466 37 OFFCURVE",
"455 35 CURVE",
"455 40 OFFCURVE",
"455 47 OFFCURVE",
"455 53 CURVE SMOOTH",
"455 56 OFFCURVE",
"455 59 OFFCURVE",
"455 62 CURVE SMOOTH",
"455 730 LINE SMOOTH",
"455 739 OFFCURVE",
"455 744 OFFCURVE",
"453 746 CURVE SMOOTH",
"452 747 OFFCURVE",
"451 748 OFFCURVE",
"449 748 CURVE SMOOTH",
"448 748 OFFCURVE",
"446 747 OFFCURVE",
"442 746 CURVE SMOOTH",
"356 723 LINE",
"356 709 LINE",
"360 709 OFFCURVE",
"365 708 OFFCURVE",
"370 706 CURVE SMOOTH",
"383 701 OFFCURVE",
"389 690 OFFCURVE",
"389 671 CURVE SMOOTH",
"389 469 LINE",
"348 503 OFFCURVE",
"308 512 OFFCURVE",
"264 512 CURVE SMOOTH",
"116 512 OFFCURVE",
"37 426 OFFCURVE",
"37 250 CURVE SMOOTH",
"37 51 OFFCURVE",
"146 -10 OFFCURVE",
"267 -10 CURVE SMOOTH"
);
},
{
closed = 1;
nodes = (
"155 20 OFFCURVE",
"113 126 OFFCURVE",
"113 284 CURVE SMOOTH",
"113 407 OFFCURVE",
"164 492 OFFCURVE",
"265 492 CURVE SMOOTH",
"334 492 OFFCURVE",
"376 441 OFFCURVE",
"389 378 CURVE",
"389 59 LINE",
"353 32 OFFCURVE",
"316 20 OFFCURVE",
"284 20 CURVE SMOOTH"
);
}
);
userData = {
com.fontlab.hintData = {
hhints = (
{
position = -10;
width = 30;
},
{
position = -7;
width = 21;
},
{
position = 492;
width = 21;
},
{
position = 709;
width = 14;
}
);
vhints = (
{
position = 37;
width = 76;
},
{
position = 389;
width = 66;
}
);
};
com.schriftgestaltung.Glyphs.lastChange = "2019-09-01 23:08:18 +0000";
};
width = 545;
}
);
unicode = 0064;
},
{
glyphname = eth;
layers = (
{
layerId = master01;
paths = (
{
closed = 1;
nodes = (
"388.904 -11.148 OFFCURVE",
"472.733 71.842 OFFCURVE",
"472.733 229.34 CURVE SMOOTH",
"472.733 408.059 OFFCURVE",
"369.289 515.298 OFFCURVE",
"292.54 574.335 CURVE SMOOTH",
"239.868 614.851 OFFCURVE",
"150.008 647.205 OFFCURVE",
"92 661.647 CURVE SMOOTH",
"77.625 633.153 LINE",
"117.215 622.974 OFFCURVE",
"177.756 600.736 OFFCURVE",
"233.721 560.762 CURVE SMOOTH",
"273.281 532.503 OFFCURVE",
"304.989 493.045 OFFCURVE",
"329.037 450.258 CURVE",
"304.173 458.857 OFFCURVE",
"278.103 462.795 OFFCURVE",
"252.81 462.795 CURVE SMOOTH",
"142.6 462.795 OFFCURVE",
"60.748 392.828 OFFCURVE",
"60.748 224.79 CURVE SMOOTH",
"60.748 47.297 OFFCURVE",
"158.771 -11.148 OFFCURVE",
"271.92 -11.148 CURVE SMOOTH"
);
},
{
closed = 1;
nodes = (
"157.191 18.574 OFFCURVE",
"130.176 151.364 OFFCURVE",
"130.176 249.466 CURVE SMOOTH",
"130.176 348.137 OFFCURVE",
"165.282 432.982 OFFCURVE",
"249.838 432.982 CURVE SMOOTH",
"382.12 432.982 OFFCURVE",
"397.308 292.181 OFFCURVE",
"397.308 194.079 CURVE SMOOTH",
"397.308 112.632 OFFCURVE",
"362.252 18.574 OFFCURVE",
"277.646 18.574 CURVE SMOOTH"
);
},
{
closed = 1;
nodes = (
"345.741 614.979 LINE",
"327.964 639.253 LINE",
"168.827 534.662 LINE",
"186.604 510.388 LINE"
);
}
);
userData = {
com.fontlab.hintData = {
hhints = (
{
position = -11;
width = 30;
},
{
position = 433;
width = 30;
},
{
position = 510;
width = 21;
},
{
position = 633;
width = 28;
}
);
vhints = (
{
position = 61;
width = 69;
},
{
position = 397;
width = 75;
}
);
};
com.schriftgestaltung.Glyphs.lastChange = "2019-09-01 00:49:25 +0000";
};
width = 534;
}
);
unicode = 00F0;
},
{
glyphname = dcroat;
layers = (
{
components = (
{
name = d;
}
);
layerId = master01;
paths = (
{
closed = 1;
nodes = (
"500 582 LINE",
"505 582 OFFCURVE",
"506 591 OFFCURVE",
"506 601 CURVE SMOOTH",
"506 613 OFFCURVE",
"504 626 OFFCURVE",
"500 626 CURVE",
"247 626 LINE",
"241 626 OFFCURVE",
"238 617 OFFCURVE",
"238 606 CURVE SMOOTH",
"238 595 OFFCURVE",
"241 584 OFFCURVE",
"247 582 CURVE"
);
}
);
userData = {
com.fontlab.hintData = {
hhints = (
{
position = -10;
width = 30;
},
{
position = -7;
width = 21;
},
{
position = 492;
width = 21;
},
{
position = 582;
width = 44;
},
{
position = 709;
width = 14;
}
);
vhints = (
{
position = 37;
width = 76;
},
{
position = 389;
width = 66;
}
);
};
com.schriftgestaltung.Glyphs.lastChange = "2019-09-01 00:49:25 +0000";
};
width = 545;
}
);
unicode = 0111;
},
{
glyphname = e;
layers = (
{
layerId = master01;
paths = (
{
closed = 1;
nodes = (
"372 -11 OFFCURVE",
"422 13 OFFCURVE",
"475 65 CURVE",
"460 85 LINE",
"408 46 OFFCURVE",
"357 30 OFFCURVE",
"314 30 CURVE SMOOTH",
"183 30 OFFCURVE",
"125 136 OFFCURVE",
"125 250 CURVE SMOOTH",
"125 276 OFFCURVE",
"129 298 OFFCURVE",
"133 317 CURVE",
"471 315 LINE",
"471 320 OFFCURVE",
"471 325 OFFCURVE",
"471 330 CURVE SMOOTH",
"471 426 OFFCURVE",
"406 511 OFFCURVE",
"290 511 CURVE SMOOTH",
"148 511 OFFCURVE",
"47 434 OFFCURVE",
"47 249 CURVE SMOOTH",
"47 63 OFFCURVE",
"167 -11 OFFCURVE",
"297 -11 CURVE SMOOTH"
);
},
{
closed = 1;
nodes = (
"205 345 OFFCURVE",
"166 349 OFFCURVE",
"130 353 CURVE",
"147 426 OFFCURVE",
"193 489 OFFCURVE",
"271 489 CURVE SMOOTH",
"344 489 OFFCURVE",
"396 438 OFFCURVE",
"399 348 CURVE",
"372 346 OFFCURVE",
"301 345 OFFCURVE",
"267 345 CURVE SMOOTH"
);
}
);
userData = {
com.fontlab.hintData = {
hhints = (
{
position = -11;
width = 41;
},
{
position = 317;
width = 28;
},
{
position = 489;
width = 22;
}
);
vhints = (
{
position = 47;
width = 78;
},
{
position = 399;
width = 72;
}
);
};
com.schriftgestaltung.Glyphs.lastChange = "2019-09-01 23:08:39 +0000";
};
width = 515;
}
);
unicode = 0065;
},
{
glyphname = f;
layers = (
{
layerId = master01;
paths = (
{
closed = 1;
nodes = (
"207 0 LINE",
"207 16 LINE",
"201 16 OFFCURVE",
"196 16 OFFCURVE",
"190 17 CURVE SMOOTH",
"177 19 OFFCURVE",
"171 28 OFFCURVE",
"171 37 CURVE SMOOTH",
"171 469 LINE",
"213 469 OFFCURVE",
"302 466 OFFCURVE",
"308 465 CURVE",
"312 481 LINE SMOOTH",
"313 485 OFFCURVE",
"314 489 OFFCURVE",
"314 492 CURVE SMOOTH",
"314 500 OFFCURVE",
"308 505 OFFCURVE",
"287 505 CURVE",
"162 505 LINE",
"162 572 LINE SMOOTH",
"162 675 OFFCURVE",
"219 745 OFFCURVE",
"293 745 CURVE SMOOTH",
"332 745 OFFCURVE",
"348 726 OFFCURVE",
"361 709 CURVE SMOOTH",
"373 694 OFFCURVE",
"385 679 OFFCURVE",
"411 679 CURVE SMOOTH",
"427 679 OFFCURVE",
"450 688 OFFCURVE",
"450 700 CURVE SMOOTH",
"450 703 OFFCURVE",
"448 706 OFFCURVE",
"446 709 CURVE SMOOTH",
"412 760 OFFCURVE",
"354 766 OFFCURVE",
"314 766 CURVE SMOOTH",
"190 766 OFFCURVE",
"126 714 OFFCURVE",
"106 577 CURVE SMOOTH",
"105 570 OFFCURVE",
"105 561 OFFCURVE",
"105 553 CURVE",
"105 501 LINE",
"57 501 LINE",
"49 465 LINE",
"70 468 OFFCURVE",
"86 469 OFFCURVE",
"105 469 CURVE",
"105 37 LINE SMOOTH",
"105 28 OFFCURVE",
"99 19 OFFCURVE",
"86 17 CURVE SMOOTH",
"80 16 OFFCURVE",
"75 16 OFFCURVE",
"69 16 CURVE",
"69 0 LINE"
);
}
);
userData = {
com.fontlab.hintData = {
hhints = (
{
position = 0;
width = 16;
},
{
position = 469;
width = 36;
},
{
position = 745;
width = 21;
}
);
vhints = (
{
position = 105;
width = 57;
},
{
position = 105;
width = 66;
}
);
};
com.schriftgestaltung.Glyphs.lastChange = "2019-09-01 04:25:54 +0000";
};
width = 482;
}
);
unicode = 0066;
},
{
glyphname = g;
layers = (
{
layerId = master01;
paths = (
{
closed = 1;
nodes = (
"340 -236 OFFCURVE",
"470 -178 OFFCURVE",
"470 -72 CURVE SMOOTH",
"470 11 OFFCURVE",
"404 41 OFFCURVE",
"302 46 CURVE SMOOTH",
"205 51 LINE SMOOTH",
"190 52 OFFCURVE",
"175 53 OFFCURVE",
"169 55 CURVE SMOOTH",
"159 58 OFFCURVE",
"155 63 OFFCURVE",
"155 69 CURVE SMOOTH",
"155 73 OFFCURVE",
"158 77 OFFCURVE",
"163 80 CURVE SMOOTH",
"191 97 OFFCURVE",
"223 108 OFFCURVE",
"254 118 CURVE SMOOTH",
"335 144 OFFCURVE",
"409 170 OFFCURVE",
"409 300 CURVE SMOOTH",
"409 365 OFFCURVE",
"395 412 OFFCURVE",
"370 445 CURVE",
"379 443 OFFCURVE",
"387 442 OFFCURVE",
"394 442 CURVE SMOOTH",
"413 442 OFFCURVE",
"427 448 OFFCURVE",
"437 458 CURVE SMOOTH",
"444 465 OFFCURVE",
"452 475 OFFCURVE",
"452 488 CURVE SMOOTH",
"452 498 OFFCURVE",
"445 507 OFFCURVE",
"437 507 CURVE SMOOTH",
"398 507 OFFCURVE",
"371 495 OFFCURVE",
"340 475 CURVE",
"308 500 OFFCURVE",
"267 510 OFFCURVE",
"228 510 CURVE SMOOTH",
"215 510 OFFCURVE",
"202 510 OFFCURVE",
"190 508 CURVE SMOOTH",
"110 495 OFFCURVE",
"46 441 OFFCURVE",
"46 324 CURVE SMOOTH",
"46 176 OFFCURVE",
"134 127 OFFCURVE",
"210 122 CURVE",
"204 120 OFFCURVE",
"194 117 OFFCURVE",
"183 114 CURVE SMOOTH",
"136 100 OFFCURVE",
"60 77 OFFCURVE",
"60 45 CURVE SMOOTH",
"60 26 OFFCURVE",
"89 14 OFFCURVE",
"119 8 CURVE SMOOTH",
"142 3 OFFCURVE",
"174 -1 OFFCURVE",
"212 -3 CURVE",
"141 -21 OFFCURVE",
"20 -52 OFFCURVE",
"20 -134 CURVE SMOOTH",
"20 -215 OFFCURVE",
"121 -236 OFFCURVE",
"223 -236 CURVE SMOOTH"
);
},
{
closed = 1;
nodes = (
"151 -211 OFFCURVE",
"87 -184 OFFCURVE",
"87 -122 CURVE SMOOTH",
"87 -55 OFFCURVE",
"146 -36 OFFCURVE",
"235 -8 CURVE",
"249 -8 LINE",
"334 -8 OFFCURVE",
"420 -22 OFFCURVE",
"420 -101 CURVE SMOOTH",
"420 -169 OFFCURVE",
"315 -211 OFFCURVE",
"223 -211 CURVE SMOOTH"
);
},
{
closed = 1;
nodes = (
"154 153 OFFCURVE",
"119 227 OFFCURVE",
"119 345 CURVE SMOOTH",
"119 412 OFFCURVE",
"144 481 OFFCURVE",
"215 481 CURVE SMOOTH",
"309 481 OFFCURVE",
"341 428 OFFCURVE",
"341 305 CURVE SMOOTH",
"341 222 OFFCURVE",
"325 153 OFFCURVE",
"241 153 CURVE SMOOTH"
);
}
);
userData = {
com.fontlab.hintData = {
hhints = (
{
position = -236;
width = 25;
},
{
position = 442;
width = 65;
},
{
position = 481;
width = 29;
}
);
vhints = (
{
position = 20;
width = 67;
},
{
position = 46;
width = 73;
},
{
position = 60;
width = 95;
},
{
position = 341;
width = 68;
},
{
position = 420;
width = 50;
}
);
};
com.schriftgestaltung.Glyphs.lastChange = "2019-09-01 23:09:28 +0000";
};
width = 496;
}
);
unicode = 0067;
},
{
glyphname = h;
layers = (
{
layerId = master01;
paths = (
{
closed = 1;
nodes = (
"193 0 LINE",
"193 16 LINE",
"188 16 OFFCURVE",
"182 16 OFFCURVE",
"176 17 CURVE SMOOTH",
"163 19 OFFCURVE",
"157 29 OFFCURVE",
"157 38 CURVE SMOOTH",
"157 438 LINE",
"204 469 OFFCURVE",
"243 479 OFFCURVE",
"277 479 CURVE SMOOTH",
"343 479 OFFCURVE",
"393 423 OFFCURVE",
"393 351 CURVE SMOOTH",
"393 38 LINE SMOOTH",
"393 29 OFFCURVE",
"387 19 OFFCURVE",
"374 17 CURVE SMOOTH",
"368 16 OFFCURVE",
"363 16 OFFCURVE",
"357 16 CURVE",
"357 0 LINE",
"495 0 LINE",
"495 16 LINE",
"489 16 OFFCURVE",
"484 16 OFFCURVE",
"478 17 CURVE SMOOTH",
"465 19 OFFCURVE",
"459 28 OFFCURVE",
"459 37 CURVE SMOOTH",
"459 351 LINE SMOOTH",
"459 460 OFFCURVE",
"375 510 OFFCURVE",
"295 510 CURVE SMOOTH",
"236 510 OFFCURVE",
"199 496 OFFCURVE",
"157 468 CURVE",
"157 728 LINE SMOOTH",
"157 741 OFFCURVE",
"156 746 OFFCURVE",
"151 746 CURVE SMOOTH",
"150 746 OFFCURVE",
"148 745 OFFCURVE",
"144 744 CURVE SMOOTH",
"57 721 LINE",
"57 708 LINE",
"62 708 OFFCURVE",
"67 706 OFFCURVE",
"72 704 CURVE SMOOTH",
"85 699 OFFCURVE",
"91 688 OFFCURVE",
"91 669 CURVE SMOOTH",
"91 38 LINE SMOOTH",
"91 29 OFFCURVE",
"85 19 OFFCURVE",
"72 17 CURVE SMOOTH",
"66 16 OFFCURVE",
"61 16 OFFCURVE",
"55 16 CURVE",
"55 0 LINE"
);
}
);
userData = {
com.fontlab.hintData = {
hhints = (
{
position = 0;
width = 16;
},
{
position = 479;
width = 31;
},
{
position = 708;
width = 14;
}
);
vhints = (
{
position = 91;
width = 66;
},
{
position = 393;
width = 66;
}
);
};
com.schriftgestaltung.Glyphs.lastChange = "2019-09-01 00:49:25 +0000";
};
width = 516;
}
);
unicode = 0068;
},
{
glyphname = hbar;
layers = (
{
components = (
{
name = h;
}
);
layerId = master01;
paths = (
{
closed = 1;
nodes = (
"121.333 579 OFFCURVE",
"205.667 579 OFFCURVE",
"290 579 CURVE SMOOTH",
"304 579 OFFCURVE",
"310.132 614.602 OFFCURVE",
"310.132 620.284 CURVE SMOOTH",
"310 619 LINE",
"57 619 LINE SMOOTH",
"46 619 OFFCURVE",
"37 579 OFFCURVE",
"37 579 CURVE"
);
}
);
userData = {
com.fontlab.hintData = {
hhints = (
{
position = 0;
width = 16;
},
{
position = 479;
width = 31;
},
{
position = 579;
width = 40;
},
{
position = 708;
width = 14;
}
);
vhints = (
{
position = 91;
width = 66;
},
{
position = 393;
width = 66;
}
);
};
com.schriftgestaltung.Glyphs.lastChange = "2019-09-01 00:49:25 +0000";
};
width = 516;
}
);
unicode = 0127;
},
{
glyphname = i;
layers = (
{
layerId = master01;
paths = (
{
closed = 1;
nodes = (
"196 0 LINE",
"196 16 LINE",
"190 16 OFFCURVE",
"185 16 OFFCURVE",
"179 17 CURVE SMOOTH",
"166 19 OFFCURVE",
"160 28 OFFCURVE",
"160 37 CURVE SMOOTH",
"160 492 LINE SMOOTH",
"160 504 OFFCURVE",
"159 509 OFFCURVE",
"154 509 CURVE SMOOTH",
"153 509 OFFCURVE",
"152 509 OFFCURVE",
"151 509 CURVE SMOOTH",
"58 483 LINE",
"58 469 LINE",
"63 469 OFFCURVE",
"67 469 OFFCURVE",
"73 468 CURVE SMOOTH",
"85 466 OFFCURVE",
"92 459 OFFCURVE",
"92 441 CURVE SMOOTH",
"92 37 LINE SMOOTH",
"92 28 OFFCURVE",
"86 19 OFFCURVE",
"73 17 CURVE SMOOTH",
"67 16 OFFCURVE",
"62 16 OFFCURVE",
"56 16 CURVE",
"56 0 LINE"
);
},
{
closed = 1;
nodes = (
"143 624 OFFCURVE",
"164 644 OFFCURVE",
"164 670 CURVE SMOOTH",
"164 696 OFFCURVE",
"143 716 OFFCURVE",
"117 716 CURVE SMOOTH",
"92 716 OFFCURVE",
"71 696 OFFCURVE",
"71 670 CURVE SMOOTH",
"71 644 OFFCURVE",
"92 624 OFFCURVE",
"117 624 CURVE SMOOTH"
);
}
);
userData = {
com.fontlab.hintData = {
hhints = (
{
position = 0;
width = 16;
},
{
position = 469;
width = 14;
},
{
position = 489;
width = 20;
},
{
position = 624;
width = 93;
}
);
vhints = (
{
position = 71;
width = 93;
},
{
position = 92;
width = 68;
}
);
};
com.schriftgestaltung.Glyphs.lastChange = "2019-09-01 00:49:25 +0000";
};
width = 251;
}
);
unicode = 0069;
},
{
glyphname = dotlessi;
layers = (
{
layerId = master01;
paths = (
{
closed = 1;
nodes = (
"196 0 LINE",
"196 16 LINE",
"190 16 OFFCURVE",
"185 16 OFFCURVE",
"179 17 CURVE SMOOTH",
"166 19 OFFCURVE",
"160 28 OFFCURVE",
"160 37 CURVE SMOOTH",
"160 492 LINE SMOOTH",
"160 504 OFFCURVE",
"159 509 OFFCURVE",
"154 509 CURVE SMOOTH",
"153 509 OFFCURVE",
"152 509 OFFCURVE",
"151 509 CURVE SMOOTH",
"58 483 LINE",
"58 469 LINE",
"63 469 OFFCURVE",
"67 469 OFFCURVE",
"73 468 CURVE SMOOTH",
"85 466 OFFCURVE",
"92 459 OFFCURVE",
"92 441 CURVE SMOOTH",
"92 37 LINE SMOOTH",
"92 28 OFFCURVE",
"86 19 OFFCURVE",
"73 17 CURVE SMOOTH",
"67 16 OFFCURVE",
"62 16 OFFCURVE",
"56 16 CURVE",
"56 0 LINE"
);
}
);
userData = {
com.fontlab.hintData = {
hhints = (
{
position = 0;
width = 16;
},
{
position = 469;
width = 14;
},
{
position = 489;
width = 20;
}
);
vhints = (
{
position = 92;
width = 68;
}
);
};
com.schriftgestaltung.Glyphs.lastChange = "2019-09-01 00:49:25 +0000";
};
width = 251;
}
);
unicode = 0131;
},
{
glyphname = j;
layers = (
{
layerId = master01;
paths = (
{
closed = 1;
nodes = (
"28 -154 OFFCURVE",
"89 -111 OFFCURVE",
"116 -84 CURVE SMOOTH",
"158 -42 OFFCURVE",
"170 -7 OFFCURVE",
"170 46 CURVE SMOOTH",
"170 61 OFFCURVE",
"170 76 OFFCURVE",
"170 90 CURVE SMOOTH",
"170 492 LINE SMOOTH",
"170 505 OFFCURVE",
"169 510 OFFCURVE",
"164 510 CURVE SMOOTH",
"163 510 OFFCURVE",
"158 508 OFFCURVE",
"154 507 CURVE SMOOTH",
"69 483 LINE",
"69 470 LINE",
"73 470 OFFCURVE",
"78 469 OFFCURVE",
"83 468 CURVE SMOOTH",
"95 466 OFFCURVE",
"103 459 OFFCURVE",
"103 441 CURVE SMOOTH",
"103 28 LINE SMOOTH",
"103 -40 OFFCURVE",
"100 -70 OFFCURVE",
"46 -100 CURVE SMOOTH",
"35 -106 OFFCURVE",
"25 -108 OFFCURVE",
"16 -108 CURVE SMOOTH",
"1 -108 OFFCURVE",
"-13 -103 OFFCURVE",
"-27 -96 CURVE SMOOTH",
"-41 -89 OFFCURVE",
"-55 -83 OFFCURVE",
"-70 -83 CURVE SMOOTH",
"-96 -83 OFFCURVE",
"-129 -105 OFFCURVE",
"-129 -128 CURVE SMOOTH",
"-129 -134 OFFCURVE",
"-126 -139 OFFCURVE",
"-118 -142 CURVE SMOOTH",
"-94 -151 OFFCURVE",
"-71 -154 OFFCURVE",
"-49 -154 CURVE SMOOTH"
);
},
{
closed = 1;
nodes = (
"153 621 OFFCURVE",
"174 642 OFFCURVE",
"174 667 CURVE SMOOTH",
"174 693 OFFCURVE",
"153 714 OFFCURVE",
"128 714 CURVE SMOOTH",
"102 714 OFFCURVE",
"81 693 OFFCURVE",
"81 667 CURVE SMOOTH",
"81 642 OFFCURVE",
"102 621 OFFCURVE",
"128 621 CURVE SMOOTH"
);
}
);
userData = {
com.fontlab.hintData = {
hhints = (
{
position = -154;
width = 46;
},
{
position = 470;
width = 14;
},
{
position = 490;
width = 20;
},
{
position = 621;
width = 93;
}
);
vhints = (
{
position = 81;
width = 93;
},
{
position = 103;
width = 68;
}
);
};
com.schriftgestaltung.Glyphs.lastChange = "2019-09-01 23:03:00 +0000";
};
width = 248;
}
);
unicode = 006A;
},
{
glyphname = uni0237;
layers = (
{
layerId = master01;
paths = (
{
closed = 1;
nodes = (
"28 -154 OFFCURVE",
"89 -111 OFFCURVE",
"116 -84 CURVE SMOOTH",
"158 -42 OFFCURVE",
"170 -7 OFFCURVE",
"170 46 CURVE SMOOTH",
"170 61 OFFCURVE",
"170 76 OFFCURVE",
"170 90 CURVE SMOOTH",
"170 489 LINE SMOOTH",
"170 502 OFFCURVE",
"169 507 OFFCURVE",
"164 507 CURVE SMOOTH",
"163 507 OFFCURVE",
"158 505 OFFCURVE",
"154 504 CURVE SMOOTH",
"69 480 LINE",
"69 467 LINE",
"73 467 OFFCURVE",
"78 466 OFFCURVE",
"83 465 CURVE SMOOTH",
"95 463 OFFCURVE",
"103 456 OFFCURVE",
"103 438 CURVE SMOOTH",
"103 28 LINE SMOOTH",
"103 -40 OFFCURVE",
"100 -70 OFFCURVE",
"46 -100 CURVE SMOOTH",
"35 -106 OFFCURVE",
"25 -108 OFFCURVE",
"16 -108 CURVE SMOOTH",
"-15 -108 OFFCURVE",
"-39 -83 OFFCURVE",
"-70 -83 CURVE SMOOTH",
"-96 -83 OFFCURVE",
"-129 -105 OFFCURVE",
"-129 -128 CURVE SMOOTH",
"-129 -134 OFFCURVE",
"-126 -139 OFFCURVE",
"-118 -142 CURVE SMOOTH",
"-94 -151 OFFCURVE",
"-71 -154 OFFCURVE",
"-49 -154 CURVE SMOOTH"
);
}
);
userData = {
com.fontlab.hintData = {
hhints = (
{
position = -154;
width = 46;
},
{
position = 467;
width = 14;
},
{
position = 487;
width = 20;
}
);
vhints = (
{
position = 103;
width = 68;
}
);
};
com.schriftgestaltung.Glyphs.lastChange = "2019-09-01 00:49:25 +0000";
};
width = 248;
}
);
unicode = 0237;
},
{
glyphname = k;
layers = (
{
layerId = master01;
paths = (
{
closed = 1;
nodes = (
"193 0 LINE",
"193 16 LINE",
"187 16 OFFCURVE",
"182 16 OFFCURVE",
"176 17 CURVE SMOOTH",
"164 19 OFFCURVE",
"157 28 OFFCURVE",
"157 37 CURVE SMOOTH",
"157 292 LINE",
"162 296 OFFCURVE",
"167 297 OFFCURVE",
"173 297 CURVE SMOOTH",
"195 297 OFFCURVE",
"207 282 OFFCURVE",
"224 261 CURVE SMOOTH",
"231 253 OFFCURVE",
"269 208 OFFCURVE",
"278 195 CURVE SMOOTH",
"287 183 OFFCURVE",
"296 172 OFFCURVE",
"305 161 CURVE SMOOTH",
"356 99 OFFCURVE",
"390 52 OFFCURVE",
"390 28 CURVE SMOOTH",
"390 23 OFFCURVE",
"387 19 OFFCURVE",
"379 17 CURVE SMOOTH",
"374 16 OFFCURVE",
"372 16 OFFCURVE",
"366 16 CURVE",
"366 0 LINE",
"506 0 LINE",
"506 16 LINE",
"502 16 OFFCURVE",
"499 16 OFFCURVE",
"494 18 CURVE SMOOTH",
"483 22 OFFCURVE",
"478 26 OFFCURVE",
"462 46 CURVE SMOOTH",
"458 51 OFFCURVE",
"452 59 OFFCURVE",
"445 69 CURVE SMOOTH",
"428 94 OFFCURVE",
"399 136 OFFCURVE",
"348 203 CURVE SMOOTH",
"328 230 OFFCURVE",
"311 252 OFFCURVE",
"297 269 CURVE SMOOTH",
"265 310 OFFCURVE",
"251 328 OFFCURVE",
"251 338 CURVE",
"297 373 OFFCURVE",
"329 402 OFFCURVE",
"355 426 CURVE SMOOTH",
"384 452 OFFCURVE",
"406 471 OFFCURVE",
"428 482 CURVE SMOOTH",
"440 488 OFFCURVE",
"456 491 OFFCURVE",
"475 491 CURVE",
"475 507 LINE",
"336 507 LINE",
"336 491 LINE",
"342 491 OFFCURVE",
"347 491 OFFCURVE",
"353 490 CURVE SMOOTH",
"357 489 OFFCURVE",
"360 487 OFFCURVE",
"360 483 CURVE SMOOTH",
"360 471 OFFCURVE",
"335 445 OFFCURVE",
"282 402 CURVE SMOOTH",
"271 393 OFFCURVE",
"260 384 OFFCURVE",
"252 377 CURVE SMOOTH",
"206 337 OFFCURVE",
"190 326 OFFCURVE",
"178 326 CURVE SMOOTH",
"169 326 OFFCURVE",
"157 329 OFFCURVE",
"157 350 CURVE SMOOTH",
"157 728 LINE SMOOTH",
"157 739 OFFCURVE",
"153 744 OFFCURVE",
"146 744 CURVE SMOOTH",
"143 744 OFFCURVE",
"140 743 OFFCURVE",
"137 742 CURVE SMOOTH",
"57 721 LINE",
"57 708 LINE",
"62 708 OFFCURVE",
"67 708 OFFCURVE",
"72 706 CURVE SMOOTH",
"85 701 OFFCURVE",
"91 688 OFFCURVE",
"91 669 CURVE SMOOTH",
"91 38 LINE SMOOTH",
"91 28 OFFCURVE",
"85 19 OFFCURVE",
"72 17 CURVE SMOOTH",
"66 16 OFFCURVE",
"61 16 OFFCURVE",
"55 16 CURVE",
"55 0 LINE"
);
}
);
userData = {
com.fontlab.hintData = {
hhints = (
{
position = 0;
width = 16;
},
{
position = 297;
width = 29;
},
{
position = 491;
width = 16;
},
{
position = 708;
width = 13;
}
);
vhints = (
{
position = 91;
width = 66;
}
);
};
com.schriftgestaltung.Glyphs.lastChange = "2019-09-01 23:13:59 +0000";
};
width = 533;
}
);
unicode = 006B;
},
{
glyphname = kgreenlandic;
layers = (
{
layerId = master01;
paths = (
{
closed = 1;
nodes = (
"587 0 LINE",
"587 16 LINE",
"579 16 OFFCURVE",
"567 16 OFFCURVE",
"558 18 CURVE SMOOTH",
"548 20 OFFCURVE",
"539 23 OFFCURVE",
"531 32 CURVE SMOOTH",
"510 55 OFFCURVE",
"393 186 OFFCURVE",
"295 297 CURVE",
"475 466 LINE SMOOTH",
"487 477 OFFCURVE",
"498 486 OFFCURVE",
"513 489 CURVE SMOOTH",
"522 491 OFFCURVE",
"530 491 OFFCURVE",
"538 491 CURVE",
"538 507 LINE",
"371 507 LINE",
"371 491 LINE",
"380 491 OFFCURVE",
"388 490 OFFCURVE",
"395 489 CURVE SMOOTH",
"405 488 OFFCURVE",
"415 486 OFFCURVE",
"415 478 CURVE SMOOTH",
"415 472 OFFCURVE",
"408 463 OFFCURVE",
"395 451 CURVE SMOOTH",
"235 306 LINE SMOOTH",
"224 296 OFFCURVE",
"198 272 OFFCURVE",
"194 268 CURVE",
"413 54 LINE",
"412 54 LINE",
"422 44 OFFCURVE",
"426 36 OFFCURVE",
"426 31 CURVE SMOOTH",
"426 23 OFFCURVE",
"417 19 OFFCURVE",
"405 17 CURVE SMOOTH",
"398 16 OFFCURVE",
"392 16 OFFCURVE",
"384 16 CURVE",
"384 0 LINE"
);
},
{
closed = 1;
nodes = (
"244 0 LINE",
"244 16 LINE",
"236 16 OFFCURVE",
"228 16 OFFCURVE",
"220 18 CURVE SMOOTH",
"201 23 OFFCURVE",
"192 35 OFFCURVE",
"192 49 CURVE",
"188 288 LINE SMOOTH",
"187 355 OFFCURVE",
"192 460 OFFCURVE",
"192 460 CURVE SMOOTH",
"192 473 OFFCURVE",
"201 484 OFFCURVE",
"220 489 CURVE SMOOTH",
"228 491 OFFCURVE",
"236 491 OFFCURVE",
"244 491 CURVE",
"244 507 LINE",
"180 507 OFFCURVE",
"66 507 OFFCURVE",
"54 507 CURVE",
"54 491 LINE",
"62 491 OFFCURVE",
"70 491 OFFCURVE",
"78 489 CURVE SMOOTH",
"97 484 OFFCURVE",
"106 472 OFFCURVE",
"106 459 CURVE SMOOTH",
"106 366 OFFCURVE",
"109 343 OFFCURVE",
"109 290 CURVE SMOOTH",
"109 212 OFFCURVE",
"106 167 OFFCURVE",
"106 49 CURVE SMOOTH",
"106 35 OFFCURVE",
"97 20 OFFCURVE",
"78 18 CURVE SMOOTH",
"70 17 OFFCURVE",
"62 16 OFFCURVE",
"54 16 CURVE",
"54 0 LINE"
);
}
);
userData = {
com.fontlab.hintData = {
hhints = (
{
position = 0;
width = 11;
},
{
position = 491;
width = 16;
}
);
vhints = (
{
position = 109;
width = 79;
}
);
};
com.schriftgestaltung.Glyphs.lastChange = "2019-09-01 00:49:25 +0000";
};
width = 660;
}
);
unicode = 0138;
},
{
glyphname = l;
layers = (
{
layerId = master01;
paths = (
{
closed = 1;
nodes = (
"190 0 LINE",
"190 16 LINE",
"184 16 OFFCURVE",
"179 16 OFFCURVE",
"173 17 CURVE SMOOTH",
"160 19 OFFCURVE",
"154 28 OFFCURVE",
"154 37 CURVE SMOOTH",
"154 752 LINE SMOOTH",
"154 764 OFFCURVE",
"153 769 OFFCURVE",
"148 769 CURVE SMOOTH",
"147 769 OFFCURVE",
"146 769 OFFCURVE",
"145 769 CURVE SMOOTH",
"54 745 LINE",
"54 731 LINE",
"59 731 OFFCURVE",
"64 730 OFFCURVE",
"69 728 CURVE SMOOTH",
"82 723 OFFCURVE",
"88 711 OFFCURVE",
"88 693 CURVE SMOOTH",
"88 37 LINE SMOOTH",
"88 28 OFFCURVE",
"82 19 OFFCURVE",
"69 17 CURVE SMOOTH",
"63 16 OFFCURVE",
"58 16 OFFCURVE",
"52 16 CURVE",
"52 0 LINE"
);
}
);
userData = {
com.fontlab.hintData = {
hhints = (
{
position = 0;
width = 16;
},
{
position = 731;
width = 14;
},
{
position = 749;
width = 20;
}
);
vhints = (
{
position = 88;
width = 66;
}
);
};
com.schriftgestaltung.Glyphs.lastChange = "2019-09-01 00:49:25 +0000";
};
width = 241;
}
);
unicode = 006C;
},
{
glyphname = lslash;
layers = (
{
components = (
{
name = l;
}
);
layerId = master01;
paths = (
{
closed = 1;
nodes = (
"226 467 LINE",
"226 516 LINE",
"20 356 LINE",
"20 307 LINE"
);
}
);
userData = {
com.fontlab.hintData = {
hhints = (
{
position = 0;
width = 16;
},
{
position = 731;
width = 14;
},
{
position = 749;
width = 20;
}
);
vhints = (
{
position = 20;
width = 206;
},
{
position = 88;
width = 66;
}
);
};
com.schriftgestaltung.Glyphs.lastChange = "2019-09-01 00:49:25 +0000";
};
width = 241;
}
);
unicode = 0142;
},
{
glyphname = m;
layers = (
{
layerId = master01;
paths = (
{
closed = 1;
nodes = (
"199 0 LINE",
"199 16 LINE",
"193 16 OFFCURVE",
"188 16 OFFCURVE",
"182 17 CURVE SMOOTH",
"169 19 OFFCURVE",
"163 28 OFFCURVE",
"163 37 CURVE SMOOTH",
"163 439 LINE",
"202 468 OFFCURVE",
"239 482 OFFCURVE",
"280 482 CURVE SMOOTH",
"346 482 OFFCURVE",
"399 423 OFFCURVE",
"399 352 CURVE SMOOTH",
"399 37 LINE SMOOTH",
"399 28 OFFCURVE",
"392 20 OFFCURVE",
"379 17 CURVE SMOOTH",
"374 16 OFFCURVE",
"368 16 OFFCURVE",
"362 16 CURVE",
"362 0 LINE",
"500 0 LINE",
"500 16 LINE",
"495 16 OFFCURVE",
"489 16 OFFCURVE",
"483 17 CURVE SMOOTH",
"471 19 OFFCURVE",
"464 28 OFFCURVE",
"464 37 CURVE SMOOTH",
"464 384 LINE SMOOTH",
"464 390 OFFCURVE",
"464 398 OFFCURVE",
"466 402 CURVE SMOOTH",
"501 473 OFFCURVE",
"549 481 OFFCURVE",
"587 481 CURVE SMOOTH",
"658 481 OFFCURVE",
"699 426 OFFCURVE",
"699 345 CURVE SMOOTH",
"699 37 LINE SMOOTH",
"699 28 OFFCURVE",
"693 20 OFFCURVE",
"680 17 CURVE SMOOTH",
"675 16 OFFCURVE",
"669 16 OFFCURVE",
"663 16 CURVE",
"663 0 LINE",
"801 0 LINE",
"801 16 LINE",
"796 16 OFFCURVE",
"790 16 OFFCURVE",
"784 17 CURVE SMOOTH",
"772 19 OFFCURVE",
"765 28 OFFCURVE",
"765 37 CURVE SMOOTH",
"765 349 LINE SMOOTH",
"765 457 OFFCURVE",
"681 508 OFFCURVE",
"602 508 CURVE SMOOTH",
"537 508 OFFCURVE",
"489 491 OFFCURVE",
"449 425 CURVE",
"417 487 OFFCURVE",
"360 510 OFFCURVE",
"301 510 CURVE SMOOTH",
"242 510 OFFCURVE",
"204 493 OFFCURVE",
"163 461 CURVE",
"163 473 OFFCURVE",
"163 485 OFFCURVE",
"163 497 CURVE SMOOTH",
"163 508 OFFCURVE",
"162 514 OFFCURVE",
"157 514 CURVE SMOOTH",
"156 514 OFFCURVE",
"155 514 OFFCURVE",
"154 514 CURVE SMOOTH",
"59 489 LINE",
"59 476 LINE",
"64 476 OFFCURVE",
"69 475 OFFCURVE",
"74 473 CURVE SMOOTH",
"87 468 OFFCURVE",
"93 456 OFFCURVE",
"93 438 CURVE SMOOTH",
"93 37 LINE SMOOTH",
"93 28 OFFCURVE",
"87 19 OFFCURVE",
"74 17 CURVE SMOOTH",
"68 16 OFFCURVE",
"63 16 OFFCURVE",
"57 16 CURVE",
"57 0 LINE"
);
}
);
userData = {
com.fontlab.hintData = {
hhints = (
{
position = 0;
width = 16;
},
{
position = 476;
width = 14;
},
{
position = 482;
width = 28;
}
);
vhints = (
{
position = 93;
width = 70;
},
{
position = 399;
width = 66;
},
{
position = 699;
width = 66;
}
);
};
com.schriftgestaltung.Glyphs.lastChange = "2019-09-01 00:49:25 +0000";
};
width = 857;
}
);
unicode = 006D;
},
{
glyphname = n;
layers = (
{
layerId = master01;
paths = (
{
closed = 1;
nodes = (
"199 0 LINE",
"199 16 LINE",
"193 16 OFFCURVE",
"188 16 OFFCURVE",
"182 17 CURVE SMOOTH",
"169 19 OFFCURVE",
"163 28 OFFCURVE",
"163 37 CURVE SMOOTH",
"163 444 LINE",
"204 470 OFFCURVE",
"247 482 OFFCURVE",
"280 482 CURVE SMOOTH",
"346 482 OFFCURVE",
"399 423 OFFCURVE",
"399 352 CURVE SMOOTH",
"399 38 LINE SMOOTH",
"399 28 OFFCURVE",
"393 20 OFFCURVE",
"379 17 CURVE SMOOTH",
"374 16 OFFCURVE",
"368 16 OFFCURVE",
"362 16 CURVE",
"362 0 LINE",
"500 0 LINE",
"500 16 LINE",
"495 16 OFFCURVE",
"489 16 OFFCURVE",
"483 17 CURVE SMOOTH",
"471 19 OFFCURVE",
"464 28 OFFCURVE",
"464 36 CURVE SMOOTH",
"464 352 LINE SMOOTH",
"464 460 OFFCURVE",
"381 510 OFFCURVE",
"301 510 CURVE SMOOTH",
"242 510 OFFCURVE",
"204 496 OFFCURVE",
"163 466 CURVE",
"163 476 OFFCURVE",
"163 486 OFFCURVE",
"163 496 CURVE SMOOTH",
"163 512 OFFCURVE",
"161 514 OFFCURVE",
"157 514 CURVE SMOOTH",
"156 514 OFFCURVE",
"150 512 OFFCURVE",
"146 511 CURVE SMOOTH",
"59 489 LINE",
"59 476 LINE",
"64 476 OFFCURVE",
"69 474 OFFCURVE",
"74 472 CURVE SMOOTH",
"87 467 OFFCURVE",
"93 456 OFFCURVE",
"93 437 CURVE SMOOTH",
"93 37 LINE SMOOTH",
"93 28 OFFCURVE",
"87 19 OFFCURVE",
"74 17 CURVE SMOOTH",
"68 16 OFFCURVE",
"63 16 OFFCURVE",
"57 16 CURVE",
"57 0 LINE"
);
}
);
userData = {
com.fontlab.hintData = {
hhints = (
{
position = 0;
width = 38;
},
{
position = 0;
width = 16;
},
{
position = 476;
width = 14;
},
{
position = 482;
width = 28;
}
);
vhints = (
{
position = 93;
width = 70;
},
{
position = 399;
width = 66;
}
);
};
com.schriftgestaltung.Glyphs.lastChange = "2019-09-01 00:49:25 +0000";
};
width = 556;
}
);
unicode = 006E;
},
{
glyphname = o;
layers = (
{
layerId = master01;
paths = (
{
closed = 1;
nodes = (
"402 -10 OFFCURVE",
"487 81 OFFCURVE",
"487 254 CURVE SMOOTH",
"487 442 OFFCURVE",
"363 511 OFFCURVE",
"252 511 CURVE SMOOTH",
"131 511 OFFCURVE",
"41 434 OFFCURVE",
"41 249 CURVE SMOOTH",
"41 54 OFFCURVE",
"149 -10 OFFCURVE",
"273 -10 CURVE SMOOTH"
);
},
{
closed = 1;
nodes = (
"147 20 OFFCURVE",
"117 167 OFFCURVE",
"117 275 CURVE SMOOTH",
"117 383 OFFCURVE",
"156 481 OFFCURVE",
"249 481 CURVE SMOOTH",
"394 481 OFFCURVE",
"411 323 OFFCURVE",
"411 215 CURVE SMOOTH",
"411 126 OFFCURVE",
"372 20 OFFCURVE",
"279 20 CURVE SMOOTH"
);
}
);
userData = {
com.fontlab.hintData = {
hhints = (
{
position = -10;
width = 30;
},
{
position = 481;
width = 29;
}
);
vhints = (
{
position = 41;
width = 76;
},
{
position = 411;
width = 76;
}
);
};
com.schriftgestaltung.Glyphs.lastChange = "2019-09-01 00:49:25 +0000";
};
width = 534;
}
);
unicode = 006F;
},
{
glyphname = oslash;
layers = (
{
layerId = master01;
paths = (
{
closed = 1;
nodes = (
"408.555 -10.273 OFFCURVE",
"487.081 87.925 OFFCURVE",
"487.081 254 CURVE SMOOTH",
"487.081 319.566 OFFCURVE",
"475.623 369.85 OFFCURVE",
"455.723 407.781 CURVE",
"472.332 422.971 OFFCURVE",
"488.866 438.079 OFFCURVE",
"505.199 452.986 CURVE SMOOTH",
"508.829 455.518 OFFCURVE",
"509.929 461.23 OFFCURVE",
"509.929 464.317 CURVE SMOOTH",
"509.929 469.089 OFFCURVE",
"490.087 479.718 OFFCURVE",
"485.729 479.718 CURVE SMOOTH",
"482.429 479.718 OFFCURVE",
"478.029 478.617 OFFCURVE",
"473.629 477.518 CURVE SMOOTH",
"460.036 463.963 OFFCURVE",
"447.253 451.235 OFFCURVE",
"435.165 439.222 CURVE",
"392.752 491.66 OFFCURVE",
"328.324 510.544 OFFCURVE",
"257 510.544 CURVE SMOOTH",
"131.89 510.544 OFFCURVE",
"40.942 413.657 OFFCURVE",
"40.942 249 CURVE SMOOTH",
"40.942 183.779 OFFCURVE",
"52.074 133.526 OFFCURVE",
"71.56 95.414 CURVE",
"51.485 77.075 OFFCURVE",
"29.598 57.07 OFFCURVE",
"5.492 35.004 CURVE SMOOTH",
"5.492 29.87 OFFCURVE",
"19.084 23.938 OFFCURVE",
"30.329 23.938 CURVE SMOOTH",
"35.263 23.938 OFFCURVE",
"39.745 24.934 OFFCURVE",
"42.429 27.617 CURVE",
"42.429 27.617 OFFCURVE",
"59.103 43.037 OFFCURVE",
"87.535 69.286 CURVE",
"130.212 10.569 OFFCURVE",
"198.274 -10.273 OFFCURVE",
"275 -10.273 CURVE SMOOTH"
);
},
{
closed = 1;
nodes = (
"199.479 20.191 OFFCURVE",
"157.933 55.291 OFFCURVE",
"137 114.926 CURVE",
"204.891 177.536 OFFCURVE",
"301.525 266.521 OFFCURVE",
"400.437 357.164 CURVE",
"408.834 317.31 OFFCURVE",
"410.789 269.254 OFFCURVE",
"410.789 215.252 CURVE SMOOTH",
"410.789 125.749 OFFCURVE",
"365.266 20.191 OFFCURVE",
"279.292 20.191 CURVE SMOOTH"
);
},
{
closed = 1;
nodes = (
"119.723 186.122 OFFCURVE",
"117.237 232.788 OFFCURVE",
"117.237 285.018 CURVE SMOOTH",
"117.237 373.447 OFFCURVE",
"155.815 480.079 OFFCURVE",
"248.734 480.079 CURVE SMOOTH",
"327.769 480.079 OFFCURVE",
"368.766 448.442 OFFCURVE",
"389.725 394.207 CURVE",
"287.016 292.844 OFFCURVE",
"236.631 246.224 OFFCURVE",
"128.101 147.058 CURVE"
);
}
);
userData = {
com.fontlab.hintData = {
hhints = (
{
position = -10;
width = 30;
},
{
position = 480;
width = 30;
}
);
vhints = (
{
position = 41;
width = 76;
},
{
position = 411;
width = 76;
}
);
};
com.schriftgestaltung.Glyphs.lastChange = "2019-09-01 00:49:25 +0000";
};
width = 534;
}
);
unicode = 00F8;
},
{
glyphname = oe;
layers = (
{
layerId = master01;
paths = (
{
closed = 1;
nodes = (
"402 -10 OFFCURVE",
"487 81 OFFCURVE",
"487 254 CURVE SMOOTH",
"487 442 OFFCURVE",
"363 511 OFFCURVE",
"252 511 CURVE SMOOTH",
"131 511 OFFCURVE",
"41 434 OFFCURVE",
"41 249 CURVE SMOOTH",
"41 54 OFFCURVE",
"149 -10 OFFCURVE",
"273 -10 CURVE SMOOTH"
);
},
{
closed = 1;
nodes = (
"147 20 OFFCURVE",
"117 167 OFFCURVE",
"117 275 CURVE SMOOTH",
"117 383 OFFCURVE",
"156 481 OFFCURVE",
"249 481 CURVE SMOOTH",
"394 481 OFFCURVE",
"411 323 OFFCURVE",
"411 215 CURVE SMOOTH",
"411 126 OFFCURVE",
"372 20 OFFCURVE",
"279 20 CURVE SMOOTH"
);
},
{
closed = 1;
nodes = (
"737 -11 OFFCURVE",
"787 13 OFFCURVE",
"840 65 CURVE",
"825 85 LINE",
"773 46 OFFCURVE",
"722 30 OFFCURVE",
"679 30 CURVE SMOOTH",
"548 30 OFFCURVE",
"490 136 OFFCURVE",
"490 250 CURVE SMOOTH",
"490 276 OFFCURVE",
"494 298 OFFCURVE",
"498 317 CURVE",
"836 315 LINE",
"836 330 LINE",
"836 426 OFFCURVE",
"771 511 OFFCURVE",
"655 511 CURVE SMOOTH",
"513 511 OFFCURVE",
"412 434 OFFCURVE",
"412 249 CURVE SMOOTH",
"412 63 OFFCURVE",
"532 -11 OFFCURVE",
"662 -11 CURVE SMOOTH"
);
},
{
closed = 1;
nodes = (
"570 345 OFFCURVE",
"531 349 OFFCURVE",
"495 353 CURVE",
"512 426 OFFCURVE",
"558 489 OFFCURVE",
"636 489 CURVE SMOOTH",
"709 489 OFFCURVE",
"762 438 OFFCURVE",
"764 348 CURVE",
"737 346 OFFCURVE",
"666 345 OFFCURVE",
"632 345 CURVE SMOOTH"
);
}
);
userData = {
com.fontlab.hintData = {
hhints = (
{
position = -11;
width = 41;
},
{
position = -10;
width = 30;
},
{
position = 317;
width = 28;
},
{
position = 481;
width = 29;
},
{
position = 489;
width = 22;
}
);
vhints = (
{
position = 41;
width = 76;
},
{
position = 411;
width = 79;
},
{
position = 764;
width = 72;
}
);
};
com.schriftgestaltung.Glyphs.lastChange = "2019-09-01 00:49:25 +0000";
};
width = 872;
}
);
unicode = 0153;
},
{
glyphname = p;
layers = (
{
layerId = master01;
paths = (
{
closed = 1;
nodes = (
"188 -232 LINE",
"188 -216 LINE",
"182 -216 OFFCURVE",
"177 -216 OFFCURVE",
"171 -215 CURVE SMOOTH",
"158 -213 OFFCURVE",
"152 -204 OFFCURVE",
"152 -195 CURVE SMOOTH",
"152 23 LINE",
"194 -4 OFFCURVE",
"238 -13 OFFCURVE",
"275 -13 CURVE SMOOTH",
"423 -13 OFFCURVE",
"502 73 OFFCURVE",
"502 251 CURVE SMOOTH",
"502 449 OFFCURVE",
"393 509 OFFCURVE",
"272 509 CURVE SMOOTH",
"222 509 OFFCURVE",
"186 496 OFFCURVE",
"152 471 CURVE",
"152 479 OFFCURVE",
"152 488 OFFCURVE",
"152 496 CURVE SMOOTH",
"152 508 OFFCURVE",
"151 513 OFFCURVE",
"146 513 CURVE SMOOTH",
"145 513 OFFCURVE",
"144 513 OFFCURVE",
"143 513 CURVE SMOOTH",
"52 489 LINE",
"52 475 LINE",
"57 475 OFFCURVE",
"62 474 OFFCURVE",
"67 472 CURVE SMOOTH",
"80 467 OFFCURVE",
"86 455 OFFCURVE",
"86 437 CURVE SMOOTH",
"86 -195 LINE SMOOTH",
"86 -204 OFFCURVE",
"80 -213 OFFCURVE",
"67 -215 CURVE SMOOTH",
"61 -216 OFFCURVE",
"56 -216 OFFCURVE",
"50 -216 CURVE",
"50 -232 LINE"
);
},
{
closed = 1;
nodes = (
"207 9 OFFCURVE",
"172 60 OFFCURVE",
"152 118 CURVE",
"152 446 LINE",
"191 468 OFFCURVE",
"227 479 OFFCURVE",
"257 479 CURVE SMOOTH",
"384 479 OFFCURVE",
"426 372 OFFCURVE",
"426 215 CURVE SMOOTH",
"426 92 OFFCURVE",
"370 9 OFFCURVE",
"285 9 CURVE SMOOTH"
);
}
);
userData = {
com.fontlab.hintData = {
hhints = (
{
position = -232;
width = 16;
},
{
position = -13;
width = 22;
},
{
position = 475;
width = 14;
},
{
position = 479;
width = 30;
}
);
vhints = (
{
position = 86;
width = 66;
},
{
position = 426;
width = 76;
}
);
};
com.schriftgestaltung.Glyphs.lastChange = "2019-09-01 00:49:25 +0000";
};
width = 544;
}
);
unicode = 0070;
},
{
glyphname = thorn;
layers = (
{
layerId = master01;
paths = (
{
closed = 1;
nodes = (
"173 -232 LINE",
"173 -216 LINE",
"167 -216 OFFCURVE",
"162 -216 OFFCURVE",
"156 -215 CURVE SMOOTH",
"143 -213 OFFCURVE",
"137 -204 OFFCURVE",
"137 -195 CURVE SMOOTH",
"137 23 LINE",
"179 -4 OFFCURVE",
"223 -13 OFFCURVE",
"260 -13 CURVE SMOOTH",
"408 -13 OFFCURVE",
"487 73 OFFCURVE",
"487 251 CURVE SMOOTH",
"487 449 OFFCURVE",
"378 509 OFFCURVE",
"257 509 CURVE SMOOTH",
"207 509 OFFCURVE",
"171 496 OFFCURVE",
"137 471 CURVE",
"137 479 OFFCURVE",
"137 747 OFFCURVE",
"137 755 CURVE SMOOTH",
"137 767 OFFCURVE",
"136 772 OFFCURVE",
"131 772 CURVE SMOOTH",
"130 772 OFFCURVE",
"129 772 OFFCURVE",
"128 772 CURVE SMOOTH",
"37 748 LINE",
"37 734 LINE",
"42 734 OFFCURVE",
"47 733 OFFCURVE",
"52 731 CURVE SMOOTH",
"65 726 OFFCURVE",
"71 714 OFFCURVE",
"71 696 CURVE SMOOTH",
"71 -195 LINE SMOOTH",
"71 -204 OFFCURVE",
"65 -213 OFFCURVE",
"52 -215 CURVE SMOOTH",
"46 -216 OFFCURVE",
"41 -216 OFFCURVE",
"35 -216 CURVE",
"35 -232 LINE"
);
},
{
closed = 1;
nodes = (
"192 9 OFFCURVE",
"157 60 OFFCURVE",
"137 118 CURVE",
"137 446 LINE",
"176 468 OFFCURVE",
"212 479 OFFCURVE",
"242 479 CURVE SMOOTH",
"369 479 OFFCURVE",
"411 372 OFFCURVE",
"411 215 CURVE SMOOTH",
"411 92 OFFCURVE",
"355 9 OFFCURVE",
"270 9 CURVE SMOOTH"
);
}
);
userData = {
com.fontlab.hintData = {
hhints = (
{
position = -232;
width = 16;
},
{
position = -13;
width = 22;
},
{
position = 479;
width = 30;
},
{
position = 734;
width = 14;
}
);
vhints = (
{
position = 71;
width = 66;
},
{
position = 411;
width = 76;
}
);
};
com.schriftgestaltung.Glyphs.lastChange = "2019-09-01 00:49:25 +0000";
};
width = 526;
}
);
unicode = 00FE;
},
{
glyphname = q;
layers = (
{
layerId = master01;
paths = (
{
closed = 1;
nodes = (
"518 -232 LINE",
"518 -216 LINE",
"512 -216 OFFCURVE",
"507 -216 OFFCURVE",
"501 -215 CURVE SMOOTH",
"488 -213 OFFCURVE",
"482 -204 OFFCURVE",
"482 -195 CURVE SMOOTH",
"482 492 LINE SMOOTH",
"482 504 OFFCURVE",
"480 510 OFFCURVE",
"476 510 CURVE SMOOTH",
"475 510 OFFCURVE",
"474 510 OFFCURVE",
"473 509 CURVE SMOOTH",
"410 477 LINE",
"369 501 OFFCURVE",
"326 509 OFFCURVE",
"289 509 CURVE SMOOTH",
"272 509 OFFCURVE",
"257 507 OFFCURVE",
"244 505 CURVE SMOOTH",
"132 488 OFFCURVE",
"55 419 OFFCURVE",
"55 255 CURVE SMOOTH",
"55 81 OFFCURVE",
"163 -13 OFFCURVE",
"292 -13 CURVE SMOOTH",
"339 -13 OFFCURVE",
"380 0 OFFCURVE",
"416 18 CURVE",
"416 -195 LINE SMOOTH",
"416 -204 OFFCURVE",
"410 -213 OFFCURVE",
"397 -215 CURVE SMOOTH",
"391 -216 OFFCURVE",
"386 -216 OFFCURVE",
"380 -216 CURVE",
"380 -232 LINE"
);
},
{
closed = 1;
nodes = (
"185 24 OFFCURVE",
"134 149 OFFCURVE",
"134 275 CURVE SMOOTH",
"134 401 OFFCURVE",
"192 487 OFFCURVE",
"281 487 CURVE SMOOTH",
"340 487 OFFCURVE",
"381 459 OFFCURVE",
"414 426 CURVE SMOOTH",
"416 424 OFFCURVE",
"416 422 OFFCURVE",
"416 419 CURVE SMOOTH",
"416 47 LINE",
"382 30 OFFCURVE",
"351 24 OFFCURVE",
"323 24 CURVE SMOOTH"
);
}
);
userData = {
com.fontlab.hintData = {
hhints = (
{
position = -232;
width = 16;
},
{
position = -13;
width = 37;
},
{
position = 487;
width = 22;
}
);
vhints = (
{
position = 55;
width = 79;
},
{
position = 416;
width = 66;
}
);
};
com.schriftgestaltung.Glyphs.lastChange = "2019-09-01 00:49:25 +0000";
};
width = 564;
}
);
unicode = 0071;
},
{
glyphname = r;
layers = (
{
layerId = master01;
paths = (
{
closed = 1;
nodes = (
"196 0 LINE",
"196 16 LINE",
"190 16 OFFCURVE",
"185 16 OFFCURVE",
"179 17 CURVE SMOOTH",
"166 19 OFFCURVE",
"160 28 OFFCURVE",
"160 37 CURVE SMOOTH",
"160 385 LINE",
"168 407 OFFCURVE",
"202 450 OFFCURVE",
"242 450 CURVE SMOOTH",
"254 450 OFFCURVE",
"264 447 OFFCURVE",
"274 443 CURVE SMOOTH",
"285 439 OFFCURVE",
"296 436 OFFCURVE",
"312 436 CURVE SMOOTH",
"339 436 OFFCURVE",
"365 453 OFFCURVE",
"365 479 CURVE SMOOTH",
"365 500 OFFCURVE",
"312 503 OFFCURVE",
"299 503 CURVE SMOOTH",
"235 503 OFFCURVE",
"190 466 OFFCURVE",
"160 438 CURVE",
"160 496 LINE SMOOTH",
"160 508 OFFCURVE",
"159 513 OFFCURVE",
"154 513 CURVE SMOOTH",
"153 513 OFFCURVE",
"152 513 OFFCURVE",
"151 513 CURVE SMOOTH",
"58 487 LINE",
"58 473 LINE",
"63 473 OFFCURVE",
"67 473 OFFCURVE",
"73 472 CURVE SMOOTH",
"85 470 OFFCURVE",
"92 463 OFFCURVE",
"92 445 CURVE SMOOTH",
"92 37 LINE SMOOTH",
"92 28 OFFCURVE",
"86 19 OFFCURVE",
"73 17 CURVE SMOOTH",
"67 16 OFFCURVE",
"62 16 OFFCURVE",
"56 16 CURVE",
"56 0 LINE"
);
}
);
userData = {
com.fontlab.hintData = {
hhints = (
{
position = 0;
width = 16;
},
{
position = 450;
width = 53;
},
{
position = 473;
width = 14;
}
);
vhints = (
{
position = 92;
width = 68;
}
);
};
com.schriftgestaltung.Glyphs.lastChange = "2019-09-01 23:14:54 +0000";
};
width = 377;
}
);
unicode = 0072;
},
{
glyphname = s;
layers = (
{
layerId = master01;
paths = (
{
closed = 1;
nodes = (
"300 -10 OFFCURVE",
"373 58 OFFCURVE",
"373 141 CURVE SMOOTH",
"373 203 OFFCURVE",
"314 244 OFFCURVE",
"261 281 CURVE SMOOTH",
"255 285 OFFCURVE",
"249 289 OFFCURVE",
"242 294 CURVE SMOOTH",
"199 322 OFFCURVE",
"141 360 OFFCURVE",
"141 406 CURVE SMOOTH",
"141 443 OFFCURVE",
"172 489 OFFCURVE",
"233 489 CURVE SMOOTH",
"285 489 OFFCURVE",
"308 446 OFFCURVE",
"318 427 CURVE SMOOTH",
"320 423 OFFCURVE",
"323 417 OFFCURVE",
"326 417 CURVE SMOOTH",
"333 417 OFFCURVE",
"348 461 OFFCURVE",
"348 472 CURVE SMOOTH",
"348 485 OFFCURVE",
"289 511 OFFCURVE",
"230 511 CURVE SMOOTH",
"137 511 OFFCURVE",
"79 443 OFFCURVE",
"79 375 CURVE SMOOTH",
"79 318 OFFCURVE",
"143 274 OFFCURVE",
"187 244 CURVE SMOOTH",
"194 239 OFFCURVE",
"200 235 OFFCURVE",
"205 232 CURVE SMOOTH",
"252 203 OFFCURVE",
"313 161 OFFCURVE",
"313 108 CURVE SMOOTH",
"313 53 OFFCURVE",
"263 17 OFFCURVE",
"207 17 CURVE SMOOTH",
"119 17 OFFCURVE",
"92 85 OFFCURVE",
"92 120 CURVE SMOOTH",
"92 122 OFFCURVE",
"91 124 OFFCURVE",
"89 124 CURVE SMOOTH",
"79 124 OFFCURVE",
"45 89 OFFCURVE",
"45 76 CURVE SMOOTH",
"45 49 OFFCURVE",
"99 -10 OFFCURVE",
"210 -10 CURVE SMOOTH"
);
}
);
userData = {
com.fontlab.hintData = {
hhints = (
{
position = -10;
width = 27;
},
{
position = 489;
width = 22;
}
);
vhints = (
{
position = 45;
width = 47;
},
{
position = 79;
width = 62;
},
{
position = 313;
width = 60;
}
);
};
com.schriftgestaltung.Glyphs.lastChange = "2019-09-01 23:16:55 +0000";
};
width = 421;
}
);
unicode = 0073;
},
{
glyphname = germandbls;
layers = (
{
layerId = master01;
paths = (
{
closed = 1;
nodes = (
"507 -9 OFFCURVE",
"568 72 OFFCURVE",
"568 153 CURVE SMOOTH",
"568 235 OFFCURVE",
"522 270 OFFCURVE",
"448 324 CURVE SMOOTH",
"368 383 OFFCURVE",
"321 399 OFFCURVE",
"321 452 CURVE SMOOTH",
"321 508 OFFCURVE",
"427 554 OFFCURVE",
"427 637 CURVE SMOOTH",
"427 711 OFFCURVE",
"360 735 OFFCURVE",
"278 735 CURVE SMOOTH",
"142 735 OFFCURVE",
"110 627 OFFCURVE",
"110 510 CURVE SMOOTH",
"110 49 LINE SMOOTH",
"110 36 OFFCURVE",
"101 20 OFFCURVE",
"82 18 CURVE SMOOTH",
"74 17 OFFCURVE",
"66 16 OFFCURVE",
"58 16 CURVE",
"58 0 LINE",
"238 0 LINE",
"238 16 LINE",
"230 16 OFFCURVE",
"225 16 OFFCURVE",
"217 18 CURVE SMOOTH",
"198 23 OFFCURVE",
"189 36 OFFCURVE",
"189 49 CURVE SMOOTH",
"189 511 LINE SMOOTH",
"189 616 OFFCURVE",
"193 706 OFFCURVE",
"281 706 CURVE SMOOTH",
"332 706 OFFCURVE",
"386 663 OFFCURVE",
"386 619 CURVE SMOOTH",
"386 585 OFFCURVE",
"356 552 OFFCURVE",
"325 523 CURVE SMOOTH",
"293 493 OFFCURVE",
"250 465 OFFCURVE",
"250 417 CURVE SMOOTH",
"250 363 OFFCURVE",
"317 325 OFFCURVE",
"380 281 CURVE SMOOTH",
"439 240 OFFCURVE",
"513 192 OFFCURVE",
"513 127 CURVE SMOOTH",
"513 64 OFFCURVE",
"469 27 OFFCURVE",
"416 27 CURVE SMOOTH",
"343 27 OFFCURVE",
"312 102 OFFCURVE",
"291 123 CURVE SMOOTH",
"289 125 OFFCURVE",
"287 126 OFFCURVE",
"285 126 CURVE SMOOTH",
"272 126 OFFCURVE",
"250 91 OFFCURVE",
"250 72 CURVE SMOOTH",
"250 68 OFFCURVE",
"251 66 OFFCURVE",
"253 64 CURVE SMOOTH",
"274 43 OFFCURVE",
"293 -9 OFFCURVE",
"391 -9 CURVE SMOOTH"
);
}
);
userData = {
com.fontlab.hintData = {
hhints = (
{
position = -9;
width = 36;
},
{
position = 0;
width = 16;
},
{
position = 706;
width = 29;
}
);
vhints = (
{
position = 115;
width = 74;
},
{
position = 250;
width = 71;
},
{
position = 386;
width = 41;
},
{
position = 513;
width = 55;
}
);
};
com.schriftgestaltung.Glyphs.lastChange = "2019-09-01 00:49:25 +0000";
};
width = 616;
}
);
unicode = 00DF;
},
{
glyphname = longs;
layers = (
{
layerId = master01;
paths = (
{
closed = 1;
nodes = (
"198 0 LINE",
"198 16 LINE",
"192 16 OFFCURVE",
"187 16 OFFCURVE",
"181 17 CURVE SMOOTH",
"168 19 OFFCURVE",
"161 26 OFFCURVE",
"161 38 CURVE SMOOTH",
"161 572 LINE SMOOTH",
"161 645 OFFCURVE",
"179 729 OFFCURVE",
"283 729 CURVE SMOOTH",
"357 729 OFFCURVE",
"337 656 OFFCURVE",
"393 656 CURVE SMOOTH",
"406 656 OFFCURVE",
"429 667 OFFCURVE",
"429 684 CURVE SMOOTH",
"429 736 OFFCURVE",
"334 756 OFFCURVE",
"304 756 CURVE SMOOTH",
"150 756 OFFCURVE",
"112 684 OFFCURVE",
"97 577 CURVE SMOOTH",
"96 570 OFFCURVE",
"96 561 OFFCURVE",
"96 553 CURVE SMOOTH",
"96 537 OFFCURVE",
"96 519 OFFCURVE",
"96 515 CURVE",
"74 505 LINE",
"65 501 OFFCURVE",
"49 491 OFFCURVE",
"41 483 CURVE SMOOTH",
"38 480 OFFCURVE",
"34 475 OFFCURVE",
"34 471 CURVE SMOOTH",
"34 467 OFFCURVE",
"39 463 OFFCURVE",
"43 463 CURVE SMOOTH",
"61 463 OFFCURVE",
"78 463 OFFCURVE",
"96 463 CURVE",
"96 37 LINE SMOOTH",
"96 28 OFFCURVE",
"90 19 OFFCURVE",
"77 17 CURVE SMOOTH",
"71 16 OFFCURVE",
"66 16 OFFCURVE",
"60 16 CURVE",
"60 0 LINE"
);
}
);
userData = {
com.fontlab.hintData = {
hhints = (
{
position = 0;
width = 16;
},
{
position = 729;
width = 27;
}
);
vhints = (
{
position = 95;
width = 65;
}
);
};
com.schriftgestaltung.Glyphs.lastChange = "2019-09-01 00:49:25 +0000";
};
width = 458;
}
);
unicode = 017F;
},
{
glyphname = t;
layers = (
{
layerId = master01;
paths = (
{
closed = 1;
nodes = (
"252 -10 OFFCURVE",
"266 -7 OFFCURVE",
"286 0 CURVE",
"278 30 LINE",
"270 29 OFFCURVE",
"262 28 OFFCURVE",
"255 28 CURVE SMOOTH",
"225 28 OFFCURVE",
"202 35 OFFCURVE",
"195 77 CURVE SMOOTH",
"192 95 OFFCURVE",
"189 136 OFFCURVE",
"189 162 CURVE SMOOTH",
"189 471 LINE",
"195 472 OFFCURVE",
"203 472 OFFCURVE",
"210 472 CURVE SMOOTH",
"250 472 OFFCURVE",
"287 472 OFFCURVE",
"305 471 CURVE",
"309 488 LINE SMOOTH",
"310 493 OFFCURVE",
"310 496 OFFCURVE",
"310 499 CURVE SMOOTH",
"310 507 OFFCURVE",
"306 511 OFFCURVE",
"287 511 CURVE SMOOTH",
"275 511 OFFCURVE",
"225 511 OFFCURVE",
"189 511 CURVE",
"189 531 OFFCURVE",
"189 551 OFFCURVE",
"189 572 CURVE SMOOTH",
"189 585 OFFCURVE",
"185 589 OFFCURVE",
"178 589 CURVE SMOOTH",
"175 589 OFFCURVE",
"170 584 OFFCURVE",
"166 580 CURVE SMOOTH",
"132 545 OFFCURVE",
"101 521 OFFCURVE",
"56 498 CURVE SMOOTH",
"51 496 OFFCURVE",
"42 492 OFFCURVE",
"42 484 CURVE SMOOTH",
"42 480 OFFCURVE",
"44 478 OFFCURVE",
"46 477 CURVE SMOOTH",
"49 476 OFFCURVE",
"65 476 OFFCURVE",
"78 476 CURVE SMOOTH",
"92 476 OFFCURVE",
"95 476 OFFCURVE",
"99 475 CURVE SMOOTH",
"111 472 OFFCURVE",
"118 463 OFFCURVE",
"118 447 CURVE SMOOTH",
"118 164 LINE",
"118 105 OFFCURVE",
"129 54 OFFCURVE",
"154 23 CURVE SMOOTH",
"176 -4 OFFCURVE",
"204 -10 OFFCURVE",
"232 -10 CURVE SMOOTH"
);
}
);
userData = {
com.fontlab.hintData = {
hhints = (
{
position = -10;
width = 37;
},
{
position = 471;
width = 40;
}
);
vhints = (
{
position = 118;
width = 71;
}
);
};
com.schriftgestaltung.Glyphs.lastChange = "2019-09-01 23:31:15 +0000";
};
width = 343;
}
);
unicode = 0074;
},
{
glyphname = tbar;
layers = (
{
layerId = master01;
paths = (
{
closed = 1;
nodes = (
"250 -10 OFFCURVE",
"268 -7 OFFCURVE",
"286 -1 CURVE",
"278 29 LINE",
"270 28 OFFCURVE",
"262 27 OFFCURVE",
"255 27 CURVE SMOOTH",
"225 27 OFFCURVE",
"207 41 OFFCURVE",
"195 76 CURVE SMOOTH",
"189 94 OFFCURVE",
"189 135 OFFCURVE",
"189 161 CURVE",
"189 344 LINE",
"279 344 LINE SMOOTH",
"293 344 OFFCURVE",
"299 383 OFFCURVE",
"299 388 CURVE",
"189 388 LINE",
"189 471 LINE",
"195 472 OFFCURVE",
"203 472 OFFCURVE",
"210 472 CURVE SMOOTH",
"250 472 OFFCURVE",
"296 471 OFFCURVE",
"305 471 CURVE",
"309 488 LINE SMOOTH",
"310 493 OFFCURVE",
"310 496 OFFCURVE",
"310 499 CURVE SMOOTH",
"310 507 OFFCURVE",
"306 511 OFFCURVE",
"287 511 CURVE SMOOTH",
"275 511 OFFCURVE",
"225 510 OFFCURVE",
"189 510 CURVE",
"189 530 OFFCURVE",
"189 551 OFFCURVE",
"189 572 CURVE SMOOTH",
"189 585 OFFCURVE",
"185 589 OFFCURVE",
"178 589 CURVE SMOOTH",
"176 589 OFFCURVE",
"170 584 OFFCURVE",
"166 580 CURVE SMOOTH",
"131 545 OFFCURVE",
"109 526 OFFCURVE",
"65 501 CURVE SMOOTH",
"56 496 OFFCURVE",
"42 493 OFFCURVE",
"42 484 CURVE SMOOTH",
"42 481 OFFCURVE",
"43 478 OFFCURVE",
"46 477 CURVE SMOOTH",
"51 475 OFFCURVE",
"93 476 OFFCURVE",
"99 475 CURVE SMOOTH",
"111 473 OFFCURVE",
"118 465 OFFCURVE",
"118 447 CURVE SMOOTH",
"118 388 LINE",
"46 388 LINE SMOOTH",
"35 388 OFFCURVE",
"26 348 OFFCURVE",
"26 344 CURVE",
"118 344 LINE",
"118 163 LINE",
"118 106 OFFCURVE",
"126 50 OFFCURVE",
"154 22 CURVE SMOOTH",
"177 -1 OFFCURVE",
"204 -10 OFFCURVE",
"232 -10 CURVE SMOOTH"
);
}
);
userData = {
com.fontlab.hintData = {
hhints = (
{
position = -10;
width = 37;
},
{
position = 344;
width = 44;
},
{
position = 471;
width = 40;
}
);
vhints = (
{
position = 118;
width = 71;
}
);
};
com.schriftgestaltung.Glyphs.lastChange = "2019-09-01 00:49:25 +0000";
};
width = 338;
}
);
unicode = 0167;
},
{
glyphname = u;
layers = (
{
layerId = master01;
paths = (
{
closed = 1;
nodes = (
"312 -10 OFFCURVE",
"350 7 OFFCURVE",
"396 40 CURVE",
"396 36 OFFCURVE",
"396 33 OFFCURVE",
"396 29 CURVE SMOOTH",
"396 19 OFFCURVE",
"397 -8 OFFCURVE",
"422 -8 CURVE SMOOTH",
"448 -8 OFFCURVE",
"478 5 OFFCURVE",
"508 18 CURVE",
"502 45 LINE",
"490 41 OFFCURVE",
"478 38 OFFCURVE",
"467 37 CURVE",
"467 55 OFFCURVE",
"467 470 OFFCURVE",
"467 493 CURVE SMOOTH",
"467 501 OFFCURVE",
"467 510 OFFCURVE",
"460 510 CURVE SMOOTH",
"459 510 OFFCURVE",
"454 508 OFFCURVE",
"448 507 CURVE SMOOTH",
"362 490 LINE",
"362 477 LINE",
"366 477 OFFCURVE",
"371 477 OFFCURVE",
"377 475 CURVE SMOOTH",
"389 471 OFFCURVE",
"396 467 OFFCURVE",
"396 448 CURVE SMOOTH",
"396 65 LINE",
"354 33 OFFCURVE",
"307 22 OFFCURVE",
"270 22 CURVE SMOOTH",
"204 22 OFFCURVE",
"152 81 OFFCURVE",
"152 153 CURVE SMOOTH",
"152 492 LINE SMOOTH",
"152 504 OFFCURVE",
"150 509 OFFCURVE",
"145 509 CURVE SMOOTH",
"144 509 OFFCURVE",
"142 508 OFFCURVE",
"139 507 CURVE SMOOTH",
"50 486 LINE",
"50 473 LINE",
"54 473 OFFCURVE",
"59 472 OFFCURVE",
"64 471 CURVE SMOOTH",
"77 468 OFFCURVE",
"84 463 OFFCURVE",
"84 444 CURVE SMOOTH",
"84 139 LINE SMOOTH",
"84 30 OFFCURVE",
"168 -10 OFFCURVE",
"247 -10 CURVE SMOOTH"
);
}
);
userData = {
com.fontlab.hintData = {
hhints = (
{
position = -10;
width = 32;
},
{
position = -8;
width = 21;
},
{
position = 473;
width = 14;
},
{
position = 489;
width = 20;
}
);
vhints = (
{
position = 84;
width = 68;
},
{
position = 396;
width = 71;
}
);
};
com.schriftgestaltung.Glyphs.lastChange = "2019-09-01 00:49:25 +0000";
};
width = 562;
}
);
unicode = 0075;
},
{
glyphname = uni0180;
layers = (
{
components = (
{
name = b;
}
);
layerId = master01;
paths = (
{
closed = 1;
nodes = (
"300 614 LINE",
"305 614 OFFCURVE",
"306 623 OFFCURVE",
"306 630 CURVE SMOOTH",
"306 639 OFFCURVE",
"304 652 OFFCURVE",
"300 652 CURVE",
"47 652 LINE",
"41 652 OFFCURVE",
"38 643 OFFCURVE",
"38 635 CURVE SMOOTH",
"38 627 OFFCURVE",
"41 616 OFFCURVE",
"47 614 CURVE"
);
}
);
userData = {
com.fontlab.hintData = {
hhints = (
{
position = -10;
width = 22;
},
{
position = 482;
width = 30;
},
{
position = 614;
width = 38;
},
{
position = 709;
width = 14;
}
);
vhints = (
{
position = 91;
width = 66;
},
{
position = 431;
width = 76;
}
);
};
com.schriftgestaltung.Glyphs.lastChange = "2019-09-01 00:49:25 +0000";
};
width = 561;
}
);
unicode = 0180;
},
{
glyphname = uni019E;
layers = (
{
layerId = master01;
paths = (
{
closed = 1;
nodes = (
"500.441 -130 LINE",
"500.441 -114.441 LINE",
"494.67 -114.364 OFFCURVE",
"489.019 -113.859 OFFCURVE",
"483.483 -112.737 CURVE SMOOTH",
"471.165 -110.24 OFFCURVE",
"466.135 -102.333 OFFCURVE",
"464.431 -93.811 CURVE SMOOTH",
"464.499 351.708 LINE SMOOTH",
"464.499 460.077 OFFCURVE",
"380.639 510.336 OFFCURVE",
"300.85 510.336 CURVE SMOOTH",
"241.74 510.336 OFFCURVE",
"204.432 495.536 OFFCURVE",
"162.996 466.126 CURVE",
"162.996 476.233 OFFCURVE",
"163.002 486.34 OFFCURVE",
"163.002 496.446 CURVE SMOOTH",
"163.002 512 OFFCURVE",
"161.357 514 OFFCURVE",
"157 514 CURVE SMOOTH",
"156.402 514 OFFCURVE",
"154.758 513.476 OFFCURVE",
"154.064 513.299 CURVE SMOOTH",
"59.409 489.1 LINE",
"59.409 475.516 LINE",
"63.575 475.516 OFFCURVE",
"68.556 474.104 OFFCURVE",
"73.881 472.215 CURVE SMOOTH",
"86.811 467.627 OFFCURVE",
"93.228 455.532 OFFCURVE",
"93.228 437.169 CURVE SMOOTH",
"93.228 37.387 LINE SMOOTH",
"91.759 28.418 OFFCURVE",
"86.851 19.874 OFFCURVE",
"73.96 17.263 CURVE SMOOTH",
"68.422 16.141 OFFCURVE",
"62.772 15.636 OFFCURVE",
"57 15.559 CURVE",
"57 0 LINE",
"199.077 0 LINE",
"199.077 15.559 LINE",
"193.307 15.636 OFFCURVE",
"187.654 16.141 OFFCURVE",
"182.117 17.263 CURVE SMOOTH",
"169.4 19.84 OFFCURVE",
"164.45 28.188 OFFCURVE",
"162.91 37.023 CURVE SMOOTH",
"162.991 443.526 LINE",
"204.37 469.854 OFFCURVE",
"246.724 482.017 OFFCURVE",
"280.425 482.017 CURVE SMOOTH",
"346.308 482.017 OFFCURVE",
"398.704 423.043 OFFCURVE",
"398.704 351.766 CURVE SMOOTH",
"398.704 -91.77 LINE",
"398.675 -91.77 LINE",
"397.378 -101.042 OFFCURVE",
"392.574 -110.044 OFFCURVE",
"379.279 -112.737 CURVE SMOOTH",
"373.741 -113.859 OFFCURVE",
"368.089 -114.364 OFFCURVE",
"362.32 -114.441 CURVE",
"362.32 -130 LINE"
);
}
);
userData = {
com.fontlab.hintData = {
hhints = (
{
position = -130;
width = 38;
},
{
position = -130;
width = 16;
},
{
position = 0;
width = 16;
},
{
position = 476;
width = 14;
},
{
position = 482;
width = 28;
}
);
vhints = (
{
position = 93;
width = 70;
},
{
position = 399;
width = 66;
}
);
};
com.schriftgestaltung.Glyphs.lastChange = "2019-09-01 00:49:25 +0000";
};
width = 556;
}
);
unicode = 019E;
},
{
glyphname = uni01DD;
layers = (
{
layerId = master01;
paths = (
{
closed = 1;
nodes = (
"378 -10 OFFCURVE",
"479 66 OFFCURVE",
"479 252 CURVE SMOOTH",
"479 438 OFFCURVE",
"359 511 OFFCURVE",
"229 511 CURVE SMOOTH",
"154 511 OFFCURVE",
"104 488 OFFCURVE",
"51 436 CURVE",
"66 415 LINE",
"118 454 OFFCURVE",
"169 470 OFFCURVE",
"212 470 CURVE SMOOTH",
"343 470 OFFCURVE",
"401 365 OFFCURVE",
"401 251 CURVE SMOOTH",
"401 224 OFFCURVE",
"397 202 OFFCURVE",
"393 184 CURVE",
"55 185 LINE",
"55 171 LINE",
"55 74 OFFCURVE",
"120 -10 OFFCURVE",
"236 -10 CURVE SMOOTH"
);
},
{
closed = 1;
nodes = (
"182 12 OFFCURVE",
"129 62 OFFCURVE",
"127 152 CURVE",
"154 155 OFFCURVE",
"225 156 OFFCURVE",
"259 156 CURVE SMOOTH",
"321 156 OFFCURVE",
"360 152 OFFCURVE",
"396 148 CURVE",
"379 75 OFFCURVE",
"333 12 OFFCURVE",
"255 12 CURVE SMOOTH"
);
}
);
userData = {
com.fontlab.hintData = {
hhints = (
{
position = -10;
width = 22;
},
{
position = 156;
width = 28;
},
{
position = 470;
width = 41;
}
);
vhints = (
{
position = 55;
width = 72;
},
{
position = 401;
width = 78;
}
);
};
com.schriftgestaltung.Glyphs.lastChange = "2019-09-01 00:49:25 +0000";
};
width = 523;
}
);
unicode = 01DD;
},
{
glyphname = uni01E5;
layers = (
{
layerId = master01;
paths = (
{
closed = 1;
nodes = (
"321 -246 OFFCURVE",
"429 -205 OFFCURVE",
"461 -129 CURVE",
"508 -129 LINE SMOOTH",
"522 -129 OFFCURVE",
"528 -94 OFFCURVE",
"528 -89 CURVE",
"470 -89 LINE",
"470 -87 OFFCURVE",
"470 -84 OFFCURVE",
"470 -82 CURVE SMOOTH",
"470 1 OFFCURVE",
"404 29 OFFCURVE",
"302 36 CURVE SMOOTH",
"205 43 LINE SMOOTH",
"196 44 OFFCURVE",
"175 43 OFFCURVE",
"169 45 CURVE SMOOTH",
"159 48 OFFCURVE",
"155 53 OFFCURVE",
"155 59 CURVE SMOOTH",
"155 63 OFFCURVE",
"158 67 OFFCURVE",
"163 70 CURVE SMOOTH",
"264 131 OFFCURVE",
"409 109 OFFCURVE",
"409 290 CURVE SMOOTH",
"409 355 OFFCURVE",
"395 402 OFFCURVE",
"370 435 CURVE",
"379 433 OFFCURVE",
"387 432 OFFCURVE",
"394 432 CURVE SMOOTH",
"413 432 OFFCURVE",
"427 438 OFFCURVE",
"437 448 CURVE SMOOTH",
"445 456 OFFCURVE",
"452 465 OFFCURVE",
"452 478 CURVE SMOOTH",
"452 488 OFFCURVE",
"445 497 OFFCURVE",
"437 497 CURVE SMOOTH",
"398 497 OFFCURVE",
"371 485 OFFCURVE",
"340 465 CURVE",
"308 490 OFFCURVE",
"267 500 OFFCURVE",
"228 500 CURVE SMOOTH",
"215 500 OFFCURVE",
"202 500 OFFCURVE",
"190 498 CURVE SMOOTH",
"110 485 OFFCURVE",
"46 431 OFFCURVE",
"46 314 CURVE SMOOTH",
"46 166 OFFCURVE",
"134 117 OFFCURVE",
"210 112 CURVE",
"177 100 OFFCURVE",
"60 75 OFFCURVE",
"60 35 CURVE SMOOTH",
"60 16 OFFCURVE",
"89 4 OFFCURVE",
"119 -2 CURVE SMOOTH",
"142 -7 OFFCURVE",
"174 -11 OFFCURVE",
"212 -13 CURVE",
"160 -28 OFFCURVE",
"81 -47 OFFCURVE",
"43 -89 CURVE",
"-15 -89 LINE SMOOTH",
"-25 -89 OFFCURVE",
"-35 -123 OFFCURVE",
"-35 -129 CURVE",
"22 -129 LINE",
"21 -134 OFFCURVE",
"20 -139 OFFCURVE",
"20 -144 CURVE SMOOTH",
"20 -225 OFFCURVE",
"121 -246 OFFCURVE",
"223 -246 CURVE SMOOTH"
);
},
{
closed = 1;
nodes = (
"88 -221 OFFCURVE",
"81 -140 OFFCURVE",
"87 -129 CURVE",
"418 -129 LINE",
"401 -187 OFFCURVE",
"307 -221 OFFCURVE",
"223 -221 CURVE SMOOTH"
);
},
{
closed = 1;
nodes = (
"119 -55 OFFCURVE",
"169 -39 OFFCURVE",
"234 -18 CURVE",
"348 -18 OFFCURVE",
"405 -38 OFFCURVE",
"418 -89 CURVE",
"98 -89 LINE"
);
},
{
closed = 1;
nodes = (
"154 143 OFFCURVE",
"119 217 OFFCURVE",
"119 335 CURVE SMOOTH",
"119 402 OFFCURVE",
"144 471 OFFCURVE",
"215 471 CURVE SMOOTH",
"309 471 OFFCURVE",
"341 418 OFFCURVE",
"341 295 CURVE SMOOTH",
"341 212 OFFCURVE",
"325 143 OFFCURVE",
"241 143 CURVE SMOOTH"
);
}
);
userData = {
com.fontlab.hintData = {
hhints = (
{
position = -246;
width = 25;
},
{
position = -129;
width = 40;
},
{
position = 432;
width = 65;
},
{
position = 471;
width = 29;
}
);
vhints = (
{
position = 20;
width = 67;
},
{
position = 46;
width = 73;
},
{
position = 60;
width = 95;
},
{
position = 341;
width = 68;
},
{
position = 418;
width = 43;
}
);
};
com.schriftgestaltung.Glyphs.lastChange = "2019-09-01 00:49:25 +0000";
};
width = 403;
}
);
unicode = 01E5;
},
{
glyphname = uni0203;
layers = (
{
components = (
{
name = a;
}
);
layerId = master01;
paths = (
{
closed = 1;
nodes = (
"195.157 571.8 OFFCURVE",
"198.925 585.1 OFFCURVE",
"203.825 594.199 CURVE SMOOTH",
"210.106 605.864 OFFCURVE",
"220.025 627.8 OFFCURVE",
"249.325 627.8 CURVE SMOOTH",
"288.337 627.8 OFFCURVE",
"296.313 606.268 OFFCURVE",
"313.164 580.992 CURVE SMOOTH",
"316.481 576.017 OFFCURVE",
"319.266 572.559 OFFCURVE",
"324.225 572.559 CURVE SMOOTH",
"332.628 572.559 OFFCURVE",
"333.935 577.997 OFFCURVE",
"333.935 583.699 CURVE SMOOTH",
"333.935 617.501 OFFCURVE",
"296.811 678.899 OFFCURVE",
"243.725 678.899 CURVE SMOOTH",
"199.187 678.899 OFFCURVE",
"174.065 625.36 OFFCURVE",
"174.065 586.5 CURVE SMOOTH",
"174.065 578.367 OFFCURVE",
"178.278 571.8 OFFCURVE",
"185.625 571.8 CURVE SMOOTH"
);
}
);
userData = {
com.fontlab.hintData = {
hhints = (
{
position = -10;
width = 37;
},
{
position = 279;
width = 33;
},
{
position = 485;
width = 27;
},
{
position = 628;
width = 51;
}
);
vhints = (
{
position = 51;
width = 80;
},
{
position = 174;
width = 30;
},
{
position = 365;
width = 68;
},
{
position = 375;
width = 58;
}
);
};
com.schriftgestaltung.Glyphs.lastChange = "2019-09-01 00:49:25 +0000";
};
width = 525;
}
);
unicode = 0203;
},
{
glyphname = uni0207;
layers = (
{
components = (
{
name = e;
}
);
layerId = master01;
paths = (
{
closed = 1;
nodes = (
"230.72 570.681 OFFCURVE",
"234.487 583.98 OFFCURVE",
"239.388 593.08 CURVE SMOOTH",
"245.669 604.745 OFFCURVE",
"255.588 626.681 OFFCURVE",
"284.888 626.681 CURVE SMOOTH",
"323.899 626.681 OFFCURVE",
"331.876 605.148 OFFCURVE",
"348.727 579.873 CURVE SMOOTH",
"352.044 574.897 OFFCURVE",
"354.828 571.439 OFFCURVE",
"359.787 571.439 CURVE SMOOTH",
"368.19 571.439 OFFCURVE",
"369.497 576.878 OFFCURVE",
"369.497 582.58 CURVE SMOOTH",
"369.497 616.382 OFFCURVE",
"332.373 677.78 OFFCURVE",
"279.287 677.78 CURVE SMOOTH",
"234.749 677.78 OFFCURVE",
"209.628 624.241 OFFCURVE",
"209.628 585.381 CURVE SMOOTH",
"209.628 577.248 OFFCURVE",
"213.841 570.681 OFFCURVE",
"221.188 570.681 CURVE SMOOTH"
);
}
);
userData = {
com.fontlab.hintData = {
hhints = (
{
position = -11;
width = 41;
},
{
position = 317;
width = 28;
},
{
position = 489;
width = 22;
},
{
position = 627;
width = 51;
}
);
vhints = (
{
position = 47;
width = 78;
},
{
position = 210;
width = 30;
},
{
position = 399;
width = 72;
}
);
};
com.schriftgestaltung.Glyphs.lastChange = "2019-09-01 00:49:25 +0000";
};
width = 515;
}
);
unicode = 0207;
},
{
glyphname = uni020B;
layers = (
{
components = (
{
name = dotlessi;
}
);
layerId = master01;
paths = (
{
closed = 1;
nodes = (
"67.157 570.54 OFFCURVE",
"70.925 583.84 OFFCURVE",
"75.825 592.939 CURVE SMOOTH",
"82.106 604.604 OFFCURVE",
"92.025 626.54 OFFCURVE",
"121.325 626.54 CURVE SMOOTH",
"160.337 626.54 OFFCURVE",
"168.313 605.008 OFFCURVE",
"185.164 579.732 CURVE SMOOTH",
"188.481 574.757 OFFCURVE",
"191.266 571.299 OFFCURVE",
"196.225 571.299 CURVE SMOOTH",
"204.628 571.299 OFFCURVE",
"205.935 576.737 OFFCURVE",
"205.935 582.439 CURVE SMOOTH",
"205.935 616.241 OFFCURVE",
"168.811 677.64 OFFCURVE",
"115.725 677.64 CURVE SMOOTH",
"71.186 677.64 OFFCURVE",
"46.065 624.101 OFFCURVE",
"46.065 585.24 CURVE SMOOTH",
"46.065 577.107 OFFCURVE",
"50.278 570.54 OFFCURVE",
"57.625 570.54 CURVE SMOOTH"
);
}
);
userData = {
com.fontlab.hintData = {
hhints = (
{
position = 0;
width = 16;
},
{
position = 469;
width = 14;
},
{
position = 489;
width = 20;
},
{
position = 627;
width = 51;
}
);
vhints = (
{
position = 46;
width = 30;
},
{
position = 92;
width = 68;
}
);
};
com.schriftgestaltung.Glyphs.lastChange = "2019-09-01 00:49:25 +0000";
};
width = 251;
}
);
unicode = 020B;
},
{
glyphname = uni020F;
layers = (
{
components = (
{
name = o;
}
);
layerId = master01;
paths = (
{
closed = 1;
nodes = (
"198.157 570.54 OFFCURVE",
"201.925 583.84 OFFCURVE",
"206.825 592.939 CURVE SMOOTH",
"213.106 604.604 OFFCURVE",
"223.025 626.54 OFFCURVE",
"252.325 626.54 CURVE SMOOTH",
"291.337 626.54 OFFCURVE",
"299.313 605.008 OFFCURVE",
"316.164 579.732 CURVE SMOOTH",
"319.481 574.757 OFFCURVE",
"322.266 571.299 OFFCURVE",
"327.225 571.299 CURVE SMOOTH",
"335.628 571.299 OFFCURVE",
"336.935 576.737 OFFCURVE",
"336.935 582.439 CURVE SMOOTH",
"336.935 616.241 OFFCURVE",
"299.811 677.64 OFFCURVE",
"246.725 677.64 CURVE SMOOTH",
"202.187 677.64 OFFCURVE",
"177.065 624.101 OFFCURVE",
"177.065 585.24 CURVE SMOOTH",
"177.065 577.107 OFFCURVE",
"181.278 570.54 OFFCURVE",
"188.625 570.54 CURVE SMOOTH"
);
}
);
userData = {
com.fontlab.hintData = {
hhints = (
{
position = -10;
width = 30;
},
{
position = 481;
width = 29;
},
{
position = 627;
width = 51;
}
);
vhints = (
{
position = 41;
width = 76;
},
{
position = 177;
width = 30;
},
{
position = 411;
width = 76;
}
);
};
com.schriftgestaltung.Glyphs.lastChange = "2019-09-01 00:49:25 +0000";
};
width = 534;
}
);
unicode = 020F;
},
{
glyphname = uni0213;
layers = (
{
components = (
{
name = r;
}
);
layerId = master01;
paths = (
{
closed = 1;
nodes = (
"151.63 573.351 OFFCURVE",
"155.397 586.65 OFFCURVE",
"160.298 595.75 CURVE SMOOTH",
"166.579 607.415 OFFCURVE",
"176.498 629.351 OFFCURVE",
"205.798 629.351 CURVE SMOOTH",
"244.81 629.351 OFFCURVE",
"252.786 607.818 OFFCURVE",
"269.637 582.543 CURVE SMOOTH",
"272.954 577.567 OFFCURVE",
"275.738 574.109 OFFCURVE",
"280.697 574.109 CURVE SMOOTH",
"289.101 574.109 OFFCURVE",
"290.407 579.548 OFFCURVE",
"290.407 585.25 CURVE SMOOTH",
"290.407 619.052 OFFCURVE",
"253.283 680.45 OFFCURVE",
"200.197 680.45 CURVE SMOOTH",
"155.659 680.45 OFFCURVE",
"130.538 626.911 OFFCURVE",
"130.538 588.051 CURVE SMOOTH",
"130.538 579.918 OFFCURVE",
"134.751 573.351 OFFCURVE",
"142.098 573.351 CURVE SMOOTH"
);
}
);
userData = {
com.fontlab.hintData = {
hhints = (
{
position = 0;
width = 16;
},
{
position = 450;
width = 53;
},
{
position = 473;
width = 14;
},
{
position = 629;
width = 51;
}
);
vhints = (
{
position = 92;
width = 68;
},
{
position = 131;
width = 30;
}
);
};
com.schriftgestaltung.Glyphs.lastChange = "2019-09-01 00:49:25 +0000";
};
width = 377;
}
);
unicode = 0213;
},
{
glyphname = uni0217;
layers = (
{
components = (
{
name = u;
}
);
layerId = master01;
paths = (
{
closed = 1;
nodes = (
"211.157 570.54 OFFCURVE",
"214.925 583.84 OFFCURVE",
"219.825 592.939 CURVE SMOOTH",
"226.106 604.604 OFFCURVE",
"236.025 626.54 OFFCURVE",
"265.325 626.54 CURVE SMOOTH",
"304.337 626.54 OFFCURVE",
"312.313 605.008 OFFCURVE",
"329.164 579.732 CURVE SMOOTH",
"332.481 574.757 OFFCURVE",
"335.266 571.299 OFFCURVE",
"340.225 571.299 CURVE SMOOTH",
"348.628 571.299 OFFCURVE",
"349.935 576.737 OFFCURVE",
"349.935 582.439 CURVE SMOOTH",
"349.935 616.241 OFFCURVE",
"312.811 677.64 OFFCURVE",
"259.725 677.64 CURVE SMOOTH",
"215.187 677.64 OFFCURVE",
"190.065 624.101 OFFCURVE",
"190.065 585.24 CURVE SMOOTH",
"190.065 577.107 OFFCURVE",
"194.278 570.54 OFFCURVE",
"201.625 570.54 CURVE SMOOTH"
);
}
);
userData = {
com.fontlab.hintData = {
hhints = (
{
position = -10;
width = 32;
},
{
position = -8;
width = 21;
},
{
position = 473;
width = 14;
},
{
position = 489;
width = 20;
},
{
position = 627;
width = 51;
}
);
vhints = (
{
position = 84;
width = 68;
},
{
position = 190;
width = 30;
},
{
position = 396;
width = 71;
}
);
};
com.schriftgestaltung.Glyphs.lastChange = "2019-09-01 00:49:25 +0000";
};
width = 562;
}
);
unicode = 0217;
},
{
glyphname = uni0254;
layers = (
{
layerId = master01;
paths = (
{
closed = 1;
nodes = (
"361.735 -10 OFFCURVE",
"471.998 83.474 OFFCURVE",
"471.998 262 CURVE SMOOTH",
"471.998 433.282 OFFCURVE",
"382.655 511.857 OFFCURVE",
"239 511.857 CURVE SMOOTH",
"184.396 511.857 OFFCURVE",
"116.161 495.438 OFFCURVE",
"60.249 432.026 CURVE SMOOTH",
"57.161 428.523 OFFCURVE",
"55.477 425.163 OFFCURVE",
"55.477 422 CURVE SMOOTH",
"55.477 406.979 OFFCURVE",
"82.231 396.485 OFFCURVE",
"101 396.485 CURVE SMOOTH",
"168.169 396.485 OFFCURVE",
"158.809 490.075 OFFCURVE",
"247.62 490.075 CURVE SMOOTH",
"335.659 490.075 OFFCURVE",
"393.943 406.987 OFFCURVE",
"393.943 284.245 CURVE SMOOTH",
"393.943 160.994 OFFCURVE",
"336.414 32.127 OFFCURVE",
"204 32.127 CURVE SMOOTH",
"161.074 32.127 OFFCURVE",
"110.338 48.024 OFFCURVE",
"58.98 86.983 CURVE",
"44.342 66.362 LINE",
"101.832 9.171 OFFCURVE",
"154.191 -10 OFFCURVE",
"234.873 -10 CURVE SMOOTH"
);
}
);
userData = {
com.fontlab.hintData = {
hhints = (
{
position = -10;
width = 42;
},
{
position = 490;
width = 22;
}
);
vhints = (
{
position = 394;
width = 78;
}
);
};
com.schriftgestaltung.Glyphs.lastChange = "2019-09-01 00:49:25 +0000";
};
width = 508;
}
);
unicode = 0254;
},
{
glyphname = uni0270;
lastChange = "2019-10-22 23:17:57 +0000";
layers = (
{
layerId = master01;
paths = (
{
closed = 1;
nodes = (
"704 -218 OFFCURVE",
"705 -217 OFFCURVE",
"706 -217 CURVE SMOOTH",
"801 -193 LINE",
"801 -180 LINE",
"797 -180 OFFCURVE",
"792 -178 OFFCURVE",
"786 -176 CURVE SMOOTH",
"773 -172 OFFCURVE",
"767 -160 OFFCURVE",
"767 -141 CURVE SMOOTH",
"767 469 LINE SMOOTH",
"767 478 OFFCURVE",
"773 487 OFFCURVE",
"786 489 CURVE SMOOTH",
"792 490 OFFCURVE",
"797 491 OFFCURVE",
"803 491 CURVE",
"803 506 LINE",
"661 506 LINE",
"661 491 LINE",
"667 491 OFFCURVE",
"672 490 OFFCURVE",
"678 489 CURVE SMOOTH",
"691 487 OFFCURVE",
"697 478 OFFCURVE",
"697 469 CURVE SMOOTH",
"697 68 LINE",
"658 39 OFFCURVE",
"621 24 OFFCURVE",
"580 24 CURVE SMOOTH",
"514 24 OFFCURVE",
"462 83 OFFCURVE",
"462 155 CURVE SMOOTH",
"462 469 LINE SMOOTH",
"462 478 OFFCURVE",
"468 486 OFFCURVE",
"481 489 CURVE SMOOTH",
"486 490 OFFCURVE",
"492 491 OFFCURVE",
"498 491 CURVE",
"498 506 LINE",
"360 506 LINE",
"360 491 LINE",
"365 491 OFFCURVE",
"371 490 OFFCURVE",
"377 489 CURVE SMOOTH",
"389 487 OFFCURVE",
"396 478 OFFCURVE",
"396 469 CURVE SMOOTH",
"396 124 LINE SMOOTH",
"396 118 OFFCURVE",
"396 110 OFFCURVE",
"396 105 CURVE SMOOTH",
"396 62 OFFCURVE",
"311 25 OFFCURVE",
"273 25 CURVE SMOOTH",
"202 25 OFFCURVE",
"161 80 OFFCURVE",
"161 162 CURVE SMOOTH",
"161 469 LINE SMOOTH",
"161 478 OFFCURVE",
"167 486 OFFCURVE",
"180 489 CURVE SMOOTH",
"185 490 OFFCURVE",
"191 491 OFFCURVE",
"197 491 CURVE",
"197 506 LINE",
"59 506 LINE",
"59 491 LINE",
"65 491 OFFCURVE",
"70 490 OFFCURVE",
"76 489 CURVE SMOOTH",
"88 487 OFFCURVE",
"95 478 OFFCURVE",
"95 469 CURVE SMOOTH",
"95 158 LINE SMOOTH",
"95 49 OFFCURVE",
"179 -2 OFFCURVE",
"259 -2 CURVE SMOOTH",
"323 -2 OFFCURVE",
"371 15 OFFCURVE",
"411 82 CURVE",
"443 19 OFFCURVE",
"500 -4 OFFCURVE",
"559 -4 CURVE SMOOTH",
"618 -4 OFFCURVE",
"656 14 OFFCURVE",
"697 46 CURVE",
"697 34 OFFCURVE",
"697 -188 OFFCURVE",
"697 -200 CURVE SMOOTH",
"697 -212 OFFCURVE",
"698 -218 OFFCURVE",
"703 -218 CURVE SMOOTH"
);
}
);
userData = {
com.fontlab.hintData = {
hhints = (
{
position = -193;
width = 14;
},
{
position = -4;
width = 28;
},
{
position = 491;
width = 16;
}
);
vhints = (
{
position = 95;
width = 66;
},
{
position = 396;
width = 66;
},
{
position = 697;
width = 70;
}
);
};
com.schriftgestaltung.Glyphs.lastChange = "2019-09-01 00:49:25 +0000";
};
width = 857;
}
);
unicode = 0270;
changeCount = 23;
},
{
glyphname = uni027A;
layers = (
{
layerId = master01;
paths = (
{
closed = 1;
nodes = (
"241.861 -6.771 OFFCURVE",
"242.828 -6.663 OFFCURVE",
"243.914 -6.356 CURVE SMOOTH",
"336.595 19.817 LINE",
"336.595 33.401 LINE",
"332.43 33.401 OFFCURVE",
"327.66 33.605 OFFCURVE",
"322.123 34.727 CURVE SMOOTH",
"309.874 37.207 OFFCURVE",
"302.775 43.503 OFFCURVE",
"302.775 61.866 CURVE SMOOTH",
"302.775 597.195 LINE SMOOTH",
"304.244 606.163 OFFCURVE",
"309.151 614.709 OFFCURVE",
"322.042 617.318 CURVE SMOOTH",
"327.581 618.439 OFFCURVE",
"333.232 618.945 OFFCURVE",
"339.004 619.021 CURVE",
"339.004 634.583 LINE",
"198.903 634.583 LINE",
"198.903 619.021 LINE",
"204.673 618.945 OFFCURVE",
"210.325 618.439 OFFCURVE",
"215.863 617.318 CURVE SMOOTH",
"228.586 614.743 OFFCURVE",
"233.532 606.387 OFFCURVE",
"235.071 597.548 CURVE SMOOTH",
"235 122 LINE",
"226.891 99.338 OFFCURVE",
"193.287 56.986 OFFCURVE",
"153.004 56.986 CURVE SMOOTH",
"127.669 56.986 OFFCURVE",
"112.819 70.363 OFFCURVE",
"83.004 70.363 CURVE SMOOTH",
"55.687 70.363 OFFCURVE",
"30.058 53.795 OFFCURVE",
"30.058 27.583 CURVE SMOOTH",
"30.058 7.031 OFFCURVE",
"82.63 3.51 OFFCURVE",
"96.004 3.51 CURVE SMOOTH",
"159.591 3.51 OFFCURVE",
"205.314 40.433 OFFCURVE",
"234.989 68.47 CURVE",
"234.977 10.496 LINE SMOOTH",
"234.977 -1.453 OFFCURVE",
"236.468 -6.771 OFFCURVE",
"241.004 -6.771 CURVE SMOOTH"
);
}
);
userData = {
com.fontlab.hintData = {
hhints = (
{
position = -7;
width = 21;
},
{
position = 4;
width = 53;
},
{
position = 20;
width = 14;
},
{
position = 619;
width = 16;
}
);
vhints = (
{
position = 235;
width = 68;
}
);
};
com.schriftgestaltung.Glyphs.lastChange = "2019-09-01 00:49:25 +0000";
};
width = 377;
}
);
unicode = 027A;
},
{
glyphname = v;
layers = (
{
layerId = master01;
paths = (
{
closed = 1;
nodes = (
"262 -9 OFFCURVE",
"267 -5 OFFCURVE",
"270 0 CURVE SMOOTH",
"275 9 OFFCURVE",
"341 172 OFFCURVE",
"395 306 CURVE SMOOTH",
"434 402 OFFCURVE",
"467 479 OFFCURVE",
"468 481 CURVE SMOOTH",
"469 483 OFFCURVE",
"473 489 OFFCURVE",
"478 490 CURVE",
"481 491 OFFCURVE",
"492 491 OFFCURVE",
"495 491 CURVE",
"495 507 LINE",
"380 507 LINE",
"380 491 LINE",
"386 491 OFFCURVE",
"389 491 OFFCURVE",
"395 490 CURVE SMOOTH",
"405 488 OFFCURVE",
"413 482 OFFCURVE",
"413 474 CURVE SMOOTH",
"413 472 OFFCURVE",
"411 465 OFFCURVE",
"410 463 CURVE",
"358 321 LINE SMOOTH",
"327 235 OFFCURVE",
"283 138 OFFCURVE",
"273 117 CURVE",
"265 137 OFFCURVE",
"230 235 OFFCURVE",
"204 311 CURVE SMOOTH",
"152 465 LINE",
"150 470 OFFCURVE",
"149 475 OFFCURVE",
"149 479 CURVE SMOOTH",
"149 485 OFFCURVE",
"152 489 OFFCURVE",
"160 490 CURVE",
"166 491 OFFCURVE",
"172 492 OFFCURVE",
"178 492 CURVE",
"178 507 LINE",
"46 507 LINE",
"46 491 LINE",
"50 491 OFFCURVE",
"57 491 OFFCURVE",
"61 490 CURVE",
"67 489 OFFCURVE",
"69 485 OFFCURVE",
"72 478 CURVE",
"142 287 LINE SMOOTH",
"183 174 OFFCURVE",
"224 52 OFFCURVE",
"229 37 CURVE SMOOTH",
"234 22 OFFCURVE",
"240 6 OFFCURVE",
"243 0 CURVE SMOOTH",
"246 -6 OFFCURVE",
"251 -9 OFFCURVE",
"256 -9 CURVE SMOOTH"
);
}
);
userData = {
com.fontlab.hintData = {
hhints = (
{
position = -9;
width = 21;
},
{
position = -9;
width = 21;
},
{
position = 492;
width = 15;
}
);
};
com.schriftgestaltung.Glyphs.lastChange = "2019-09-01 23:33:36 +0000";
};
width = 533;
}
);
unicode = 0076;
},
{
glyphname = w;
layers = (
{
layerId = master01;
paths = (
{
closed = 1;
nodes = (
"270 -8 OFFCURVE",
"276 -6 OFFCURVE",
"278 -2 CURVE SMOOTH",
"282 7 OFFCURVE",
"350 169 OFFCURVE",
"401 304 CURVE SMOOTH",
"407 320 OFFCURVE",
"413 335 OFFCURVE",
"419 349 CURVE",
"427 329 OFFCURVE",
"435 307 OFFCURVE",
"443 285 CURVE SMOOTH",
"468 217 OFFCURVE",
"531 37 OFFCURVE",
"533 31 CURVE SMOOTH",
"537 20 OFFCURVE",
"541 9 OFFCURVE",
"546 -1 CURVE SMOOTH",
"548 -5 OFFCURVE",
"552 -7 OFFCURVE",
"557 -7 CURVE SMOOTH",
"562 -7 OFFCURVE",
"566 -6 OFFCURVE",
"568 -2 CURVE SMOOTH",
"573 7 OFFCURVE",
"637 170 OFFCURVE",
"689 304 CURVE SMOOTH",
"726 400 OFFCURVE",
"763 482 OFFCURVE",
"764 484 CURVE SMOOTH",
"765 487 OFFCURVE",
"767 489 OFFCURVE",
"772 490 CURVE SMOOTH",
"775 491 OFFCURVE",
"782 491 OFFCURVE",
"785 491 CURVE",
"785 507 LINE",
"672 507 LINE",
"672 491 LINE",
"678 491 OFFCURVE",
"683 491 OFFCURVE",
"689 490 CURVE SMOOTH",
"699 488 OFFCURVE",
"707 480 OFFCURVE",
"707 472 CURVE SMOOTH",
"707 469 OFFCURVE",
"707 468 OFFCURVE",
"706 465 CURVE SMOOTH",
"651 319 LINE SMOOTH",
"620 238 OFFCURVE",
"582 150 OFFCURVE",
"572 128 CURVE",
"564 149 OFFCURVE",
"533 231 OFFCURVE",
"505 309 CURVE SMOOTH",
"479 380 OFFCURVE",
"455 448 OFFCURVE",
"451 462 CURVE SMOOTH",
"450 466 OFFCURVE",
"449 471 OFFCURVE",
"449 478 CURVE SMOOTH",
"449 484 OFFCURVE",
"452 489 OFFCURVE",
"460 490 CURVE SMOOTH",
"466 491 OFFCURVE",
"472 491 OFFCURVE",
"478 491 CURVE",
"478 507 LINE",
"346 507 LINE",
"346 491 LINE",
"349 491 OFFCURVE",
"355 491 OFFCURVE",
"360 490 CURVE SMOOTH",
"366 489 OFFCURVE",
"369 483 OFFCURVE",
"371 478 CURVE SMOOTH",
"397 408 LINE",
"388 383 OFFCURVE",
"376 352 OFFCURVE",
"363 319 CURVE SMOOTH",
"331 238 OFFCURVE",
"291 150 OFFCURVE",
"281 128 CURVE",
"272 149 OFFCURVE",
"241 231 OFFCURVE",
"214 309 CURVE",
"161 464 LINE",
"158 472 OFFCURVE",
"158 474 OFFCURVE",
"158 477 CURVE SMOOTH",
"158 483 OFFCURVE",
"161 489 OFFCURVE",
"169 490 CURVE SMOOTH",
"175 491 OFFCURVE",
"181 491 OFFCURVE",
"187 491 CURVE",
"187 507 LINE",
"52 507 LINE",
"52 490 LINE",
"56 490 OFFCURVE",
"62 490 OFFCURVE",
"66 489 CURVE SMOOTH",
"74 487 OFFCURVE",
"75 484 OFFCURVE",
"77 478 CURVE",
"149 285 LINE",
"189 177 OFFCURVE",
"233 57 OFFCURVE",
"240 37 CURVE SMOOTH",
"241 34 OFFCURVE",
"252 1 OFFCURVE",
"253 -1 CURVE SMOOTH",
"255 -5 OFFCURVE",
"260 -8 OFFCURVE",
"265 -8 CURVE SMOOTH"
);
}
);
userData = {
com.fontlab.hintData = {
hhints = (
{
position = -8;
width = 22;
},
{
position = -8;
width = 22;
},
{
position = 491;
width = 15;
}
);
};
com.schriftgestaltung.Glyphs.lastChange = "2019-09-01 23:35:12 +0000";
};
width = 834;
}
);
unicode = 0077;
},
{
glyphname = x;
layers = (
{
layerId = master01;
paths = (
{
closed = 1;
nodes = (
"169 0 LINE",
"169 16 LINE",
"163 16 OFFCURVE",
"157 16 OFFCURVE",
"152 17 CURVE SMOOTH",
"142 19 OFFCURVE",
"137 24 OFFCURVE",
"137 30 CURVE SMOOTH",
"137 33 OFFCURVE",
"138 35 OFFCURVE",
"140 38 CURVE",
"166 76 OFFCURVE",
"220 153 OFFCURVE",
"273 223 CURVE",
"311 165 OFFCURVE",
"367 83 OFFCURVE",
"398 38 CURVE SMOOTH",
"399 36 OFFCURVE",
"400 34 OFFCURVE",
"400 32 CURVE SMOOTH",
"400 25 OFFCURVE",
"394 19 OFFCURVE",
"383 17 CURVE SMOOTH",
"378 16 OFFCURVE",
"374 16 OFFCURVE",
"369 16 CURVE",
"369 0 LINE",
"516 0 LINE",
"516 16 LINE",
"510 16 OFFCURVE",
"506 16 OFFCURVE",
"501 17 CURVE SMOOTH",
"494 18 OFFCURVE",
"489 22 OFFCURVE",
"486 25 CURVE SMOOTH",
"454 57 OFFCURVE",
"405 130 OFFCURVE",
"315 279 CURVE",
"473 484 LINE",
"478 489 OFFCURVE",
"487 491 OFFCURVE",
"498 491 CURVE",
"498 507 LINE",
"379 507 LINE",
"379 491 LINE",
"393 491 OFFCURVE",
"414 489 OFFCURVE",
"414 477 CURVE SMOOTH",
"414 474 OFFCURVE",
"413 472 OFFCURVE",
"410 468 CURVE",
"296 309 LINE",
"187 469 LINE",
"185 472 OFFCURVE",
"183 476 OFFCURVE",
"183 482 CURVE SMOOTH",
"183 486 OFFCURVE",
"186 489 OFFCURVE",
"193 490 CURVE SMOOTH",
"199 491 OFFCURVE",
"204 491 OFFCURVE",
"209 491 CURVE",
"209 507 LINE",
"70 507 LINE",
"70 491 LINE",
"76 491 OFFCURVE",
"81 491 OFFCURVE",
"86 489 CURVE SMOOTH",
"95 486 OFFCURVE",
"99 482 OFFCURVE",
"104 476 CURVE SMOOTH",
"105 475 OFFCURVE",
"201 334 OFFCURVE",
"253 255 CURVE",
"206 195 OFFCURVE",
"146 114 OFFCURVE",
"111 66 CURVE SMOOTH",
"93 42 OFFCURVE",
"81 26 OFFCURVE",
"80 25 CURVE SMOOTH",
"76 21 OFFCURVE",
"73 18 OFFCURVE",
"66 17 CURVE SMOOTH",
"61 16 OFFCURVE",
"58 16 OFFCURVE",
"52 16 CURVE",
"52 0 LINE"
);
}
);
userData = {
com.fontlab.hintData = {
hhints = (
{
position = 0;
width = 16;
},
{
position = 491;
width = 15;
}
);
};
com.schriftgestaltung.Glyphs.lastChange = "2019-09-01 23:36:09 +0000";
};
width = 572;
}
);
unicode = 0078;
},
{
glyphname = y;
layers = (
{
layerId = master01;
paths = (
{
closed = 1;
nodes = (
"160 -227 OFFCURVE",
"236 -93 OFFCURVE",
"258 -54 CURVE SMOOTH",
"269 -35 OFFCURVE",
"291 17 OFFCURVE",
"305 57 CURVE SMOOTH",
"321 103 OFFCURVE",
"344 164 OFFCURVE",
"371 226 CURVE SMOOTH",
"381 249 OFFCURVE",
"390 271 OFFCURVE",
"399 294 CURVE SMOOTH",
"437 390 OFFCURVE",
"466 468 OFFCURVE",
"470 479 CURVE SMOOTH",
"473 487 OFFCURVE",
"488 491 OFFCURVE",
"500 492 CURVE",
"500 507 LINE",
"383 507 LINE",
"383 492 LINE",
"405 491 OFFCURVE",
"421 487 OFFCURVE",
"421 471 CURVE SMOOTH",
"421 468 OFFCURVE",
"420 463 OFFCURVE",
"418 458 CURVE",
"362 309 LINE SMOOTH",
"348 272 OFFCURVE",
"332 233 OFFCURVE",
"317 198 CURVE SMOOTH",
"299 156 OFFCURVE",
"284 121 OFFCURVE",
"280 109 CURVE",
"276 117 OFFCURVE",
"269 136 OFFCURVE",
"260 161 CURVE SMOOTH",
"246 199 OFFCURVE",
"227 251 OFFCURVE",
"210 298 CURVE SMOOTH",
"196 336 OFFCURVE",
"186 366 OFFCURVE",
"178 390 CURVE SMOOTH",
"159 446 OFFCURVE",
"152 467 OFFCURVE",
"152 476 CURVE SMOOTH",
"152 491 OFFCURVE",
"168 491 OFFCURVE",
"181 491 CURVE",
"181 507 LINE",
"47 507 LINE",
"47 491 LINE",
"64 491 OFFCURVE",
"68 485 OFFCURVE",
"71 477 CURVE SMOOTH",
"147 275 LINE SMOOTH",
"188 165 OFFCURVE",
"230 47 OFFCURVE",
"237 27 CURVE SMOOTH",
"238 24 OFFCURVE",
"243 8 OFFCURVE",
"244 1 CURVE",
"238 -18 OFFCURVE",
"212 -78 OFFCURVE",
"195 -99 CURVE SMOOTH",
"174 -125 OFFCURVE",
"155 -134 OFFCURVE",
"137 -142 CURVE SMOOTH",
"117 -151 OFFCURVE",
"102 -158 OFFCURVE",
"92 -186 CURVE SMOOTH",
"90 -192 OFFCURVE",
"88 -200 OFFCURVE",
"88 -208 CURVE SMOOTH",
"88 -218 OFFCURVE",
"93 -227 OFFCURVE",
"102 -227 CURVE SMOOTH"
);
}
);
userData = {
com.fontlab.hintData = {
hhints = (
{
position = 492;
width = 15;
}
);
};
com.schriftgestaltung.Glyphs.lastChange = "2019-09-01 23:41:09 +0000";
};
width = 546;
}
);
unicode = 0079;
},
{
glyphname = z;
layers = (
{
layerId = master01;
paths = (
{
closed = 1;
nodes = (
"462 0 LINE",
"486 75 LINE",
"469 81 LINE",
"467 77 OFFCURVE",
"465 73 OFFCURVE",
"462 69 CURVE SMOOTH",
"458 63 OFFCURVE",
"454 63 OFFCURVE",
"448 63 CURVE SMOOTH",
"412 61 OFFCURVE",
"352 60 OFFCURVE",
"289 60 CURVE SMOOTH",
"238 60 OFFCURVE",
"184 60 OFFCURVE",
"151 62 CURVE",
"171 88 OFFCURVE",
"229 164 OFFCURVE",
"296 253 CURVE SMOOTH",
"373 355 OFFCURVE",
"468 478 OFFCURVE",
"474 484 CURVE SMOOTH",
"476 486 OFFCURVE",
"476 489 OFFCURVE",
"476 492 CURVE SMOOTH",
"476 499 OFFCURVE",
"472 507 OFFCURVE",
"470 507 CURVE",
"450 506 OFFCURVE",
"354 505 OFFCURVE",
"263 505 CURVE SMOOTH",
"188 505 OFFCURVE",
"117 506 OFFCURVE",
"95 507 CURVE",
"73 444 LINE",
"90 438 LINE",
"97 450 LINE",
"100 456 OFFCURVE",
"108 457 OFFCURVE",
"113 457 CURVE SMOOTH",
"134 458 OFFCURVE",
"249 458 OFFCURVE",
"340 458 CURVE SMOOTH",
"361 458 OFFCURVE",
"381 458 OFFCURVE",
"397 458 CURVE",
"376 426 OFFCURVE",
"331 359 OFFCURVE",
"265 275 CURVE SMOOTH",
"192 183 OFFCURVE",
"103 75 OFFCURVE",
"60 32 CURVE SMOOTH",
"57 29 OFFCURVE",
"56 23 OFFCURVE",
"56 18 CURVE SMOOTH",
"56 9 OFFCURVE",
"59 0 OFFCURVE",
"61 0 CURVE SMOOTH"
);
}
);
userData = {
com.fontlab.hintData = {
hhints = (
{
position = 0;
width = 61;
},
{
position = 458;
width = 47;
}
);
};
com.schriftgestaltung.Glyphs.lastChange = "2019-09-01 23:44:53 +0000";
};
width = 535;
}
);
unicode = 007A;
},
{
glyphname = uniFB00;
layers = (
{
layerId = master01;
paths = (
{
closed = 1;
nodes = (
"173 0 LINE",
"173 16 LINE",
"167 16 OFFCURVE",
"162 16 OFFCURVE",
"156 17 CURVE SMOOTH",
"143 19 OFFCURVE",
"137 28 OFFCURVE",
"137 37 CURVE SMOOTH",
"137 469 LINE",
"169 469 OFFCURVE",
"299 469 OFFCURVE",
"362 469 CURVE",
"362 37 LINE SMOOTH",
"362 28 OFFCURVE",
"356 19 OFFCURVE",
"343 17 CURVE SMOOTH",
"337 16 OFFCURVE",
"332 16 OFFCURVE",
"326 16 CURVE",
"326 0 LINE",
"467 0 LINE",
"467 16 LINE",
"461 16 OFFCURVE",
"456 16 OFFCURVE",
"450 17 CURVE SMOOTH",
"437 19 OFFCURVE",
"431 28 OFFCURVE",
"431 37 CURVE SMOOTH",
"431 469 LINE",
"473 469 OFFCURVE",
"570 467 OFFCURVE",
"576 467 CURVE",
"580 479 LINE SMOOTH",
"581 483 OFFCURVE",
"582 487 OFFCURVE",
"582 490 CURVE SMOOTH",
"582 499 OFFCURVE",
"576 505 OFFCURVE",
"555 505 CURVE SMOOTH",
"543 505 OFFCURVE",
"423 505 OFFCURVE",
"423 505 CURVE",
"423 539 LINE SMOOTH",
"423 540 OFFCURVE",
"423 540 OFFCURVE",
"423 541 CURVE SMOOTH",
"423 548 OFFCURVE",
"422 556 OFFCURVE",
"422 563 CURVE SMOOTH",
"422 666 OFFCURVE",
"479 736 OFFCURVE",
"553 736 CURVE SMOOTH",
"627 736 OFFCURVE",
"611 652 OFFCURVE",
"668 652 CURVE SMOOTH",
"685 652 OFFCURVE",
"707 661 OFFCURVE",
"707 673 CURVE SMOOTH",
"707 676 OFFCURVE",
"706 679 OFFCURVE",
"703 682 CURVE SMOOTH",
"651 734 OFFCURVE",
"599 754 OFFCURVE",
"555 754 CURVE SMOOTH",
"490 754 OFFCURVE",
"423 723 OFFCURVE",
"393 674 CURVE",
"362 714 OFFCURVE",
"300 728 OFFCURVE",
"256 728 CURVE SMOOTH",
"155 728 OFFCURVE",
"70 664 OFFCURVE",
"70 543 CURVE SMOOTH",
"70 534 OFFCURVE",
"69 521 OFFCURVE",
"69 512 CURVE",
"69 501 LINE",
"21 501 LINE",
"13 465 LINE",
"13 465 OFFCURVE",
"40 469 OFFCURVE",
"69 469 CURVE",
"69 37 LINE SMOOTH",
"69 28 OFFCURVE",
"63 19 OFFCURVE",
"50 17 CURVE SMOOTH",
"44 16 OFFCURVE",
"39 16 OFFCURVE",
"33 16 CURVE",
"33 0 LINE"
);
},
{
closed = 1;
nodes = (
"129 516 OFFCURVE",
"129 527 OFFCURVE",
"129 538 CURVE SMOOTH",
"129 641 OFFCURVE",
"185 711 OFFCURVE",
"259 711 CURVE SMOOTH",
"328 711 OFFCURVE",
"363 641 OFFCURVE",
"368 611 CURVE",
"366 598 OFFCURVE",
"363 584 OFFCURVE",
"363 568 CURVE SMOOTH",
"363 559 OFFCURVE",
"362 546 OFFCURVE",
"362 537 CURVE SMOOTH",
"362 505 LINE",
"129 505 LINE"
);
}
);
userData = {
com.fontlab.hintData = {
hhints = (
{
position = 0;
width = 16;
},
{
position = 469;
width = 36;
},
{
position = 711;
width = 17;
},
{
position = 736;
width = 18;
}
);
vhints = (
{
position = 69;
width = 68;
},
{
position = 69;
width = 60;
},
{
position = 362;
width = 69;
},
{
position = 362;
width = 61;
}
);
};
com.schriftgestaltung.Glyphs.lastChange = "2019-09-01 00:49:25 +0000";
};
width = 720;
}
);
unicode = FB00;
},
{
glyphname = uniFB01;
layers = (
{
layerId = master01;
paths = (
{
closed = 1;
nodes = (
"181 0 LINE",
"181 16 LINE",
"175 16 OFFCURVE",
"170 16 OFFCURVE",
"164 17 CURVE SMOOTH",
"151 19 OFFCURVE",
"145 28 OFFCURVE",
"145 37 CURVE SMOOTH",
"145 464 LINE",
"187 464 OFFCURVE",
"328 464 OFFCURVE",
"335 464 CURVE SMOOTH",
"338 464 OFFCURVE",
"342 464 OFFCURVE",
"346 463 CURVE SMOOTH",
"358 460 OFFCURVE",
"365 454 OFFCURVE",
"365 436 CURVE SMOOTH",
"365 37 LINE SMOOTH",
"365 28 OFFCURVE",
"359 19 OFFCURVE",
"346 17 CURVE SMOOTH",
"340 16 OFFCURVE",
"335 16 OFFCURVE",
"329 16 CURVE",
"329 0 LINE",
"469 0 LINE",
"469 16 LINE",
"463 16 OFFCURVE",
"458 16 OFFCURVE",
"452 17 CURVE SMOOTH",
"439 19 OFFCURVE",
"433 28 OFFCURVE",
"433 37 CURVE SMOOTH",
"433 492 LINE SMOOTH",
"433 504 OFFCURVE",
"432 509 OFFCURVE",
"427 509 CURVE SMOOTH",
"426 509 OFFCURVE",
"425 509 OFFCURVE",
"424 509 CURVE SMOOTH",
"377 496 LINE",
"137 496 LINE",
"137 545 LINE",
"137 569 LINE SMOOTH",
"137 672 OFFCURVE",
"193 744 OFFCURVE",
"267 744 CURVE SMOOTH",
"325 744 OFFCURVE",
"331 689 OFFCURVE",
"347 652 CURVE SMOOTH",
"354 636 OFFCURVE",
"369 624 OFFCURVE",
"390 624 CURVE SMOOTH",
"416 624 OFFCURVE",
"437 644 OFFCURVE",
"437 670 CURVE SMOOTH",
"437 732 OFFCURVE",
"328 764 OFFCURVE",
"290 764 CURVE SMOOTH",
"169 764 OFFCURVE",
"80 712 OFFCURVE",
"80 574 CURVE SMOOTH",
"80 565 OFFCURVE",
"79 552 OFFCURVE",
"79 543 CURVE SMOOTH",
"79 496 LINE",
"31 496 LINE",
"23 460 LINE",
"23 460 OFFCURVE",
"50 464 OFFCURVE",
"79 464 CURVE",
"79 37 LINE SMOOTH",
"79 28 OFFCURVE",
"73 19 OFFCURVE",
"60 17 CURVE SMOOTH",
"54 16 OFFCURVE",
"49 16 OFFCURVE",
"43 16 CURVE",
"43 0 LINE"
);
}
);
userData = {
com.fontlab.hintData = {
hhints = (
{
position = 0;
width = 16;
},
{
position = 464;
width = 32;
},
{
position = 489;
width = 20;
},
{
position = 744;
width = 20;
}
);
vhints = (
{
position = 79;
width = 66;
},
{
position = 79;
width = 58;
},
{
position = 347;
width = 90;
},
{
position = 365;
width = 68;
}
);
};
com.schriftgestaltung.Glyphs.lastChange = "2019-09-01 00:49:25 +0000";
};
width = 496;
}
);
unicode = FB01;
},
{
glyphname = uniFB02;
layers = (
{
layerId = master01;
paths = (
{
closed = 1;
nodes = (
"477 -1 LINE",
"477 15 LINE",
"471 15 OFFCURVE",
"465 15 OFFCURVE",
"460 16 CURVE SMOOTH",
"447 19 OFFCURVE",
"441 27 OFFCURVE",
"441 36 CURVE SMOOTH",
"441 744 LINE SMOOTH",
"441 756 OFFCURVE",
"440 761 OFFCURVE",
"435 761 CURVE SMOOTH",
"434 761 OFFCURVE",
"433 761 OFFCURVE",
"432 761 CURVE SMOOTH",
"368 742 LINE",
"344 754 OFFCURVE",
"319 757 OFFCURVE",
"296 757 CURVE SMOOTH",
"176 757 OFFCURVE",
"79 706 OFFCURVE",
"79 568 CURVE SMOOTH",
"79 559 OFFCURVE",
"78 546 OFFCURVE",
"78 537 CURVE",
"78 500 LINE",
"30 500 LINE",
"23 465 LINE",
"23 465 OFFCURVE",
"49 468 OFFCURVE",
"78 468 CURVE",
"78 37 LINE SMOOTH",
"78 28 OFFCURVE",
"72 19 OFFCURVE",
"59 17 CURVE SMOOTH",
"53 16 OFFCURVE",
"48 16 OFFCURVE",
"42 16 CURVE",
"42 0 LINE",
"183 0 LINE",
"183 16 LINE",
"177 16 OFFCURVE",
"172 16 OFFCURVE",
"166 17 CURVE SMOOTH",
"153 19 OFFCURVE",
"147 28 OFFCURVE",
"147 37 CURVE SMOOTH",
"147 469 LINE",
"189 469 OFFCURVE",
"286 467 OFFCURVE",
"292 467 CURVE",
"296 479 LINE SMOOTH",
"297 483 OFFCURVE",
"298 487 OFFCURVE",
"298 491 CURVE SMOOTH",
"298 499 OFFCURVE",
"292 505 OFFCURVE",
"271 505 CURVE SMOOTH",
"259 505 OFFCURVE",
"139 505 OFFCURVE",
"139 505 CURVE",
"139 541 LINE SMOOTH",
"139 548 OFFCURVE",
"139 556 OFFCURVE",
"139 563 CURVE SMOOTH",
"139 666 OFFCURVE",
"195 736 OFFCURVE",
"269 736 CURVE SMOOTH",
"330 736 OFFCURVE",
"356 701 OFFCURVE",
"374 668 CURVE",
"374 36 LINE SMOOTH",
"374 27 OFFCURVE",
"368 18 OFFCURVE",
"355 16 CURVE SMOOTH",
"349 15 OFFCURVE",
"344 15 OFFCURVE",
"338 15 CURVE",
"338 -1 LINE"
);
},
{
closed = 0;
nodes = (
"79 501 LINE"
);
}
);
userData = {
com.fontlab.hintData = {
hhints = (
{
position = 0;
width = 16;
},
{
position = 467;
width = 38;
},
{
position = 736;
width = 21;
}
);
vhints = (
{
position = 78;
width = 69;
},
{
position = 78;
width = 61;
},
{
position = 374;
width = 67;
}
);
};
com.schriftgestaltung.Glyphs.lastChange = "2019-09-01 00:49:25 +0000";
};
width = 492;
}
);
unicode = FB02;
},
{
glyphname = uniFB03;
layers = (
{
layerId = master01;
paths = (
{
closed = 1;
nodes = (
"173 0 LINE",
"173 16 LINE",
"167 16 OFFCURVE",
"162 16 OFFCURVE",
"156 17 CURVE SMOOTH",
"143 19 OFFCURVE",
"137 28 OFFCURVE",
"137 37 CURVE SMOOTH",
"137 460 LINE",
"168 460 OFFCURVE",
"292 460 OFFCURVE",
"356 460 CURVE",
"356 37 LINE SMOOTH",
"356 28 OFFCURVE",
"350 19 OFFCURVE",
"337 17 CURVE SMOOTH",
"331 16 OFFCURVE",
"326 16 OFFCURVE",
"320 16 CURVE",
"320 0 LINE",
"458 0 LINE",
"458 16 LINE",
"452 16 OFFCURVE",
"447 16 OFFCURVE",
"441 17 CURVE SMOOTH",
"428 19 OFFCURVE",
"422 28 OFFCURVE",
"422 37 CURVE SMOOTH",
"422 464 LINE",
"464 464 OFFCURVE",
"605 464 OFFCURVE",
"612 464 CURVE SMOOTH",
"615 464 OFFCURVE",
"619 464 OFFCURVE",
"623 463 CURVE SMOOTH",
"635 460 OFFCURVE",
"642 454 OFFCURVE",
"642 436 CURVE SMOOTH",
"642 37 LINE SMOOTH",
"642 28 OFFCURVE",
"636 20 OFFCURVE",
"623 17 CURVE SMOOTH",
"618 16 OFFCURVE",
"612 16 OFFCURVE",
"606 16 CURVE",
"606 0 LINE",
"746 0 LINE",
"746 16 LINE",
"740 16 OFFCURVE",
"735 16 OFFCURVE",
"729 17 CURVE SMOOTH",
"717 19 OFFCURVE",
"710 28 OFFCURVE",
"710 37 CURVE SMOOTH",
"710 492 LINE SMOOTH",
"710 504 OFFCURVE",
"709 509 OFFCURVE",
"704 509 CURVE SMOOTH",
"703 509 OFFCURVE",
"702 509 OFFCURVE",
"701 509 CURVE SMOOTH",
"654 496 LINE",
"414 496 LINE",
"414 547 LINE SMOOTH",
"414 554 OFFCURVE",
"414 562 OFFCURVE",
"414 569 CURVE SMOOTH",
"414 672 OFFCURVE",
"470 744 OFFCURVE",
"544 744 CURVE SMOOTH",
"602 744 OFFCURVE",
"608 689 OFFCURVE",
"624 652 CURVE SMOOTH",
"631 636 OFFCURVE",
"646 624 OFFCURVE",
"667 624 CURVE SMOOTH",
"693 624 OFFCURVE",
"714 644 OFFCURVE",
"714 670 CURVE SMOOTH",
"714 678 OFFCURVE",
"711 689 OFFCURVE",
"706 696 CURVE SMOOTH",
"668 749 OFFCURVE",
"614 764 OFFCURVE",
"567 764 CURVE SMOOTH",
"484 764 OFFCURVE",
"420 738 OFFCURVE",
"386 681 CURVE",
"354 715 OFFCURVE",
"297 728 OFFCURVE",
"256 728 CURVE SMOOTH",
"154 728 OFFCURVE",
"70 658 OFFCURVE",
"70 543 CURVE SMOOTH",
"70 534 OFFCURVE",
"69 521 OFFCURVE",
"69 512 CURVE SMOOTH",
"69 492 LINE",
"21 492 LINE",
"13 456 LINE",
"13 456 OFFCURVE",
"40 460 OFFCURVE",
"69 460 CURVE",
"69 37 LINE SMOOTH",
"69 28 OFFCURVE",
"63 19 OFFCURVE",
"50 17 CURVE SMOOTH",
"44 16 OFFCURVE",
"39 16 OFFCURVE",
"33 16 CURVE",
"33 0 LINE"
);
},
{
closed = 1;
nodes = (
"129 516 LINE SMOOTH",
"129 523 OFFCURVE",
"129 531 OFFCURVE",
"129 538 CURVE SMOOTH",
"129 641 OFFCURVE",
"185 711 OFFCURVE",
"259 711 CURVE SMOOTH",
"319 711 OFFCURVE",
"353 660 OFFCURVE",
"364 626 CURVE",
"361 611 OFFCURVE",
"357 593 OFFCURVE",
"357 574 CURVE SMOOTH",
"357 565 OFFCURVE",
"356 552 OFFCURVE",
"356 543 CURVE SMOOTH",
"356 496 LINE",
"308 496 LINE",
"129 496 LINE"
);
}
);
userData = {
com.fontlab.hintData = {
hhints = (
{
position = 0;
width = 16;
},
{
position = 460;
width = 36;
},
{
position = 489;
width = 20;
},
{
position = 711;
width = 17;
},
{
position = 744;
width = 20;
}
);
vhints = (
{
position = 69;
width = 68;
},
{
position = 69;
width = 60;
},
{
position = 356;
width = 66;
},
{
position = 356;
width = 58;
},
{
position = 624;
width = 90;
},
{
position = 642;
width = 68;
}
);
};
com.schriftgestaltung.Glyphs.lastChange = "2019-09-01 00:49:25 +0000";
};
width = 756;
}
);
unicode = FB03;
},
{
glyphname = uniFB04;
layers = (
{
layerId = master01;
paths = (
{
closed = 1;
nodes = (
"785 -1 LINE",
"785 15 LINE",
"779 15 OFFCURVE",
"773 15 OFFCURVE",
"768 16 CURVE SMOOTH",
"755 19 OFFCURVE",
"749 27 OFFCURVE",
"749 36 CURVE SMOOTH",
"749 744 LINE SMOOTH",
"749 756 OFFCURVE",
"748 761 OFFCURVE",
"743 761 CURVE SMOOTH",
"742 761 OFFCURVE",
"741 761 OFFCURVE",
"740 761 CURVE SMOOTH",
"675 742 LINE",
"651 754 OFFCURVE",
"627 757 OFFCURVE",
"604 757 CURVE SMOOTH",
"520 757 OFFCURVE",
"451 730 OFFCURVE",
"417 674 CURVE",
"386 714 OFFCURVE",
"324 728 OFFCURVE",
"280 728 CURVE SMOOTH",
"180 728 OFFCURVE",
"94 660 OFFCURVE",
"94 543 CURVE SMOOTH",
"94 530 OFFCURVE",
"93 515 OFFCURVE",
"93 501 CURVE",
"45 501 LINE",
"37 465 LINE",
"37 465 OFFCURVE",
"64 469 OFFCURVE",
"93 469 CURVE",
"93 37 LINE SMOOTH",
"93 28 OFFCURVE",
"87 19 OFFCURVE",
"74 17 CURVE SMOOTH",
"68 16 OFFCURVE",
"63 16 OFFCURVE",
"57 16 CURVE",
"57 0 LINE",
"197 0 LINE",
"197 16 LINE",
"191 16 OFFCURVE",
"186 16 OFFCURVE",
"180 17 CURVE SMOOTH",
"167 19 OFFCURVE",
"161 28 OFFCURVE",
"161 37 CURVE SMOOTH",
"161 469 LINE",
"193 469 OFFCURVE",
"323 469 OFFCURVE",
"386 469 CURVE",
"386 37 LINE SMOOTH",
"386 28 OFFCURVE",
"380 19 OFFCURVE",
"367 17 CURVE SMOOTH",
"361 16 OFFCURVE",
"356 16 OFFCURVE",
"350 16 CURVE",
"350 0 LINE",
"491 0 LINE",
"491 16 LINE",
"485 16 OFFCURVE",
"480 16 OFFCURVE",
"474 17 CURVE SMOOTH",
"461 19 OFFCURVE",
"455 28 OFFCURVE",
"455 37 CURVE SMOOTH",
"455 469 LINE",
"497 469 OFFCURVE",
"594 467 OFFCURVE",
"600 467 CURVE",
"604 479 LINE SMOOTH",
"605 483 OFFCURVE",
"606 487 OFFCURVE",
"606 490 CURVE SMOOTH",
"606 499 OFFCURVE",
"600 505 OFFCURVE",
"579 505 CURVE SMOOTH",
"567 505 OFFCURVE",
"447 505 OFFCURVE",
"447 505 CURVE",
"447 541 LINE SMOOTH",
"447 548 OFFCURVE",
"446 556 OFFCURVE",
"446 563 CURVE SMOOTH",
"446 666 OFFCURVE",
"503 736 OFFCURVE",
"577 736 CURVE SMOOTH",
"638 736 OFFCURVE",
"664 701 OFFCURVE",
"682 668 CURVE",
"682 36 LINE SMOOTH",
"682 27 OFFCURVE",
"675 18 OFFCURVE",
"663 16 CURVE SMOOTH",
"657 15 OFFCURVE",
"651 15 OFFCURVE",
"646 15 CURVE",
"646 -1 LINE"
);
},
{
closed = 1;
nodes = (
"153 514 LINE",
"153 538 LINE SMOOTH",
"153 641 OFFCURVE",
"209 711 OFFCURVE",
"283 711 CURVE SMOOTH",
"352 711 OFFCURVE",
"387 641 OFFCURVE",
"392 611 CURVE",
"390 598 OFFCURVE",
"387 584 OFFCURVE",
"387 568 CURVE SMOOTH",
"387 559 OFFCURVE",
"386 546 OFFCURVE",
"386 537 CURVE SMOOTH",
"386 505 LINE",
"153 505 LINE"
);
}
);
userData = {
com.fontlab.hintData = {
hhints = (
{
position = 0;
width = 16;
},
{
position = 469;
width = 36;
},
{
position = 711;
width = 17;
},
{
position = 736;
width = 21;
}
);
vhints = (
{
position = 93;
width = 68;
},
{
position = 93;
width = 60;
},
{
position = 386;
width = 69;
},
{
position = 386;
width = 61;
},
{
position = 682;
width = 67;
}
);
};
com.schriftgestaltung.Glyphs.lastChange = "2019-09-01 00:49:25 +0000";
};
width = 824;
}
);
unicode = FB04;
},
{
glyphname = uniFB05;
layers = (
{
layerId = master01;
paths = (
{
closed = 1;
nodes = (
"474 -10 OFFCURVE",
"492 -7 OFFCURVE",
"510 -1 CURVE",
"502 29 LINE",
"494 28 OFFCURVE",
"486 27 OFFCURVE",
"479 27 CURVE SMOOTH",
"449 27 OFFCURVE",
"431 41 OFFCURVE",
"419 76 CURVE SMOOTH",
"413 94 OFFCURVE",
"413 135 OFFCURVE",
"413 161 CURVE SMOOTH",
"413 298 LINE",
"413 471 LINE",
"419 472 OFFCURVE",
"427 472 OFFCURVE",
"434 472 CURVE SMOOTH",
"474 472 OFFCURVE",
"510 471 OFFCURVE",
"518 471 CURVE SMOOTH",
"518 471 OFFCURVE",
"519 471 OFFCURVE",
"519 471 CURVE SMOOTH",
"523 488 LINE SMOOTH",
"524 493 OFFCURVE",
"524 496 OFFCURVE",
"524 499 CURVE SMOOTH",
"524 507 OFFCURVE",
"520 511 OFFCURVE",
"501 511 CURVE SMOOTH",
"489 511 OFFCURVE",
"449 510 OFFCURVE",
"413 510 CURVE",
"413 530 OFFCURVE",
"413 653 OFFCURVE",
"413 674 CURVE SMOOTH",
"413 677 OFFCURVE",
"411 689 OFFCURVE",
"409 696 CURVE SMOOTH",
"398 735 OFFCURVE",
"345 756 OFFCURVE",
"300 756 CURVE SMOOTH",
"146 756 OFFCURVE",
"111 684 OFFCURVE",
"96 577 CURVE SMOOTH",
"95 570 OFFCURVE",
"95 561 OFFCURVE",
"95 553 CURVE SMOOTH",
"95 535 OFFCURVE",
"95 515 OFFCURVE",
"95 515 CURVE",
"95 515 OFFCURVE",
"78 509 OFFCURVE",
"66 502 CURVE SMOOTH",
"59 498 OFFCURVE",
"48 491 OFFCURVE",
"40 483 CURVE SMOOTH",
"37 480 OFFCURVE",
"33 475 OFFCURVE",
"33 471 CURVE SMOOTH",
"33 467 OFFCURVE",
"38 463 OFFCURVE",
"42 463 CURVE SMOOTH",
"60 463 OFFCURVE",
"77 463 OFFCURVE",
"95 463 CURVE",
"95 37 LINE SMOOTH",
"95 28 OFFCURVE",
"89 19 OFFCURVE",
"76 17 CURVE SMOOTH",
"70 16 OFFCURVE",
"65 16 OFFCURVE",
"59 16 CURVE",
"59 0 LINE",
"197 0 LINE",
"197 16 LINE",
"191 16 OFFCURVE",
"186 16 OFFCURVE",
"180 17 CURVE SMOOTH",
"167 19 OFFCURVE",
"160 26 OFFCURVE",
"160 38 CURVE SMOOTH",
"161 555 LINE",
"161 572 LINE SMOOTH",
"161 645 OFFCURVE",
"179 729 OFFCURVE",
"283 729 CURVE SMOOTH",
"344 729 OFFCURVE",
"362 687 OFFCURVE",
"362 634 CURVE SMOOTH",
"362 561 OFFCURVE",
"303 508 OFFCURVE",
"291 501 CURVE SMOOTH",
"284 497 OFFCURVE",
"272 493 OFFCURVE",
"270 489 CURVE SMOOTH",
"269 487 OFFCURVE",
"268 486 OFFCURVE",
"268 484 CURVE SMOOTH",
"268 481 OFFCURVE",
"269 478 OFFCURVE",
"272 477 CURVE SMOOTH",
"277 475 OFFCURVE",
"319 476 OFFCURVE",
"325 475 CURVE SMOOTH",
"337 473 OFFCURVE",
"344 465 OFFCURVE",
"344 447 CURVE SMOOTH",
"344 163 LINE",
"344 163 LINE",
"344 106 OFFCURVE",
"352 50 OFFCURVE",
"380 22 CURVE SMOOTH",
"403 -1 OFFCURVE",
"428 -10 OFFCURVE",
"456 -10 CURVE SMOOTH"
);
}
);
userData = {
com.fontlab.hintData = {
hhints = (
{
position = -10;
width = 37;
},
{
position = 0;
width = 16;
},
{
position = 471;
width = 40;
},
{
position = 729;
width = 27;
}
);
vhints = (
{
position = 95;
width = 65;
},
{
position = 344;
width = 69;
},
{
position = 362;
width = 51;
}
);
};
com.schriftgestaltung.Glyphs.lastChange = "2019-09-01 00:49:25 +0000";
};
width = 559;
}
);
unicode = FB05;
},
{
glyphname = uniFB06;
layers = (
{
layerId = master01;
paths = (
{
closed = 1;
nodes = (
"286 -10 OFFCURVE",
"359 58 OFFCURVE",
"359 141 CURVE SMOOTH",
"359 203 OFFCURVE",
"300 244 OFFCURVE",
"247 281 CURVE SMOOTH",
"210 307 OFFCURVE",
"127 352 OFFCURVE",
"127 406 CURVE SMOOTH",
"127 443 OFFCURVE",
"158 489 OFFCURVE",
"219 489 CURVE SMOOTH",
"288 489 OFFCURVE",
"305 417 OFFCURVE",
"312 417 CURVE SMOOTH",
"318 417 OFFCURVE",
"334 461 OFFCURVE",
"334 472 CURVE SMOOTH",
"334 474 OFFCURVE",
"332 475 OFFCURVE",
"330 479 CURVE SMOOTH",
"318 503 OFFCURVE",
"312 527 OFFCURVE",
"312 551 CURVE SMOOTH",
"312 627 OFFCURVE",
"372 683 OFFCURVE",
"449 683 CURVE SMOOTH",
"510 683 OFFCURVE",
"575 651 OFFCURVE",
"575 598 CURVE SMOOTH",
"575 525 OFFCURVE",
"489 508 OFFCURVE",
"477 501 CURVE SMOOTH",
"470 497 OFFCURVE",
"458 493 OFFCURVE",
"456 489 CURVE SMOOTH",
"455 487 OFFCURVE",
"454 486 OFFCURVE",
"454 484 CURVE SMOOTH",
"454 481 OFFCURVE",
"455 478 OFFCURVE",
"458 477 CURVE SMOOTH",
"463 475 OFFCURVE",
"505 476 OFFCURVE",
"511 475 CURVE SMOOTH",
"523 473 OFFCURVE",
"530 465 OFFCURVE",
"530 447 CURVE SMOOTH",
"530 163 LINE",
"530 163 LINE",
"530 106 OFFCURVE",
"538 50 OFFCURVE",
"566 22 CURVE SMOOTH",
"589 -1 OFFCURVE",
"614 -10 OFFCURVE",
"642 -10 CURVE SMOOTH",
"660 -10 OFFCURVE",
"678 -7 OFFCURVE",
"696 -1 CURVE",
"688 29 LINE",
"680 28 OFFCURVE",
"672 27 OFFCURVE",
"665 27 CURVE SMOOTH",
"635 27 OFFCURVE",
"617 41 OFFCURVE",
"605 76 CURVE SMOOTH",
"599 94 OFFCURVE",
"599 135 OFFCURVE",
"599 161 CURVE SMOOTH",
"599 298 LINE",
"599 471 LINE",
"605 472 OFFCURVE",
"613 472 OFFCURVE",
"620 472 CURVE SMOOTH",
"660 472 OFFCURVE",
"706 471 OFFCURVE",
"714 471 CURVE SMOOTH",
"714 471 OFFCURVE",
"715 471 OFFCURVE",
"715 471 CURVE SMOOTH",
"719 488 LINE SMOOTH",
"720 493 OFFCURVE",
"720 496 OFFCURVE",
"720 499 CURVE SMOOTH",
"720 507 OFFCURVE",
"716 511 OFFCURVE",
"697 511 CURVE SMOOTH",
"685 511 OFFCURVE",
"635 510 OFFCURVE",
"599 510 CURVE",
"599 530 OFFCURVE",
"599 577 OFFCURVE",
"599 598 CURVE SMOOTH",
"599 601 OFFCURVE",
"598 632 OFFCURVE",
"596 639 CURVE SMOOTH",
"583 686 OFFCURVE",
"528 723 OFFCURVE",
"453 723 CURVE SMOOTH",
"365 723 OFFCURVE",
"292 658 OFFCURVE",
"292 566 CURVE SMOOTH",
"292 543 OFFCURVE",
"296 518 OFFCURVE",
"307 493 CURVE",
"284 502 OFFCURVE",
"250 511 OFFCURVE",
"216 511 CURVE SMOOTH",
"123 511 OFFCURVE",
"65 443 OFFCURVE",
"65 375 CURVE SMOOTH",
"65 310 OFFCURVE",
"149 262 OFFCURVE",
"191 232 CURVE SMOOTH",
"236 200 OFFCURVE",
"299 161 OFFCURVE",
"299 108 CURVE SMOOTH",
"299 53 OFFCURVE",
"249 17 OFFCURVE",
"193 17 CURVE SMOOTH",
"105 17 OFFCURVE",
"78 85 OFFCURVE",
"78 120 CURVE SMOOTH",
"78 122 OFFCURVE",
"77 124 OFFCURVE",
"75 124 CURVE SMOOTH",
"65 124 OFFCURVE",
"31 89 OFFCURVE",
"31 76 CURVE SMOOTH",
"31 49 OFFCURVE",
"85 -10 OFFCURVE",
"196 -10 CURVE SMOOTH"
);
}
);
userData = {
com.fontlab.hintData = {
hhints = (
{
position = -10;
width = 37;
},
{
position = -10;
width = 27;
},
{
position = 471;
width = 40;
},
{
position = 489;
width = 22;
},
{
position = 683;
width = 40;
}
);
vhints = (
{
position = 31;
width = 47;
},
{
position = 65;
width = 62;
},
{
position = 292;
width = 20;
},
{
position = 299;
width = 60;
},
{
position = 530;
width = 69;
},
{
position = 575;
width = 24;
}
);
};
com.schriftgestaltung.Glyphs.lastChange = "2019-09-01 00:49:25 +0000";
};
width = 761;
}
);
unicode = FB06;
},
{
glyphname = ordfeminine;
layers = (
{
layerId = master01;
paths = (
{
closed = 1;
nodes = (
"118 564 OFFCURVE",
"136 570 OFFCURVE",
"154 580 CURVE",
"154 577 OFFCURVE",
"156 565 OFFCURVE",
"166 565 CURVE SMOOTH",
"176 565 OFFCURVE",
"186 570 OFFCURVE",
"196 574 CURVE",
"194 585 LINE",
"190 584 OFFCURVE",
"186 583 OFFCURVE",
"183 583 CURVE",
"183 689 LINE SMOOTH",
"183 707 OFFCURVE",
"167 738 OFFCURVE",
"117 738 CURVE SMOOTH",
"98 738 OFFCURVE",
"70 739 OFFCURVE",
"58 714 CURVE SMOOTH",
"57 712 OFFCURVE",
"56 710 OFFCURVE",
"56 708 CURVE SMOOTH",
"56 701 OFFCURVE",
"64 697 OFFCURVE",
"70 697 CURVE SMOOTH",
"94 697 OFFCURVE",
"92 728 OFFCURVE",
"116 728 CURVE SMOOTH",
"138 728 OFFCURVE",
"150 716 OFFCURVE",
"155 698 CURVE SMOOTH",
"156 694 OFFCURVE",
"156 682 OFFCURVE",
"156 674 CURVE",
"113 661 OFFCURVE",
"45 639 OFFCURVE",
"45 606 CURVE SMOOTH",
"45 576 OFFCURVE",
"71 564 OFFCURVE",
"98 564 CURVE SMOOTH"
);
},
{
closed = 1;
nodes = (
"92 580 OFFCURVE",
"78 591 OFFCURVE",
"78 609 CURVE SMOOTH",
"78 633 OFFCURVE",
"115 647 OFFCURVE",
"153 659 CURVE",
"153 593 LINE",
"142 585 OFFCURVE",
"130 580 OFFCURVE",
"113 580 CURVE SMOOTH"
);
}
);
userData = {
com.fontlab.hintData = {
hhints = (
{
position = 564;
width = 16;
},
{
position = 728;
width = 10;
}
);
vhints = (
{
position = 45;
width = 34;
},
{
position = 153;
width = 30;
},
{
position = 154;
width = 42;
}
);
};
com.schriftgestaltung.Glyphs.lastChange = "2019-09-01 01:24:00 +0000";
};
width = 255;
}
);
unicode = 00AA;
},
{
glyphname = ordmasculine;
layers = (
{
layerId = master01;
paths = (
{
closed = 1;
nodes = (
"180 564 OFFCURVE",
"211 587 OFFCURVE",
"211 652 CURVE SMOOTH",
"211 714 OFFCURVE",
"172 739 OFFCURVE",
"128 739 CURVE SMOOTH",
"80 739 OFFCURVE",
"49 714 OFFCURVE",
"49 652 CURVE SMOOTH",
"49 589 OFFCURVE",
"83 564 OFFCURVE",
"131 564 CURVE SMOOTH"
);
},
{
closed = 1;
nodes = (
"96 576 OFFCURVE",
"81 607 OFFCURVE",
"81 659 CURVE SMOOTH",
"81 700 OFFCURVE",
"97 732 OFFCURVE",
"128 732 CURVE SMOOTH",
"166 732 OFFCURVE",
"178 698 OFFCURVE",
"178 646 CURVE SMOOTH",
"178 617 OFFCURVE",
"168 576 OFFCURVE",
"133 576 CURVE SMOOTH"
);
}
);
userData = {
com.fontlab.hintData = {
hhints = (
{
position = 564;
width = 12;
},
{
position = 732;
width = 7;
}
);
vhints = (
{
position = 49;
width = 32;
},
{
position = 178;
width = 32;
}
);
};
com.schriftgestaltung.Glyphs.lastChange = "2019-09-01 01:24:04 +0000";
};
width = 255;
}
);
unicode = 00BA;
},
{
glyphname = uni01C3;
layers = (
{
layerId = master01;
paths = (
{
closed = 1;
nodes = (
"131 206 OFFCURVE",
"140.744 216.234 OFFCURVE",
"141.507 231 CURVE SMOOTH",
"156.507 701 LINE",
"156.507 725 OFFCURVE",
"145.507 745 OFFCURVE",
"118.507 745 CURVE SMOOTH",
"116.507 745 LINE SMOOTH",
"92.507 745 OFFCURVE",
"78.507 726 OFFCURVE",
"78.507 701 CURVE",
"95.507 231 LINE SMOOTH",
"96.369 215.895 OFFCURVE",
"106 206 OFFCURVE",
"119 205.71 CURVE SMOOTH"
);
},
{
closed = 1;
nodes = (
"146.507 -11.1 OFFCURVE",
"169.507 12 OFFCURVE",
"169.507 40 CURVE SMOOTH",
"169.507 68 OFFCURVE",
"146.507 91 OFFCURVE",
"118.507 91 CURVE SMOOTH",
"89.507 91 OFFCURVE",
"67 68 OFFCURVE",
"67 40 CURVE SMOOTH",
"67 12 OFFCURVE",
"89.507 -11.1 OFFCURVE",
"118.507 -11.1 CURVE SMOOTH"
);
}
);
userData = {
com.fontlab.hintData = {
hhints = (
{
position = -11;
width = 102;
}
);
vhints = (
{
position = 67;
width = 103;
},
{
position = 79;
width = 78;
},
{
position = 96;
width = 46;
}
);
};
com.schriftgestaltung.Glyphs.lastChange = "2019-09-01 00:49:25 +0000";
};
width = 236;
}
);
unicode = 01C3;
},
{
glyphname = Alpha;
layers = (
{
layerId = master01;
paths = (
{
closed = 1;
nodes = (
"198 0 LINE",
"198 16 LINE",
"190 16 OFFCURVE",
"183 16 OFFCURVE",
"175 17 CURVE SMOOTH",
"162 19 OFFCURVE",
"148 24 OFFCURVE",
"148 42 CURVE SMOOTH",
"148 50 OFFCURVE",
"151 60 OFFCURVE",
"157 74 CURVE SMOOTH",
"252 304 LINE SMOOTH",
"254 308 OFFCURVE",
"255 312 OFFCURVE",
"261 312 CURVE SMOOTH",
"481 312 LINE SMOOTH",
"485 312 OFFCURVE",
"487 307 OFFCURVE",
"489 303 CURVE SMOOTH",
"586 67 LINE SMOOTH",
"589 59 OFFCURVE",
"589 52 OFFCURVE",
"589 47 CURVE SMOOTH",
"589 27 OFFCURVE",
"576 21 OFFCURVE",
"562 18 CURVE SMOOTH",
"554 16 OFFCURVE",
"546 16 OFFCURVE",
"537 16 CURVE",
"537 0 LINE",
"724 0 LINE",
"724 16 LINE",
"716 16 OFFCURVE",
"707 17 OFFCURVE",
"699 18 CURVE SMOOTH",
"690 19 OFFCURVE",
"684 26 OFFCURVE",
"680 36 CURVE SMOOTH",
"399 730 LINE",
"387 719 OFFCURVE",
"384 721 OFFCURVE",
"372 711 CURVE",
"104 55 LINE",
"96 38 OFFCURVE",
"89 22 OFFCURVE",
"74 18 CURVE SMOOTH",
"66 16 OFFCURVE",
"58 16 OFFCURVE",
"50 16 CURVE",
"50 0 LINE"
);
},
{
closed = 1;
nodes = (
"272 341 OFFCURVE",
"269 343 OFFCURVE",
"269 346 CURVE SMOOTH",
"269 347 OFFCURVE",
"270 348 OFFCURVE",
"270 349 CURVE SMOOTH",
"370 593 LINE",
"470 349 LINE SMOOTH",
"470 348 OFFCURVE",
"471 347 OFFCURVE",
"471 346 CURVE SMOOTH",
"471 343 OFFCURVE",
"469 341 OFFCURVE",
"464 341 CURVE SMOOTH",
"456 341 LINE",
"276 341 LINE SMOOTH"
);
}
);
userData = {
com.fontlab.hintData = {
hhints = (
{
position = 0;
width = 16;
},
{
position = 312;
width = 29;
},
{
position = 710;
width = 20;
}
);
};
com.schriftgestaltung.Glyphs.lastChange = "2019-09-01 01:24:31 +0000";
};
width = 777;
}
);
unicode = 0391;
},
{
glyphname = Beta;
layers = (
{
layerId = master01;
paths = (
{
closed = 1;
nodes = (
"449 -2 OFFCURVE",
"552 48 OFFCURVE",
"552 185 CURVE SMOOTH",
"552 321 OFFCURVE",
"428 380 OFFCURVE",
"341 384 CURVE",
"434 402 OFFCURVE",
"511 464 OFFCURVE",
"511 549 CURVE SMOOTH",
"511 655 OFFCURVE",
"414 734 OFFCURVE",
"272 734 CURVE SMOOTH",
"208 734 OFFCURVE",
"144 730 OFFCURVE",
"80 730 CURVE SMOOTH",
"71 730 OFFCURVE",
"63 730 OFFCURVE",
"54 730 CURVE",
"54 714 LINE",
"62 714 OFFCURVE",
"71 714 OFFCURVE",
"78 712 CURVE SMOOTH",
"96 707 OFFCURVE",
"106 687 OFFCURVE",
"106 668 CURVE",
"106 668 LINE",
"108 580 OFFCURVE",
"109 491 OFFCURVE",
"109 403 CURVE SMOOTH",
"109 285 OFFCURVE",
"106 167 OFFCURVE",
"106 49 CURVE SMOOTH",
"106 35 OFFCURVE",
"97 23 OFFCURVE",
"78 18 CURVE SMOOTH",
"70 16 OFFCURVE",
"62 16 OFFCURVE",
"54 16 CURVE",
"54 0 LINE",
"134 0 LINE SMOOTH",
"204 0 OFFCURVE",
"264 -2 OFFCURVE",
"335 -2 CURVE SMOOTH"
);
},
{
closed = 1;
nodes = (
"241 24 OFFCURVE",
"225 25 OFFCURVE",
"209 25 CURVE SMOOTH",
"199 25 OFFCURVE",
"188 28 OFFCURVE",
"187 50 CURVE",
"187 356 LINE",
"245 358 LINE SMOOTH",
"382 363 OFFCURVE",
"468 310 OFFCURVE",
"468 195 CURVE SMOOTH",
"468 100 OFFCURVE",
"424 24 OFFCURVE",
"257 24 CURVE SMOOTH"
);
},
{
closed = 1;
nodes = (
"215 394 OFFCURVE",
"199 395 OFFCURVE",
"186 395 CURVE",
"185 522 LINE",
"184 685 LINE",
"185 696 OFFCURVE",
"189 702 OFFCURVE",
"201 702 CURVE SMOOTH",
"202 702 OFFCURVE",
"244 704 OFFCURVE",
"260 704 CURVE SMOOTH",
"377 704 OFFCURVE",
"436 644 OFFCURVE",
"436 548 CURVE SMOOTH",
"436 454 OFFCURVE",
"346 394 OFFCURVE",
"230 394 CURVE SMOOTH"
);
}
);
userData = {
com.fontlab.hintData = {
hhints = (
{
position = -2;
width = 26;
},
{
position = 0;
width = 16;
},
{
position = 358;
width = 36;
},
{
position = 704;
width = 30;
},
{
position = 714;
width = 16;
}
);
vhints = (
{
position = 109;
width = 76;
},
{
position = 436;
width = 76;
},
{
position = 468;
width = 84;
}
);
};
com.schriftgestaltung.Glyphs.lastChange = "2019-09-01 01:24:36 +0000";
};
width = 601;
}
);
unicode = 0392;
},
{
glyphname = Gamma;
layers = (
{
layerId = master01;
paths = (
{
closed = 1;
nodes = (
"249 0 LINE",
"249 16 LINE",
"237 16 OFFCURVE",
"227 16 OFFCURVE",
"216 19 CURVE SMOOTH",
"199 24 OFFCURVE",
"191 36 OFFCURVE",
"191 48 CURVE SMOOTH",
"191 48 OFFCURVE",
"186 238 OFFCURVE",
"186 390 CURVE SMOOTH",
"186 509 OFFCURVE",
"191 557 OFFCURVE",
"191 676 CURVE SMOOTH",
"191 689 OFFCURVE",
"199 704 OFFCURVE",
"219 706 CURVE SMOOTH",
"239 708 OFFCURVE",
"249 709 OFFCURVE",
"269 709 CURVE SMOOTH",
"328 709 OFFCURVE",
"375 708 OFFCURVE",
"416 698 CURVE SMOOTH",
"477 683 OFFCURVE",
"504 652 OFFCURVE",
"517 591 CURVE",
"533 590 LINE",
"516 730 LINE",
"50 730 LINE",
"50 714 LINE",
"60 714 OFFCURVE",
"71 714 OFFCURVE",
"80 712 CURVE SMOOTH",
"99 708 OFFCURVE",
"108 695 OFFCURVE",
"108 682 CURVE",
"110 657 OFFCURVE",
"111 530 OFFCURVE",
"111 396 CURVE SMOOTH",
"111 237 OFFCURVE",
"110 67 OFFCURVE",
"108 48 CURVE",
"108 36 OFFCURVE",
"99 23 OFFCURVE",
"80 18 CURVE SMOOTH",
"72 16 OFFCURVE",
"64 16 OFFCURVE",
"56 16 CURVE",
"56 0 LINE"
);
}
);
userData = {
com.fontlab.hintData = {
hhints = (
{
position = 0;
width = 16;
},
{
position = 709;
width = 21;
}
);
vhints = (
{
position = 111;
width = 75;
},
{
position = 517;
width = 16;
}
);
};
com.schriftgestaltung.Glyphs.lastChange = "2019-09-01 01:24:40 +0000";
};
width = 579;
}
);
unicode = 0393;
},
{
glyphname = uni0394;
layers = (
{
layerId = master01;
paths = (
{
closed = 1;
nodes = (
"597 0 LINE",
"739 0 LINE",
"739 13 LINE",
"739 16 LINE",
"733 16 OFFCURVE",
"727 17 OFFCURVE",
"719 18 CURVE SMOOTH",
"706 20 OFFCURVE",
"699 36 OFFCURVE",
"694 49 CURVE SMOOTH",
"435 680 LINE SMOOTH",
"434 683 OFFCURVE",
"433 688 OFFCURVE",
"433 692 CURVE SMOOTH",
"433 700 OFFCURVE",
"436 708 OFFCURVE",
"441 711 CURVE SMOOTH",
"445 714 OFFCURVE",
"449 714 OFFCURVE",
"449 714 CURVE",
"449 730 LINE",
"307 730 LINE",
"307 714 LINE",
"307 714 OFFCURVE",
"311 714 OFFCURVE",
"315 711 CURVE SMOOTH",
"320 708 OFFCURVE",
"323 700 OFFCURVE",
"323 692 CURVE SMOOTH",
"323 689 OFFCURVE",
"323 686 OFFCURVE",
"322 683 CURVE SMOOTH",
"57 0 LINE"
);
},
{
closed = 1;
nodes = (
"357 650 LINE",
"452 436 OFFCURVE",
"530 244 OFFCURVE",
"604 45 CURVE",
"122 45 LINE"
);
}
);
userData = {
com.fontlab.hintData = {
hhints = (
{
position = 0;
width = 45;
},
{
position = 0;
width = 16;
},
{
position = 710;
width = 20;
}
);
vhints = (
{
position = 323;
width = 109;
}
);
};
com.schriftgestaltung.Glyphs.lastChange = "2019-09-01 01:24:44 +0000";
};
width = 815;
}
);
unicode = 0394;
},
{
glyphname = Epsilon;
layers = (
{
layerId = master01;
paths = (
{
closed = 1;
nodes = (
"244 0 LINE SMOOTH",
"522 0 LINE",
"539 140 LINE",
"523 139 LINE",
"510 79 OFFCURVE",
"483 48 OFFCURVE",
"422 32 CURVE SMOOTH",
"379 21 OFFCURVE",
"329 21 OFFCURVE",
"267 21 CURVE SMOOTH",
"249 21 OFFCURVE",
"239 22 OFFCURVE",
"220 24 CURVE SMOOTH",
"200 26 OFFCURVE",
"192 41 OFFCURVE",
"192 55 CURVE SMOOTH",
"188 373 LINE",
"217 376 OFFCURVE",
"259 379 OFFCURVE",
"292 379 CURVE SMOOTH",
"326 379 OFFCURVE",
"355 376 OFFCURVE",
"385 373 CURVE SMOOTH",
"394 372 OFFCURVE",
"412 361 OFFCURVE",
"415 343 CURVE SMOOTH",
"417 331 OFFCURVE",
"416 319 OFFCURVE",
"417 319 CURVE SMOOTH",
"433 319 LINE",
"433 467 LINE",
"417 467 LINE SMOOTH",
"415 467 OFFCURVE",
"417 451 OFFCURVE",
"415 442 CURVE SMOOTH",
"412 427 OFFCURVE",
"400 416 OFFCURVE",
"388 414 CURVE SMOOTH",
"358 409 OFFCURVE",
"329 408 OFFCURVE",
"292 408 CURVE SMOOTH",
"260 408 OFFCURVE",
"218 411 OFFCURVE",
"188 413 CURVE",
"192 681 LINE SMOOTH",
"192 693 OFFCURVE",
"203 704 OFFCURVE",
"219 706 CURVE SMOOTH",
"239 708 OFFCURVE",
"250 709 OFFCURVE",
"270 709 CURVE SMOOTH",
"317 709 OFFCURVE",
"354 708 OFFCURVE",
"388 698 CURVE SMOOTH",
"448 680 OFFCURVE",
"476 651 OFFCURVE",
"489 591 CURVE",
"505 590 LINE",
"488 730 LINE",
"252 730 LINE",
"252 730 LINE",
"57 730 LINE",
"57 714 LINE",
"65 714 OFFCURVE",
"73 714 OFFCURVE",
"81 712 CURVE SMOOTH",
"100 707 OFFCURVE",
"109 695 OFFCURVE",
"109 682 CURVE SMOOTH",
"109 656 OFFCURVE",
"112 538 OFFCURVE",
"112 411 CURVE SMOOTH",
"112 247 OFFCURVE",
"111 67 OFFCURVE",
"109 49 CURVE",
"109 35 OFFCURVE",
"100 22 OFFCURVE",
"81 18 CURVE SMOOTH",
"72 16 OFFCURVE",
"61 16 OFFCURVE",
"51 16 CURVE",
"51 0 LINE"
);
}
);
userData = {
com.fontlab.hintData = {
hhints = (
{
position = 0;
width = 21;
},
{
position = 379;
width = 29;
},
{
position = 709;
width = 21;
}
);
vhints = (
{
position = 109;
width = 83;
},
{
position = 417;
width = 16;
},
{
position = 489;
width = 16;
},
{
position = 523;
width = 16;
}
);
};
com.schriftgestaltung.Glyphs.lastChange = "2019-09-01 01:24:49 +0000";
};
width = 588;
}
);
unicode = 0395;
},
{
glyphname = Zeta;
layers = (
{
layerId = master01;
paths = (
{
closed = 1;
nodes = (
"568 0 LINE",
"594 154 LINE",
"575 153 LINE",
"562 85 OFFCURVE",
"534 41 OFFCURVE",
"468 32 CURVE SMOOTH",
"417 25 OFFCURVE",
"332 25 OFFCURVE",
"288 25 CURVE SMOOTH",
"244 25 OFFCURVE",
"201 28 OFFCURVE",
"165 33 CURVE",
"590 682 LINE",
"595 690 OFFCURVE",
"597 699 OFFCURVE",
"597 707 CURVE SMOOTH",
"597 720 OFFCURVE",
"593 730 OFFCURVE",
"593 730 CURVE SMOOTH",
"565 730 LINE",
"342 730 LINE",
"156 730 LINE SMOOTH",
"149 730 OFFCURVE",
"134 735 OFFCURVE",
"125 735 CURVE SMOOTH",
"120 735 OFFCURVE",
"117 734 OFFCURVE",
"116 730 CURVE",
"85 590 LINE",
"101 591 LINE",
"115 652 OFFCURVE",
"145 685 OFFCURVE",
"213 698 CURVE SMOOTH",
"254 706 OFFCURVE",
"300 708 OFFCURVE",
"359 708 CURVE",
"416 708 OFFCURVE",
"503 704 OFFCURVE",
"503 704 CURVE",
"60 36 LINE",
"57 31 OFFCURVE",
"54 24 OFFCURVE",
"54 18 CURVE SMOOTH",
"54 4 OFFCURVE",
"72 0 OFFCURVE",
"80 0 CURVE SMOOTH"
);
}
);
userData = {
com.fontlab.hintData = {
hhints = (
{
position = 0;
width = 25;
},
{
position = 708;
width = 22;
}
);
};
com.schriftgestaltung.Glyphs.lastChange = "2019-09-01 01:24:54 +0000";
};
width = 652;
}
);
unicode = 0396;
},
